<svg width="81" height="43" viewBox="0 0 81 43" fill="none" xmlns="http://www.w3.org/2000/svg">
<path fill-rule="evenodd" clip-rule="evenodd" d="M46.7631 0.104674C46.7631 0.150546 46.5305 0.187913 46.2463 0.187913C45.9621 0.187913 45.752 0.224508 45.7796 0.269091C45.8069 0.313675 45.715 0.359805 45.5756 0.371402C45.4295 0.383772 45.3486 0.349238 45.3848 0.290223C45.4193 0.234043 45.3989 0.187913 45.3394 0.187913C45.2799 0.187913 45.2311 0.2343 45.2311 0.290996C45.2311 0.347692 45.0932 0.39408 44.9247 0.39408C44.7562 0.39408 44.6183 0.430675 44.6183 0.475258C44.6183 0.519841 44.5254 0.563394 44.4118 0.572156C44.2831 0.581949 44.2282 0.541746 44.2662 0.465207C44.2997 0.397688 44.2591 0.426551 44.1761 0.529119C44.0804 0.647664 44.0007 0.675753 43.9583 0.60643C43.8598 0.445363 43.6992 0.473711 43.6992 0.651787C43.6992 0.736831 43.6504 0.806411 43.5909 0.806411C43.5314 0.806411 43.5174 0.748427 43.5595 0.677557C43.6208 0.574732 43.6044 0.574475 43.4796 0.676785C43.3935 0.747139 43.2927 0.774199 43.2557 0.736831C43.2186 0.699463 43.1885 0.713121 43.1885 0.76724C43.1885 0.8211 43.1081 0.873674 43.0098 0.883982C42.5129 0.935781 42.3518 0.992734 42.1169 1.1989C41.976 1.32234 41.8608 1.39141 41.8608 1.35198C41.8608 1.31281 41.8057 1.33626 41.7382 1.40429C41.6708 1.47233 41.5128 1.52799 41.3869 1.52799C41.261 1.52799 41.1295 1.57438 41.0948 1.63108C41.0601 1.68777 40.8969 1.73416 40.7323 1.73416C40.5433 1.73416 40.3855 1.81018 40.3051 1.94032C40.2349 2.05372 40.0968 2.14649 39.9979 2.14649C39.8991 2.14649 39.8174 2.20448 39.8167 2.27535C39.8154 2.37843 39.7988 2.37843 39.7339 2.27535C39.6709 2.1751 39.6091 2.18257 39.4546 2.30885C39.3456 2.39801 39.3254 2.44105 39.4097 2.4042C39.4939 2.36735 39.4738 2.41038 39.3647 2.49955C39.2103 2.62583 39.1485 2.6333 39.0854 2.53305C39.0272 2.44079 39.0039 2.45445 39.0027 2.58202C39.0019 2.67969 38.8582 2.83431 38.6835 2.92554C38.5089 3.01677 38.3965 3.04099 38.4343 2.97966C38.4719 2.91832 38.454 2.86807 38.3945 2.86807C38.335 2.86807 38.2862 2.96368 38.2862 3.08042C38.2862 3.19717 38.2426 3.26546 38.1892 3.23196C38.1358 3.19871 38.0452 3.26005 37.9878 3.36854C37.9303 3.47678 37.8042 3.5961 37.7077 3.63346C37.5557 3.69222 37.5588 3.67083 37.7301 3.47652L37.9288 3.25128L37.699 3.3938C37.5726 3.47214 37.4692 3.5644 37.4692 3.59867C37.4692 3.69093 37.0995 4.10507 37.017 4.10507C36.9782 4.10507 36.9779 4.05378 37.0162 3.99142C37.0545 3.9288 36.9652 3.95714 36.8178 4.05482C36.5528 4.23006 36.4318 4.39525 36.6777 4.24603C36.7645 4.19346 36.7604 4.22439 36.6652 4.34293C36.588 4.4388 36.467 4.5174 36.3963 4.5174C36.3253 4.5174 36.239 4.62177 36.2045 4.74934C36.1619 4.90628 36.1159 4.94133 36.0621 4.85783C36.0092 4.77562 35.9326 4.76712 35.8323 4.83206C35.7 4.91788 35.7005 4.94313 35.8351 5.03952C35.9571 5.12688 35.9431 5.13667 35.7662 5.08668C35.59 5.03694 35.5371 5.07225 35.5108 5.25779C35.4927 5.38639 35.3821 5.53947 35.2654 5.59797C34.9524 5.75465 34.7405 5.99638 34.7885 6.14199C34.8117 6.21234 34.7612 6.26981 34.6759 6.26981C34.5909 6.26981 34.4921 6.36259 34.4563 6.47598C34.4206 6.58937 34.344 6.68214 34.2863 6.68214C34.1397 6.68214 33.624 7.25425 33.6633 7.37306C33.6809 7.42666 33.6023 7.55526 33.4886 7.65911C33.3748 7.76297 33.2818 7.93641 33.2818 8.04438C33.2818 8.15211 33.2351 8.21138 33.1779 8.17582C33.121 8.14025 33.1051 8.06062 33.1427 7.99929C33.1827 7.93409 33.1639 7.91682 33.0977 7.95805C33.0354 7.99697 33.0124 8.10263 33.0467 8.19283C33.0837 8.29024 33.0395 8.39616 32.9379 8.45363C32.8439 8.50671 32.7903 8.58866 32.8189 8.63531C32.8475 8.68221 32.7939 8.78375 32.6994 8.86106C32.5812 8.9577 32.5516 8.96131 32.6044 8.87266C32.6466 8.80179 32.6542 8.7438 32.6215 8.7438C32.5886 8.7438 32.5197 8.85616 32.4678 8.99326C32.4068 9.15536 32.3093 9.23036 32.1895 9.20716C32.0882 9.18783 31.9508 9.16825 31.8844 9.16412C31.818 9.15974 31.7345 9.06336 31.6988 8.94997C31.663 8.83658 31.5885 8.7438 31.5326 8.7438C31.4769 8.7438 31.4596 8.78967 31.4938 8.8456C31.5295 8.9041 31.4887 8.92137 31.3978 8.88632C31.3104 8.85256 31.2356 8.7487 31.231 8.65541C31.2254 8.53764 31.2068 8.52759 31.1692 8.62217C31.1299 8.72138 31.075 8.70025 30.9673 8.54485C30.8858 8.4276 30.7643 8.33508 30.6971 8.33972C30.6091 8.34539 30.6106 8.36214 30.703 8.39977C30.846 8.45801 30.8779 8.64072 30.7449 8.64072C30.6979 8.64072 30.6057 8.52218 30.5404 8.37709C30.4722 8.22659 30.3729 8.14386 30.3083 8.18432C30.246 8.22298 30.1561 8.19128 30.1084 8.11345C30.0578 8.03073 29.8824 7.98176 29.6858 7.99542C29.4284 8.0132 29.3968 7.99877 29.5502 7.93409C29.7325 7.85729 29.7251 7.84286 29.469 7.77817C29.314 7.73875 29.1381 7.7372 29.0784 7.77457C29.0184 7.81193 28.9385 7.79157 28.9004 7.72947C28.8624 7.66736 28.6836 7.60525 28.5031 7.59134C28.3229 7.57742 28.1753 7.52665 28.1753 7.47872C28.1753 7.43078 28.1331 7.4179 28.0813 7.45011C28.0297 7.48233 27.9263 7.44908 27.8515 7.37615C27.777 7.30322 27.5319 7.22874 27.3072 7.21044C27.0825 7.1924 26.8649 7.12411 26.8236 7.05865C26.7725 6.97773 26.7475 6.98907 26.7455 7.09448C26.7432 7.20658 26.7207 7.21483 26.6637 7.12411C26.5688 6.97335 22.6949 6.95454 22.603 7.10453C22.5693 7.15968 22.468 7.15607 22.3559 7.09551C22.2239 7.02438 22.1544 7.0285 22.1274 7.10994C22.1062 7.17411 21.8996 7.23183 21.668 7.23802C21.4364 7.24395 21.2128 7.28389 21.1706 7.32641C21.1285 7.36894 21.0072 7.40372 20.901 7.40372C20.7945 7.40372 20.7361 7.45011 20.7708 7.50681C20.8091 7.56917 20.6676 7.60989 20.4133 7.60989C20.1481 7.60989 20.0171 7.64958 20.0584 7.7171C20.1011 7.78668 20.0314 7.80085 19.8603 7.75756C19.6525 7.70473 19.5963 7.7287 19.5963 7.8694C19.5963 8.01243 19.536 8.03588 19.294 7.98692C19.1165 7.9511 18.9621 7.97378 18.9207 8.04155C18.8776 8.11191 18.8959 8.1284 18.9677 8.08356C19.0325 8.0431 19.0856 8.06242 19.0856 8.12659C19.0856 8.19076 18.9822 8.23277 18.8559 8.22014C18.5489 8.18947 18.0735 8.39358 17.9997 8.58763C17.9671 8.67345 17.8736 8.7438 17.7922 8.7438C17.7105 8.7438 17.6722 8.79019 17.7069 8.84689C17.7416 8.90358 17.6956 8.94997 17.6047 8.94997C17.5138 8.94997 17.4679 8.90358 17.5026 8.84689C17.5373 8.79019 17.5172 8.7438 17.4577 8.7438C17.3982 8.7438 17.3494 8.78298 17.3494 8.83117C17.3494 9.0662 16.9294 9.40714 16.8263 9.25587C16.7507 9.1448 16.7425 9.17289 16.7956 9.36153C16.8589 9.58599 16.848 9.60145 16.7088 9.48497C16.5745 9.37235 16.5393 9.38447 16.4831 9.56306C16.4463 9.67954 16.371 9.77464 16.3151 9.77464C16.2594 9.77464 16.2421 9.72876 16.2763 9.67284C16.3136 9.61176 16.2668 9.59862 16.1599 9.64011C16.0498 9.68263 16.0281 9.72515 16.1034 9.75067C16.3136 9.82128 16.2372 10.0079 16.0215 9.95091C15.9091 9.92127 15.8379 9.93081 15.8632 9.97204C15.9229 10.0695 15.5935 10.3529 15.3178 10.4411C15.1993 10.4792 15.1025 10.556 15.1025 10.6124C15.1025 10.6686 15.16 10.6825 15.2302 10.6436C15.3004 10.6045 15.1051 10.8279 14.7962 11.14C14.4872 11.4521 14.2038 11.6897 14.166 11.6678C14.1285 11.6461 14.0434 11.794 13.9771 11.9968C13.9109 12.1997 13.8305 12.3391 13.7986 12.3069C13.6896 12.1968 13.3663 12.5891 13.3663 12.8316C13.3663 12.9645 13.3204 13.0733 13.2642 13.0733C13.208 13.0733 13.1613 13.0153 13.1605 12.9444C13.1598 12.8736 13.0995 12.9316 13.0265 13.0733C12.9524 13.2179 12.9343 13.3586 12.9856 13.3939C13.0359 13.4287 13.0043 13.4851 12.9154 13.5196C12.8263 13.5539 12.7535 13.6998 12.7535 13.8431C12.7535 14.0064 12.6961 14.1041 12.6003 14.1041C12.5138 14.1041 12.4471 14.1964 12.4471 14.3165C12.4471 14.4332 12.4042 14.502 12.3522 14.4693C12.2998 14.4368 12.2237 14.4644 12.1831 14.5306C12.1369 14.6061 12.1535 14.6237 12.2271 14.5778C12.451 14.4381 12.2633 14.9115 11.9523 15.2708C11.863 15.3738 11.7869 15.5826 11.783 15.7346C11.7784 15.9143 11.7264 16.0001 11.6347 15.9795C11.5183 15.9534 11.5165 15.9761 11.6252 16.1083C11.7013 16.2008 11.7126 16.2689 11.6521 16.2689C11.5944 16.2689 11.5714 16.3624 11.601 16.4766C11.6424 16.6364 11.6166 16.6693 11.4892 16.6201C11.2972 16.5459 11.2604 16.7405 11.4514 16.8209C11.5466 16.8608 11.5379 16.9088 11.4169 17.0098C11.3278 17.0843 11.2762 17.2095 11.3025 17.2884C11.3288 17.367 11.3038 17.4025 11.2471 17.3672C11.183 17.3273 11.1488 17.4669 11.1572 17.7347C11.1726 18.231 10.9522 18.3383 9.92502 18.3339C9.63319 18.3328 9.36637 18.3779 9.3319 18.4341C9.29718 18.4906 9.17717 18.5367 9.06483 18.5367C8.95248 18.5367 8.88891 18.5831 8.92363 18.6398C8.96295 18.7039 8.76941 18.7429 8.41298 18.7429C8.09739 18.7429 7.86454 18.7843 7.89569 18.8351C7.92684 18.8859 7.88113 18.955 7.79432 18.9887C7.70394 19.0235 7.66308 19.0062 7.69883 18.9477C7.73304 18.8918 7.71108 18.8459 7.64981 18.8459C7.58853 18.8459 7.51065 18.9194 7.47644 19.0088C7.44044 19.1036 7.33805 19.1516 7.23209 19.1237C7.10366 19.0897 7.06638 19.1201 7.10673 19.2261C7.14171 19.3181 7.10902 19.3675 7.02247 19.3529C6.8777 19.3284 6.51309 19.4539 6.42143 19.56C6.26159 19.7448 5.91052 19.8729 5.90439 19.7487C5.90082 19.6776 5.85639 19.7234 5.80558 19.851C5.75477 19.9786 5.66285 20.0829 5.60157 20.0829C5.53978 20.0829 5.52421 20.0257 5.56685 19.9541C5.6197 19.8654 5.59008 19.869 5.47187 19.9657C5.3774 20.043 5.32531 20.1474 5.3562 20.1976C5.3871 20.2479 5.33782 20.2891 5.24692 20.2891C5.14684 20.2891 5.11084 20.3365 5.15552 20.4097C5.20429 20.4893 5.17492 20.5092 5.06871 20.468C4.96913 20.4296 4.8407 20.4963 4.73116 20.6432C4.61422 20.8007 4.48171 20.8648 4.33898 20.8336C4.16332 20.7952 4.15183 20.8071 4.27668 20.897C4.42809 21.006 4.3183 21.0661 4.04689 21.0228C4.00476 21.0161 3.98178 21.0666 3.99582 21.1349C4.00987 21.2032 3.96774 21.2612 3.90212 21.2638C3.83675 21.2663 3.74484 21.3107 3.69786 21.3622C3.64858 21.4168 3.66645 21.4251 3.7405 21.382C3.81071 21.3411 3.86816 21.3369 3.86816 21.3728C3.86816 21.4746 3.56253 21.7573 3.55538 21.6624C3.55181 21.6158 3.50738 21.682 3.45657 21.8096C3.40576 21.9371 3.31384 22.0415 3.25257 22.0415C3.19129 22.0415 3.17418 21.9835 3.21478 21.9127C3.25512 21.8418 3.24874 21.8199 3.20073 21.8642C3.15273 21.9083 3.10192 22.0235 3.08788 22.1199C3.07384 22.2165 3.01383 22.3118 2.9546 22.3317C2.89536 22.3515 2.84685 22.4286 2.84685 22.5031C2.84685 22.5773 2.77562 22.6657 2.68829 22.6994C2.58412 22.7396 2.55169 22.7172 2.59382 22.633C2.62906 22.5629 2.58693 22.5935 2.50012 22.701C2.41356 22.8085 2.36709 22.9365 2.39722 22.9852C2.42709 23.0342 2.34513 23.1172 2.21517 23.1698C2.07934 23.2247 2.04385 23.2697 2.13194 23.2754C2.24453 23.2826 2.22411 23.3368 2.05508 23.479C1.9287 23.5857 1.84929 23.7365 1.87891 23.8143C1.90853 23.8921 1.8281 24.0692 1.70043 24.2075C1.57252 24.3459 1.46809 24.5018 1.46809 24.5542C1.46809 24.6065 1.37617 24.6856 1.26383 24.7299C1.15148 24.774 1.11701 24.8134 1.18723 24.8175C1.38842 24.8289 1.33608 25.0103 1.11063 25.0825C0.998284 25.1185 0.906367 25.2283 0.906367 25.3265C0.906367 25.4247 0.848918 25.5675 0.778704 25.644C0.676573 25.7551 0.676573 25.7682 0.778704 25.71C0.989859 25.5896 0.92373 25.8747 0.676573 26.1491C0.550186 26.2893 0.504227 26.3707 0.574442 26.33C0.78381 26.2084 0.721511 26.5145 0.497844 26.7078C0.275199 26.9003 0.214687 27.1526 0.421246 27.0274C0.523377 26.9655 0.523377 26.9818 0.421502 27.1088C0.351287 27.1962 0.3112 27.4168 0.332137 27.5987C0.360733 27.8471 0.335457 27.916 0.229751 27.875C0.0717038 27.8139 0.0344259 28.077 0.187622 28.1726C0.243028 28.2072 0.251198 28.3332 0.206005 28.462C0.162344 28.5875 0.140641 28.9571 0.158259 29.2831C0.175877 29.6091 0.154174 29.8758 0.110258 29.8758C0.0663414 29.8758 0.0260001 30.0382 0.0208936 30.2366C0.0155317 30.435 0.0420858 30.5974 0.0793635 30.5974C0.116897 30.5974 0.149834 30.7809 0.152387 31.0051C0.155195 31.252 0.116641 31.3875 0.0548519 31.3489C-0.00949044 31.3089 -0.0176614 31.3584 0.032638 31.4824C0.18226 31.8504 0.273412 32.3493 0.180473 32.2916C0.0752782 32.2259 0.0620008 32.364 0.15111 32.5985C0.185068 32.6879 0.247624 32.7392 0.290008 32.7129C0.332393 32.6864 0.354605 32.7792 0.339286 32.9191C0.324221 33.059 0.353584 33.1997 0.40465 33.2317C0.45597 33.2636 0.497078 33.3451 0.496312 33.4126C0.495291 33.4863 0.455204 33.4737 0.395713 33.3806C0.341329 33.2956 0.29588 33.2778 0.295114 33.341C0.294348 33.4041 0.385755 33.5742 0.498355 33.7188C0.648232 33.911 0.668913 33.9955 0.574953 34.0337C0.503716 34.0628 0.533589 34.0896 0.642614 34.094C0.750107 34.0986 0.808066 34.1326 0.771044 34.17C0.734022 34.2074 0.753937 34.2989 0.815216 34.3731C0.876239 34.4476 0.931133 34.6723 0.936751 34.8723C0.942368 35.0725 0.997008 35.2361 1.05854 35.2361C1.11982 35.2361 1.24263 35.3975 1.33123 35.5946C1.42545 35.8046 1.44485 35.9294 1.37796 35.8961C1.31515 35.8649 1.33685 35.9008 1.42596 35.9758C1.51507 36.051 1.57022 36.1662 1.54826 36.2317C1.5263 36.2974 1.56383 36.3858 1.63175 36.428C1.70963 36.4767 1.72852 36.4615 1.68282 36.3871C1.6389 36.3154 1.66264 36.2904 1.74358 36.3234C1.81686 36.3533 1.95959 36.5499 2.06096 36.7605L2.2453 37.1432L1.98334 36.8339L1.72112 36.5247L1.90112 36.8589C2.00708 37.0561 2.1613 37.1937 2.27671 37.1939C2.3842 37.1945 2.44165 37.2256 2.40411 37.2638C2.36658 37.3017 2.41637 37.4256 2.51467 37.539C2.61323 37.6527 2.63621 37.7117 2.56599 37.6702C2.49578 37.6287 2.43833 37.622 2.43833 37.655C2.43833 37.6882 2.55961 37.7617 2.7077 37.8186C2.85604 37.8756 2.95179 37.9477 2.92064 37.9794C2.84328 38.0573 3.22422 38.4315 3.38304 38.4333C3.46806 38.4343 3.45964 38.4683 3.35751 38.5348C3.23367 38.6157 3.24823 38.635 3.4341 38.6363C3.57351 38.6374 3.6639 38.701 3.6639 38.7987C3.6639 38.8871 3.70935 38.9309 3.76475 38.8964C3.82271 38.8603 3.83982 38.9015 3.80509 38.9933C3.75939 39.1136 3.81658 39.1564 4.03591 39.1651C4.2034 39.1721 4.25268 39.1971 4.15157 39.2239C4.01089 39.261 4.00067 39.2979 4.10051 39.4066C4.19191 39.5061 4.24579 39.511 4.30068 39.4254C4.34996 39.3481 4.37626 39.3644 4.37728 39.4723C4.37932 39.6834 4.70053 39.978 4.92904 39.978C5.02632 39.978 5.07764 40.0238 5.04343 40.0798C5.00845 40.1367 5.04649 40.1565 5.12922 40.1243C5.21067 40.0929 5.31203 40.1238 5.35442 40.1931C5.40778 40.2803 5.38735 40.2937 5.28829 40.2364C5.17007 40.1684 5.16803 40.1792 5.2768 40.297C5.38914 40.4189 5.42285 40.4174 5.50506 40.2864C5.56174 40.1955 5.60183 40.1826 5.60285 40.2545C5.60362 40.3215 5.6963 40.4058 5.80864 40.4418C5.92099 40.4779 6.0129 40.5689 6.0129 40.6439C6.0129 40.7191 6.08414 40.8083 6.17146 40.8421C6.26236 40.8771 6.30321 40.8598 6.26747 40.8013C6.15512 40.6178 6.38543 40.6946 6.57233 40.9034C6.67292 41.0152 6.79012 41.0851 6.83302 41.0585C6.87566 41.0317 6.94102 41.0897 6.97804 41.1869C7.03549 41.3384 7.05872 41.342 7.14017 41.2121C7.21039 41.1003 7.23567 41.0956 7.23694 41.1954C7.23771 41.2696 7.28443 41.3015 7.3406 41.2665C7.39678 41.2314 7.44274 41.257 7.44274 41.3229C7.44274 41.3892 7.51372 41.4157 7.60129 41.3817C7.69219 41.3466 7.73304 41.3639 7.6973 41.4224C7.66002 41.483 7.80224 41.5242 8.04939 41.5242C8.2774 41.5242 8.46404 41.5706 8.46404 41.6273C8.46404 41.684 8.55596 41.7304 8.6683 41.7304C8.78065 41.7304 8.87257 41.7796 8.87257 41.8396C8.87257 41.8997 8.92057 41.9188 8.97929 41.8822C9.03776 41.8456 9.19096 41.8853 9.31939 41.9703C9.4588 42.0623 9.60816 42.0904 9.68936 42.0396C9.76442 41.993 9.94443 42.0002 10.0897 42.0559C10.2347 42.1115 10.3764 42.1656 10.4045 42.1757C10.4326 42.186 10.4454 42.2249 10.4331 42.2625C10.4206 42.3002 10.6044 42.3177 10.8416 42.3012C11.0786 42.285 11.3587 42.3167 11.4636 42.3721C11.5734 42.4298 11.6298 42.4316 11.5961 42.3767C11.5637 42.3241 11.6388 42.2924 11.7626 42.3063C11.8862 42.3203 23.8449 42.3471 38.3373 42.3659L64.687 42.3999L38.2352 42.4548L11.7833 42.5097L40.4552 42.5205C60.5533 42.5282 69.1075 42.4989 69.0608 42.4226C69.0202 42.3566 69.0559 42.3378 69.1517 42.3749C69.2382 42.4084 69.3605 42.3839 69.4236 42.3203C69.4867 42.2566 69.5382 42.2342 69.5382 42.2705C69.5382 42.3069 69.6613 42.2721 69.8117 42.1935C70.0956 42.0448 70.3808 42.1007 70.1365 42.2571C70.0548 42.3094 70.0451 42.3463 70.113 42.3473C70.1763 42.3481 70.2802 42.2855 70.344 42.2079C70.4102 42.1275 70.6019 42.0798 70.7906 42.0971C70.9724 42.1138 71.0638 42.1038 70.9936 42.0749C70.7776 41.9863 70.8524 41.8327 71.0934 41.8698C71.2188 41.8891 71.4601 41.8193 71.6296 41.7149C71.7994 41.6105 72.0445 41.5247 72.1742 41.5245C72.3052 41.5245 72.3818 41.4783 72.3468 41.4211C72.3121 41.3644 72.3284 41.318 72.3833 41.318C72.4382 41.318 72.5061 41.376 72.5345 41.4469C72.5669 41.5278 72.5891 41.5121 72.594 41.4049C72.5996 41.2863 72.6645 41.2508 72.8064 41.2881C72.9188 41.3178 73.0107 41.3003 73.0107 41.2492C73.0107 41.1982 73.16 41.066 73.3426 40.9557C73.6684 40.7588 73.7182 40.7385 73.936 40.7124C73.9955 40.7055 74.0139 40.6501 73.9766 40.5895C73.9362 40.5235 73.985 40.4926 74.0984 40.5122C74.2074 40.531 74.2766 40.4905 74.2618 40.4161C74.2477 40.3452 74.3282 40.2872 74.4405 40.2872C74.5529 40.2872 74.6448 40.2416 74.6448 40.1862C74.6448 40.1305 74.7594 40.056 74.8993 40.0205C75.0395 39.9849 75.1319 39.9197 75.1049 39.8757C75.0778 39.8313 75.1327 39.7318 75.2272 39.6545C75.3454 39.5579 75.375 39.5543 75.3222 39.6429C75.28 39.7138 75.2701 39.7718 75.2999 39.7718C75.3298 39.7718 75.4258 39.6326 75.5129 39.4625C75.6 39.2925 75.7189 39.1533 75.7769 39.1533C75.8348 39.1533 75.8497 39.2069 75.8096 39.2724C75.7644 39.3461 75.7815 39.3633 75.8545 39.3177C75.9194 39.2772 75.9725 39.1806 75.9725 39.103C75.9725 39.0255 76.0874 38.8708 76.2278 38.7593C76.3682 38.6479 76.4865 38.4938 76.4903 38.4168C76.4944 38.34 76.537 38.3699 76.5853 38.4833C76.669 38.6799 76.6733 38.6789 76.6802 38.4575C76.6841 38.3299 76.7362 38.2255 76.7956 38.2255C76.8551 38.2255 76.8753 38.1792 76.8406 38.1225C76.8046 38.0637 76.8942 38.0194 77.0497 38.0194C77.2491 38.0194 77.3063 37.9781 77.2634 37.8655C77.231 37.7797 77.3025 37.6199 77.425 37.5047C77.5461 37.3908 77.602 37.297 77.5491 37.2963C77.4965 37.2955 77.5014 37.2607 77.5598 37.2189C77.6186 37.1772 77.8006 36.9262 77.9643 36.6607C78.1282 36.3956 78.2985 36.2013 78.3429 36.2288C78.4198 36.2768 78.4665 36.1126 78.4315 35.9188C78.4223 35.8693 78.5089 35.7621 78.6235 35.6812C78.7382 35.6 78.8321 35.4707 78.8321 35.3936C78.8321 35.3163 78.8806 35.2369 78.9399 35.2171C78.9991 35.1972 79.0591 35.1019 79.0732 35.0052C79.0872 34.9089 79.1306 34.7975 79.1697 34.7581C79.2087 34.7187 79.2407 34.6014 79.2407 34.4973C79.2407 34.3934 79.2894 34.3084 79.3489 34.3084C79.4084 34.3084 79.4286 34.262 79.3939 34.2053C79.3591 34.1486 79.3722 34.1022 79.4225 34.1022C79.5261 34.1022 79.7983 33.5824 79.7656 33.4471C79.7539 33.3987 79.8031 33.2853 79.8754 33.1954C79.9755 33.0706 79.9765 33.0503 79.879 33.1093C79.7973 33.1588 79.7513 33.1247 79.7513 33.015C79.7513 32.9129 79.8075 32.865 79.8894 32.8967C79.9923 32.9366 80.0181 32.8634 79.9903 32.6098C79.9643 32.3704 80.001 32.2511 80.1141 32.2073C80.2423 32.1578 80.265 32.0297 80.2262 31.5775C80.1994 31.2651 80.2196 31.0097 80.2709 31.0097C80.3222 31.0097 80.3641 30.8734 80.3641 30.7067C80.3641 30.5399 80.4101 30.3747 80.4662 30.3397C80.5224 30.3046 80.5684 30.2297 80.5684 30.173C80.5684 30.1163 80.5224 30.0985 80.4662 30.1335C80.4044 30.1722 80.3641 30.0294 80.3641 29.7727C80.3641 29.463 80.3986 29.3679 80.4918 29.421C80.5939 29.4792 80.5939 29.4661 80.4918 29.355C80.4215 29.2785 80.3641 28.9906 80.3641 28.7151C80.3641 28.3445 80.3973 28.2332 80.4918 28.2871C80.5939 28.3453 80.5939 28.3322 80.4918 28.2211C80.4215 28.1445 80.3641 27.9263 80.3641 27.7358C80.3641 27.4864 80.3998 27.4114 80.4918 27.467C80.5857 27.524 80.5839 27.5003 80.4854 27.3776C80.4116 27.2856 80.3447 27.0016 80.3363 26.7465C80.3281 26.4914 80.2957 26.2983 80.2643 26.3179C80.2329 26.3378 80.2242 26.1721 80.2454 25.9499C80.2735 25.6515 80.2456 25.5463 80.1381 25.5463C80.049 25.5463 79.9906 25.4368 79.9872 25.2629C79.9842 25.1069 79.9484 24.8866 79.9078 24.7732C79.8489 24.6078 79.856 24.5977 79.9443 24.7217C80.0153 24.8211 80.0552 24.8317 80.0562 24.7511C80.0569 24.6822 79.9658 24.5761 79.8534 24.5155C79.7411 24.4549 79.6492 24.3346 79.6492 24.248C79.6492 24.1509 79.6979 24.1197 79.7768 24.1663C79.8471 24.2078 79.8241 24.1488 79.7255 24.0351C79.6272 23.9217 79.5779 23.7973 79.616 23.7586C79.654 23.7202 79.5509 23.5429 79.3864 23.3646C79.1556 23.1146 79.1329 23.0569 79.2861 23.1125C79.474 23.1806 79.4753 23.1741 79.3114 22.9912C79.2162 22.8847 79.1689 22.767 79.2065 22.7291C79.244 22.6909 79.2031 22.66 79.1153 22.66C79.0277 22.66 78.9286 22.5881 78.8952 22.5C78.8605 22.4082 78.8776 22.367 78.9355 22.4031C78.991 22.4376 79.0364 22.417 79.0364 22.3569C79.0364 22.2567 78.8952 22.2052 78.7045 22.2356C78.6623 22.2423 78.6279 22.1085 78.6279 21.9384C78.6279 21.7428 78.5755 21.6292 78.4857 21.6292C78.4073 21.6292 78.3153 21.5557 78.2814 21.4661C78.1925 21.2326 78.2038 21.1949 78.3373 21.2782C78.4126 21.3253 78.4274 21.3063 78.3782 21.2259C78.3358 21.1568 78.2745 21.1266 78.2423 21.1594C78.1611 21.2411 77.8098 20.6834 77.8754 20.5764C77.9043 20.529 77.8673 20.503 77.793 20.5185C77.7184 20.5342 77.6694 20.4878 77.6839 20.4156C77.6985 20.3435 77.5918 20.2391 77.4472 20.1837C77.246 20.1064 77.1996 20.0342 77.2491 19.8768C77.2966 19.7258 77.2675 19.6706 77.1403 19.6706C76.9246 19.6706 76.5664 19.2694 76.6542 19.1261C76.6915 19.0653 76.6687 19.0516 76.6011 19.0939C76.5362 19.1343 76.4831 19.1183 76.4831 19.0583C76.4831 18.9982 76.4267 18.9606 76.3578 18.9748C76.2891 18.989 76.2168 18.8954 76.1974 18.7671C76.178 18.6387 76.1195 18.5601 76.0672 18.5929C76.0151 18.6253 75.9725 18.581 75.9725 18.4944C75.9725 18.3968 75.9143 18.3596 75.8193 18.3962C75.7261 18.4326 75.541 18.3205 75.3454 18.1097C75.1687 17.9192 74.9555 17.7788 74.8718 17.7971C74.7676 17.82 74.7392 17.7775 74.7829 17.6628C74.8202 17.5651 74.8046 17.5213 74.7456 17.5582C74.6902 17.5927 74.6448 17.5432 74.6448 17.4479C74.6448 17.309 74.6157 17.2989 74.4985 17.3971C74.3823 17.4943 74.3103 17.4775 74.1494 17.3152C74.0381 17.2028 73.9202 17.1379 73.8872 17.1708C73.8545 17.2038 73.8277 17.1536 73.8277 17.0593C73.8277 16.9647 73.7573 16.8874 73.6712 16.8874C73.5854 16.8874 73.4884 16.8178 73.4562 16.7327C73.42 16.6376 73.265 16.5781 73.0543 16.5781C72.8189 16.5781 72.6019 16.4812 72.3624 16.2689C72.1704 16.0988 71.9391 15.9596 71.8482 15.9596C71.7573 15.9596 71.683 15.9081 71.683 15.8449C71.683 15.7705 71.5609 15.7537 71.3334 15.7967C71.1093 15.839 70.9571 15.8192 70.9091 15.7406C70.858 15.6573 70.88 15.6452 70.9778 15.7024C71.0595 15.7504 71.086 15.7475 71.0393 15.6957C70.9941 15.6457 70.8792 15.5999 70.784 15.5937C70.2258 15.5576 70.1439 15.539 70.1924 15.4599C70.2217 15.412 70.0583 15.3916 69.8291 15.4148C69.3008 15.4682 69.0138 15.378 69.2346 15.228C69.3373 15.1581 69.1987 15.1473 68.7978 15.1937C68.3936 15.2406 68.2105 15.2259 68.2105 15.1468C68.2105 15.0837 68.1618 15.0319 68.1023 15.0319C68.0428 15.0319 68.0226 15.0783 68.0573 15.135C68.0946 15.196 67.9779 15.238 67.7709 15.238C67.4328 15.238 67.4216 15.2251 67.4328 14.8515C67.4402 14.6079 67.4006 14.4734 67.3258 14.4876C67.2477 14.5025 67.216 14.3665 67.2334 14.0918C67.2513 13.8052 67.2137 13.6552 67.1142 13.6168C67.034 13.5856 66.9901 13.4774 67.0161 13.3761C67.0513 13.2405 67.0197 13.2073 66.8969 13.2509C66.7664 13.2967 66.7559 13.2813 66.8486 13.1797C66.94 13.0797 66.9234 12.9761 66.7774 12.7336C66.6727 12.5599 66.6084 12.3829 66.6344 12.3404C66.6604 12.2978 66.6352 12.2337 66.5782 12.1981C66.4281 12.1046 66.4501 11.9149 66.602 11.9927C66.6722 12.0288 66.626 11.9659 66.4993 11.853C66.3727 11.7402 66.2593 11.5281 66.2473 11.3814C66.2353 11.2348 66.1896 11.1147 66.1457 11.1147C66.1018 11.1147 66.0658 11.0619 66.0658 10.9972C66.0658 10.9325 65.9854 10.8181 65.8871 10.7428C65.7193 10.6142 65.7208 10.6052 65.9126 10.5959C66.1008 10.5869 66.0987 10.5789 65.8871 10.4931C65.7548 10.4393 65.6573 10.3112 65.6573 10.1911C65.6573 10.0764 65.514 9.84447 65.3389 9.67542C65.1418 9.48523 65.0435 9.30767 65.081 9.20922C65.1185 9.11001 65.0266 8.94662 64.8377 8.77679C64.6625 8.61933 64.5338 8.40028 64.5338 8.25957C64.5338 8.10289 64.4516 7.98228 64.304 7.92223C64.1725 7.86914 64.1399 7.82611 64.2274 7.82224C64.3117 7.81838 64.2364 7.72637 64.0599 7.61788C63.6685 7.37692 63.4865 7.12901 63.7765 7.23183C63.9596 7.29678 63.9606 7.29214 63.7934 7.16071C63.6951 7.0834 63.6139 6.95583 63.6131 6.87697C63.6118 6.76229 63.5917 6.76461 63.5125 6.88831C63.4336 7.01175 63.4132 6.99242 63.4119 6.79373C63.4112 6.65689 63.3803 6.57519 63.3432 6.61256C63.2508 6.70585 62.9906 6.47469 63.0601 6.3613C63.091 6.31105 63.079 6.26981 63.0335 6.26981C62.8709 6.26956 62.3891 5.77888 62.3891 5.61343C62.3891 5.52091 62.3403 5.44515 62.2808 5.44515C62.2213 5.44515 62.2009 5.49102 62.2351 5.54694C62.2701 5.60415 62.2318 5.62348 62.1483 5.59101C62.0661 5.55931 61.9269 5.38587 61.8389 5.20574C61.7508 5.0256 61.6777 4.91865 61.6765 4.96813C61.6752 5.01761 61.6057 5.00086 61.522 4.93076C61.4385 4.86067 61.3877 4.77382 61.4091 4.73774C61.4735 4.63028 61.2296 4.46174 61.0134 4.4638C60.9026 4.46483 60.7601 4.36071 60.6965 4.23212C60.6332 4.10352 60.5438 3.96436 60.4984 3.92287C60.4529 3.88138 60.4489 3.90535 60.4892 3.97622C60.5298 4.04708 60.5219 4.10507 60.4718 4.10507C60.4218 4.10507 60.3204 3.99065 60.2461 3.85097C60.1721 3.71103 60.07 3.62264 60.0191 3.65408C59.9686 3.68578 59.8445 3.61542 59.7434 3.49791C59.6425 3.38039 59.531 3.31313 59.496 3.3487C59.4607 3.384 59.403 3.33684 59.3678 3.24355C59.3323 3.15052 59.2442 3.07424 59.172 3.07424C59.0995 3.07424 58.9052 2.94667 58.7397 2.79076C58.5742 2.63485 58.3511 2.50728 58.2438 2.50728C58.1364 2.50728 58.0595 2.45084 58.0728 2.38203C58.0876 2.30601 58.0324 2.28204 57.9321 2.32096C57.8277 2.36142 57.6936 2.2939 57.567 2.1367C57.4569 2.00037 57.3967 1.94677 57.4329 2.01764C57.4692 2.08851 57.446 2.14649 57.3811 2.14649C57.3165 2.14649 57.2394 2.05372 57.21 1.94032C57.1807 1.82693 57.0727 1.73416 56.9703 1.73416C56.8679 1.73416 56.7556 1.68777 56.7208 1.63108C56.6861 1.57438 56.5722 1.52799 56.4681 1.52799C56.3636 1.52799 56.2551 1.47001 56.2268 1.39914C56.19 1.30688 56.1729 1.31203 56.1673 1.41718C56.1614 1.52052 56.082 1.49088 55.8982 1.31642C55.6658 1.09633 55.6444 1.09144 55.7021 1.2726C55.7636 1.4646 55.7588 1.46588 55.6186 1.29425C55.5318 1.18756 55.4018 1.1386 55.3048 1.17622C55.2014 1.21617 55.1146 1.17467 55.0729 1.06489C55.0234 0.934749 54.931 0.904856 54.7145 0.948666C54.4262 1.00665 54.3039 0.873673 54.5505 0.769817C54.6208 0.740439 54.5036 0.739666 54.2901 0.768529C54.0105 0.806155 53.8019 0.761056 53.5435 0.607205C53.3464 0.48969 53.2134 0.44021 53.2484 0.496905C53.3298 0.63014 53.0492 0.63014 52.7875 0.497163C52.6759 0.440467 52.4878 0.344342 52.3695 0.283265C52.2164 0.204407 52.1742 0.204407 52.2225 0.283265C52.2623 0.348465 52.2038 0.39408 52.08 0.39408C51.9643 0.39408 51.8696 0.344342 51.8696 0.283523C51.8696 0.222962 51.7611 0.187398 51.6286 0.205179C51.4958 0.222704 51.312 0.17374 51.2201 0.0966852C51.0988 -0.00485159 51.0161 -0.0128401 50.9203 0.0673069C50.7707 0.192553 50.3246 0.18946 50.4017 0.063699C50.4291 0.0188579 49.6217 -0.0089759 48.6073 0.00184781C47.5929 0.0126715 46.7631 0.0588017 46.7631 0.104674ZM49.5972 3.71928C49.6674 3.72366 49.7249 3.76412 49.7249 3.80922C49.7249 3.85458 50.0696 3.87107 50.4908 3.84607C51.0515 3.81283 51.2573 3.83448 51.2584 3.92699C51.2594 4.00817 51.2954 3.99812 51.359 3.8989C51.4312 3.78603 51.4583 3.78087 51.4596 3.87957C51.4603 3.95405 51.5415 4.00147 51.6398 3.98523C51.7381 3.969 51.8872 3.99889 51.971 4.05198C52.055 4.10481 52.3044 4.16279 52.5253 4.18083C52.7464 4.19862 52.9765 4.25016 53.0367 4.29551C53.097 4.34087 53.3053 4.38752 53.4996 4.39937C53.6942 4.41123 53.878 4.45967 53.9081 4.50683C53.9385 4.554 54.0779 4.62899 54.2181 4.67305C54.3585 4.71738 54.5271 4.82794 54.5929 4.91891C54.6588 5.00962 54.7464 5.05008 54.7875 5.00859C54.8286 4.96684 54.9244 5.01349 55.0002 5.11167C55.1278 5.27686 55.1329 5.2748 55.0696 5.08436C55.0061 4.89314 55.0152 4.88979 55.197 5.0372C55.3048 5.12482 55.531 5.26269 55.6995 5.34387C55.9669 5.47272 56.3138 5.7129 56.742 6.06519C56.8099 6.12111 56.9335 6.16673 57.017 6.16673C57.1002 6.16673 57.1973 6.21389 57.2325 6.27162C57.2677 6.32908 57.3357 6.35176 57.3837 6.32213C57.4314 6.29223 57.555 6.3765 57.6586 6.50922C57.7621 6.64194 57.962 6.77982 58.1029 6.81538C58.4205 6.89578 58.8145 7.2558 58.8145 7.46532C58.8145 7.55165 58.849 7.60061 58.8911 7.57458C58.9332 7.54856 59.1515 7.68952 59.3762 7.88796C59.6009 8.08665 59.7273 8.21834 59.6571 8.18097C59.5869 8.1436 59.5294 8.14025 59.5294 8.17324C59.5294 8.20648 59.6436 8.27735 59.7827 8.3307C59.964 8.40028 60.0173 8.47759 59.9696 8.60284C59.928 8.71236 59.9436 8.75257 60.0112 8.7103C60.0705 8.67319 60.1759 8.7121 60.2454 8.79638C60.3148 8.8809 60.3314 8.95074 60.2824 8.95152C60.2334 8.95229 60.3082 9.01182 60.4486 9.08372C60.5903 9.15639 60.7039 9.30458 60.7042 9.41719C60.7042 9.52878 60.7616 9.62568 60.8318 9.63289C60.9018 9.64011 61.008 9.65145 61.0675 9.65867C61.127 9.66588 61.1472 9.71794 61.1124 9.77464C61.0777 9.83133 61.0979 9.87772 61.1574 9.87772C61.2169 9.87772 61.2656 9.94781 61.2656 10.0334C61.2656 10.1189 61.3576 10.2684 61.4699 10.3656C61.5822 10.4627 61.6742 10.6014 61.6742 10.6738C61.6742 10.7462 61.7183 10.8055 61.7722 10.8055C61.8261 10.8055 61.9254 10.991 61.9926 11.2178C62.06 11.4446 62.1565 11.6301 62.207 11.6301C62.2576 11.6301 62.2706 11.6765 62.2359 11.7332C62.2012 11.7899 62.2418 11.8363 62.326 11.8363C62.4251 11.8363 62.4654 11.9103 62.4396 12.0453C62.4177 12.1602 62.4432 12.227 62.4966 12.1937C62.5497 12.1605 62.6002 12.194 62.6089 12.2682C62.6431 12.5661 62.6585 12.6177 62.7731 12.8277C62.839 12.9478 62.8597 13.0792 62.8196 13.1199C62.7795 13.1604 62.7925 13.1782 62.8487 13.1591C62.9048 13.1403 62.9585 13.1661 62.9677 13.2163C62.9768 13.2668 63.0371 13.3408 63.1017 13.381C63.166 13.4212 63.223 13.5995 63.2281 13.7773C63.2329 13.9552 63.322 14.1781 63.426 14.2729C63.6392 14.4677 63.6879 14.7775 63.487 14.6605C63.4168 14.6198 63.4627 14.7012 63.5891 14.8414C63.8256 15.104 63.8978 15.2994 63.7168 15.1865C63.6606 15.1514 63.6146 15.1718 63.6146 15.2318C63.6146 15.2919 63.6606 15.3411 63.7168 15.3411C63.7729 15.3411 63.8189 15.4543 63.8189 15.5926C63.8189 15.731 63.87 15.8761 63.9325 15.9153C64.0066 15.9614 64.0227 16.1642 63.9787 16.4987C63.9305 16.8655 63.9527 17.0755 64.0571 17.236C64.1373 17.3597 64.1909 17.6448 64.1764 17.87C64.1621 18.095 64.1991 18.3718 64.2591 18.4851C64.3191 18.5985 64.3748 18.7725 64.3829 18.8717C64.4064 19.1609 64.4999 19.1874 64.8581 19.007C65.0795 18.8954 65.2074 18.8756 65.2316 18.949C65.2554 19.0209 65.3105 19.0258 65.3864 18.9629C65.4512 18.9091 65.7339 18.84 66.0147 18.8096C66.2956 18.7792 66.6633 18.7295 66.8318 18.699C67.1078 18.6491 67.1129 18.6527 66.8828 18.7346C66.6354 18.8225 66.6375 18.8256 66.9533 18.8356C67.1325 18.8413 67.3102 18.7954 67.348 18.7338C67.3973 18.6532 67.4476 18.6532 67.5275 18.7338C67.5886 18.7954 67.7875 18.8459 67.9695 18.8459C68.1516 18.8459 68.329 18.8923 68.3637 18.949C68.3985 19.0057 68.6081 19.0521 68.8294 19.0521C69.0508 19.0521 69.2318 19.0985 69.2318 19.1552C69.2318 19.2119 69.2806 19.2583 69.3401 19.2583C69.3996 19.2583 69.4198 19.2119 69.385 19.1552C69.3503 19.0985 69.3705 19.0521 69.43 19.0521C69.4895 19.0521 69.5382 19.0985 69.5382 19.1552C69.5382 19.2119 69.6439 19.2583 69.7731 19.2583C69.9023 19.2583 70.0563 19.307 70.115 19.3663C70.174 19.4258 70.3326 19.4874 70.4674 19.5031C70.8381 19.5466 71.0768 19.6794 71.0028 19.8005C70.9655 19.861 70.9852 19.8783 71.0475 19.8394C71.1082 19.8015 71.1871 19.8175 71.2224 19.875C71.2576 19.9327 71.3324 19.9799 71.3886 19.9799C71.4448 19.9799 71.458 19.9262 71.418 19.8608C71.3725 19.7866 71.3899 19.7698 71.4647 19.8165C71.5303 19.8574 71.5576 19.9342 71.5254 19.9871C71.493 20.0396 71.5612 20.0829 71.6769 20.0829C71.7925 20.0829 71.8872 20.1252 71.8872 20.177C71.8872 20.2285 71.9651 20.2592 72.0601 20.2453C72.1553 20.2311 72.3606 20.3512 72.5164 20.512C72.6721 20.6728 72.8748 20.8045 72.967 20.8045C73.0691 20.8045 73.1131 20.8612 73.0796 20.9496C73.0191 21.1089 74.1757 22.216 74.3522 22.1678C74.4091 22.1523 74.4265 22.1871 74.391 22.2451C74.3555 22.3033 74.3907 22.3508 74.4691 22.3508C74.6085 22.3508 74.8455 22.7518 74.8526 22.9999C74.8547 23.068 74.9747 23.263 75.1192 23.4331C75.2639 23.6032 75.3513 23.6844 75.3137 23.6135C75.2762 23.5427 75.2994 23.4847 75.3656 23.4847C75.4391 23.4847 75.4664 23.5862 75.436 23.746C75.409 23.8895 75.4105 23.9831 75.4396 23.9537C75.5198 23.8728 75.7613 24.2325 75.7649 24.4382C75.7667 24.5374 75.8142 24.6186 75.8703 24.6186C75.9265 24.6186 75.9725 24.6915 75.9725 24.7807C75.9725 24.8696 76.0394 25.01 76.1213 25.0928C76.2033 25.1755 76.2441 25.3113 76.2125 25.3948C76.1793 25.4819 76.2138 25.5471 76.2934 25.5479C76.4004 25.5492 76.3971 25.5724 76.2789 25.6494C76.1767 25.7159 76.1683 25.7499 76.2533 25.751C76.3235 25.7517 76.3825 25.8337 76.3843 25.9329C76.3861 26.0321 76.4512 26.1983 76.5291 26.3019C76.6072 26.4058 76.6506 26.6029 76.6261 26.74C76.6013 26.8774 76.6282 26.9895 76.6853 26.9895C76.7425 26.9895 76.7895 27.0851 76.7895 27.2019C76.7895 27.3359 76.7461 27.3869 76.6716 27.3405C76.5909 27.29 76.5819 27.3124 76.6432 27.4116C76.7717 27.6193 76.7693 30.1023 76.6407 30.2822C76.5613 30.393 76.5666 30.4111 76.6619 30.3534C76.7321 30.3108 76.7895 30.325 76.7895 30.3851C76.7895 30.4451 76.7321 30.4951 76.6619 30.4959C76.5768 30.4969 76.5853 30.5309 76.6874 30.5974C76.7895 30.6639 76.798 30.6979 76.7129 30.6989C76.6427 30.6997 76.5853 30.8165 76.5853 30.9582C76.5853 31.0999 76.5393 31.2159 76.4831 31.2159C76.427 31.2159 76.381 31.2651 76.381 31.3252C76.381 31.3852 76.427 31.4056 76.4831 31.3705C76.5393 31.3355 76.5853 31.3558 76.5853 31.4159C76.5853 31.4759 76.5393 31.5252 76.4831 31.5252C76.427 31.5252 76.381 31.6141 76.381 31.7228C76.381 31.8313 76.3235 31.9473 76.2533 31.9805C76.1532 32.0277 76.1548 32.054 76.2605 32.1032C76.3603 32.1496 76.3399 32.2047 76.1811 32.3171C76.0634 32.4003 75.9738 32.523 75.9819 32.5895C76.0202 32.9036 75.9625 33.1804 75.8703 33.1229C75.8142 33.0879 75.7682 33.1521 75.7682 33.2657C75.7682 33.3791 75.6661 33.5443 75.5412 33.6324C75.4164 33.7208 75.3561 33.793 75.4074 33.793C75.4588 33.793 75.4118 33.8626 75.3025 33.9479C75.1373 34.077 75.134 34.0922 75.2831 34.0399C75.5011 33.9633 75.5264 34.1868 75.3091 34.2708C75.2254 34.3035 75.1868 34.3795 75.2239 34.4398C75.2657 34.5081 75.2282 34.5254 75.1243 34.4849C75.0326 34.4496 74.9305 34.4648 74.8973 34.5189C74.8641 34.5733 74.8937 34.6176 74.9629 34.6176C75.0352 34.6176 74.9941 34.7194 74.8669 34.8563C74.7446 34.9875 74.6448 35.1498 74.6448 35.2171C74.6448 35.2843 74.573 35.3392 74.4855 35.3392C74.3979 35.3392 74.3547 35.3856 74.3895 35.4423C74.4242 35.499 74.3637 35.5454 74.2549 35.5454C74.1461 35.5454 73.9998 35.615 73.9298 35.7C73.7761 35.8868 73.9334 35.9067 74.1344 35.7258C74.2562 35.6163 74.2572 35.6237 74.1423 35.7773C74.0677 35.8765 73.9408 35.9577 73.8602 35.9577C73.7744 35.9577 73.744 36.0077 73.7874 36.0783C73.8374 36.16 73.805 36.1773 73.6873 36.1317C73.5798 36.0899 73.4915 36.1224 73.4557 36.2165C73.4238 36.3002 73.3487 36.3384 73.289 36.301C73.2208 36.2585 73.2045 36.2971 73.2453 36.4046C73.2816 36.4997 73.2612 36.5762 73.1999 36.5762C73.1391 36.5762 72.9338 36.7476 72.7436 36.9571C72.5534 37.1666 72.3979 37.2841 72.3979 37.2182C72.3979 37.1522 72.3318 37.1236 72.2511 37.155C72.1704 37.1862 72.1293 37.2774 72.1599 37.3578C72.1906 37.4382 72.1645 37.504 72.1025 37.504C72.0402 37.504 71.9858 37.446 71.9812 37.3751C71.9748 37.2728 71.9626 37.2728 71.9214 37.3756C71.8931 37.447 71.8275 37.4787 71.7757 37.4465C71.7238 37.4143 71.6539 37.4604 71.6202 37.5491C71.5865 37.6377 71.4951 37.7101 71.4167 37.7101C71.3385 37.7101 71.2745 37.7594 71.2745 37.8194C71.2745 37.8794 71.2336 37.9032 71.1838 37.872C71.134 37.8408 71.037 37.8841 70.9681 37.9681C70.8889 38.0642 70.7526 38.0977 70.5989 38.0588C70.4178 38.0129 70.3553 38.0395 70.3553 38.1629C70.3553 38.2539 70.3361 38.3286 70.3126 38.3286C70.2892 38.3286 70.1857 38.3562 70.0828 38.39C69.9271 38.4407 69.9215 38.4325 70.0489 38.34C70.1763 38.2475 70.1633 38.2284 69.9723 38.2271C69.8459 38.2263 69.7425 38.2719 69.7425 38.3286C69.7425 38.3853 69.6735 38.4317 69.5893 38.4317C69.505 38.4317 69.4361 38.4781 69.4361 38.5348C69.4361 38.5915 69.2982 38.6379 69.1297 38.6379C68.9612 38.6379 68.8233 38.6843 68.8233 38.741C68.8233 38.7977 68.7286 38.844 68.6129 38.844C68.4955 38.844 68.4311 38.7974 68.4674 38.7384C68.5394 38.6209 68.294 38.6456 68.2057 38.7647C68.0967 38.9116 65.6368 38.8742 65.5429 38.7242C65.4729 38.6131 65.4556 38.6165 65.453 38.741C65.4502 38.8783 65.439 38.8783 65.3509 38.741C65.285 38.6379 65.2513 38.6294 65.2503 38.7152C65.2482 38.8853 12.3956 38.9069 12.2914 38.7368C12.2551 38.6778 12.1492 38.6539 12.0555 38.684C11.962 38.7139 11.7575 38.6714 11.6012 38.5894C11.445 38.5075 11.3441 38.4848 11.3773 38.5392C11.4677 38.6863 11.3699 38.6606 10.9616 38.4291C10.7592 38.3145 10.6228 38.2681 10.6586 38.3263C10.7296 38.4423 10.355 38.416 10.237 38.2969C10.198 38.2578 10.082 38.2255 9.9789 38.2255C9.876 38.2255 9.79174 38.1776 9.79174 38.1191C9.79174 38.0609 9.64238 38.0207 9.45982 38.0302C9.1427 38.0467 8.51613 37.7952 8.618 37.6921C8.64481 37.665 8.52915 37.6635 8.36115 37.6882C8.16429 37.7174 8.05552 37.6887 8.05552 37.6078C8.05552 37.5364 8.1242 37.5086 8.21408 37.5434C8.31187 37.5813 8.34659 37.5622 8.30472 37.4939C8.26719 37.4328 8.15152 37.4055 8.0476 37.4328C7.94343 37.4604 7.86811 37.4328 7.88037 37.372C7.89237 37.3109 7.76445 37.212 7.59593 37.1519C7.42742 37.0919 7.25379 36.9862 7.21013 36.9169C7.16673 36.8476 7.06332 36.8172 6.98034 36.8491C6.84885 36.9002 6.78501 36.7893 6.81438 36.561C6.81897 36.5244 6.73344 36.518 6.6239 36.5468C6.48322 36.584 6.39564 36.5283 6.32466 36.3559C6.20568 36.0675 5.96771 35.7516 5.86967 35.7516C5.83137 35.7516 5.6986 35.6559 5.57451 35.5389C5.36412 35.3408 5.36259 35.3307 5.55332 35.3915C5.74354 35.4521 5.74277 35.4472 5.54285 35.3207C5.42463 35.2457 5.35008 35.1202 5.3774 35.0413C5.40446 34.9627 5.38378 34.9248 5.33169 34.9573C5.27935 34.99 5.17824 34.922 5.10675 34.8063C5.01611 34.6599 5.01305 34.6189 5.09679 34.671C5.16292 34.7125 5.14071 34.6282 5.047 34.4844C4.95355 34.3404 4.80087 34.1929 4.70742 34.1569C4.56112 34.1002 4.55856 34.0777 4.68801 33.9953C4.81415 33.9146 4.80955 33.8989 4.65967 33.8976C4.54963 33.8966 4.48094 33.8169 4.48094 33.6899C4.48094 33.5765 4.43218 33.4837 4.37268 33.4837C4.31319 33.4837 4.29302 33.4373 4.32775 33.3806C4.36247 33.324 4.33668 33.2776 4.2703 33.2776C4.18502 33.2776 4.19089 33.2263 4.2897 33.1031C4.36681 33.0072 4.37754 32.9603 4.3137 32.999C4.17966 33.0802 4.01778 32.6647 3.93888 32.0359C3.92076 31.8916 3.86765 31.711 3.82092 31.6344C3.7742 31.5581 3.73947 31.362 3.74407 31.1992C3.74918 31.02 3.71088 30.9288 3.64705 30.9688C3.57607 31.0128 3.573 30.9711 3.63734 30.8417C3.76475 30.5861 3.78135 29.5666 3.65828 29.5666C3.60517 29.5666 3.56177 29.5174 3.56177 29.4573C3.56177 29.3973 3.60773 29.3769 3.6639 29.412C3.72467 29.4498 3.76603 29.3272 3.76603 29.1089C3.76603 28.9063 3.81735 28.7419 3.88067 28.7419C3.95982 28.7419 3.95599 28.6942 3.86816 28.5873C3.76628 28.4633 3.7673 28.4327 3.87275 28.4327C3.94501 28.4327 3.97591 28.4041 3.94118 28.369C3.90646 28.334 3.96621 28.0716 4.0737 27.7861C4.18119 27.5003 4.24502 27.2276 4.21591 27.1797C4.18655 27.1318 4.21106 27.0926 4.27055 27.0926C4.33005 27.0926 4.37881 27.0202 4.37881 26.9318C4.37881 26.8367 4.42681 26.8011 4.49677 26.8447C4.56163 26.8851 4.58844 26.8753 4.55627 26.823C4.48375 26.7047 4.82844 25.9316 4.915 26.0187C4.94947 26.0535 4.95279 25.9857 4.92215 25.8677C4.88028 25.7061 4.93006 25.6288 5.12335 25.5546C5.2648 25.5002 5.41493 25.3994 5.45706 25.3306C5.50608 25.2507 5.49102 25.2319 5.41595 25.2788C5.34701 25.3219 5.29799 25.2886 5.29799 25.1987C5.29799 25.1139 5.39067 25.0152 5.50378 24.9789C5.61689 24.9425 5.68302 24.8699 5.65085 24.8173C5.61868 24.7647 5.66387 24.7217 5.75145 24.7217C5.83903 24.7217 5.91078 24.6493 5.91078 24.5609C5.91078 24.4725 5.95673 24.4289 6.0129 24.464C6.06908 24.499 6.11504 24.4526 6.11504 24.3609C6.11504 24.2689 6.16406 24.2246 6.22406 24.2622C6.28432 24.2998 6.35887 24.2307 6.39053 24.1078C6.42373 23.98 6.50492 23.9073 6.58152 23.937C6.6548 23.9653 6.72961 23.9563 6.74825 23.9171C6.76663 23.8777 6.96042 23.6831 7.17873 23.4847C7.39703 23.2862 7.54282 23.1819 7.50299 23.2527C7.46316 23.3236 7.47925 23.3816 7.53874 23.3816C7.59823 23.3816 7.647 23.3092 7.647 23.2208C7.647 23.1324 7.6881 23.0857 7.7384 23.1172C7.7887 23.1486 7.85815 23.1002 7.89237 23.0095C7.92811 22.9157 8.02054 22.87 8.10735 22.9038C8.19697 22.9383 8.25978 22.9043 8.25978 22.8211C8.25978 22.7301 8.342 22.6948 8.48958 22.7224C8.61596 22.7461 8.65937 22.7371 8.58634 22.7023C8.36293 22.5964 8.78448 22.3593 9.08755 22.4201C9.27726 22.4582 9.37301 22.4234 9.4205 22.2984C9.45854 22.1979 9.55097 22.1479 9.6365 22.1812C9.71872 22.2129 9.85609 22.1681 9.94188 22.0812C10.0846 21.9374 10.1418 21.9678 10.1101 22.1704C10.1035 22.2129 10.1441 22.2477 10.2003 22.2477C10.2564 22.2477 10.3024 22.1781 10.3024 22.0931C10.3024 22.008 10.3369 21.9348 10.379 21.9304C10.8031 21.8866 11.0914 21.9008 11.0528 21.9639C11.0268 22.0062 11.1261 21.9946 11.2734 21.9382C11.6176 21.8062 11.8326 21.8062 11.6301 21.9384C11.5193 22.0106 11.6112 22.0387 11.962 22.04C12.2288 22.0407 12.4471 22.0049 12.4471 21.9603C12.4471 21.9158 12.5401 21.8722 12.6537 21.8634C12.7814 21.8539 12.8335 21.8915 12.79 21.9621C12.7446 22.0364 12.7801 22.0534 12.8909 22.0103C12.9849 21.974 13.1876 21.998 13.3416 22.0637C13.4958 22.1294 13.7595 22.1923 13.928 22.2034C14.0966 22.2144 14.3034 22.2405 14.3876 22.2613C14.5161 22.293 14.5436 22.1157 14.5582 21.1653C14.5911 19.0052 14.6266 18.6411 14.8247 18.4264C14.9271 18.3156 14.9815 18.1769 14.9458 18.1184C14.91 18.0599 14.9537 17.8999 15.0428 17.7625C15.1316 17.6254 15.2047 17.3724 15.2047 17.2002C15.2047 17.0281 15.2397 16.8874 15.2823 16.8874C15.3249 16.8874 15.4202 16.7897 15.494 16.6704C15.5677 16.5511 15.579 16.4843 15.5187 16.5219C15.3068 16.6541 15.4115 16.3951 15.6387 16.2251C15.7651 16.1305 15.8111 16.0813 15.7409 16.1155C15.5356 16.2158 15.592 15.8728 15.8124 15.6826C15.9216 15.588 15.9832 15.4646 15.9487 15.4084C15.9114 15.3473 15.9569 15.3336 16.0613 15.3738C16.1578 15.4112 16.2114 15.4006 16.1805 15.3504C16.1499 15.3001 16.2612 15.1115 16.4279 14.9311C16.5949 14.751 16.7218 14.5724 16.7103 14.5342C16.6754 14.419 17.0788 14.001 17.2251 14.001C17.3001 14.001 17.3331 13.9547 17.2984 13.898C17.2636 13.8413 17.3055 13.7949 17.3913 13.7949C17.4819 13.7949 17.5246 13.7353 17.4932 13.6526C17.4283 13.482 17.9405 13.0475 18.0937 13.1431C18.1601 13.1846 18.1767 13.1457 18.1371 13.0419C18.062 12.8442 18.2581 12.6831 18.3638 12.8558C18.4106 12.9323 18.4854 12.8818 18.575 12.7125C18.6756 12.5226 18.7364 12.4867 18.7961 12.5816C18.8607 12.6847 18.8786 12.6852 18.8799 12.5836C18.8806 12.5128 18.9475 12.4548 19.0285 12.4548C19.1094 12.4548 19.2039 12.4089 19.2381 12.353C19.2746 12.2932 19.224 12.2754 19.1165 12.3097C18.9521 12.3623 18.9536 12.3512 19.1306 12.2056C19.2399 12.1159 19.3892 12.0425 19.4625 12.0425C19.536 12.0425 19.5963 11.9932 19.5963 11.9332C19.5963 11.8731 19.6443 11.8541 19.703 11.8907C19.7615 11.9273 19.8764 11.901 19.9584 11.8324C20.0401 11.7641 20.107 11.742 20.107 11.7835C20.107 11.8252 20.2024 11.7497 20.3189 11.6157C20.4356 11.4819 20.5019 11.4304 20.4662 11.5013C20.4305 11.5721 20.4499 11.6301 20.5093 11.6301C20.5688 11.6301 20.6176 11.5621 20.6176 11.4789C20.6176 11.3866 20.6776 11.3505 20.7708 11.3866C20.8551 11.4193 20.924 11.391 20.924 11.3237C20.924 11.2431 21.0226 11.2232 21.214 11.2657C21.4089 11.309 21.5452 11.2802 21.6292 11.1781C21.6979 11.0944 21.8444 11.0436 21.9545 11.065C22.0648 11.0864 22.1281 11.0601 22.0952 11.0062C22.0329 10.9044 22.1549 10.8743 22.5157 10.9024C22.6329 10.9114 22.7879 10.847 22.8601 10.7591C23.0062 10.5818 23.3751 10.5411 23.3751 10.7024C23.3751 10.7591 23.2947 10.8091 23.1964 10.8137C23.0841 10.8186 23.0664 10.8415 23.1487 10.8748C23.2209 10.9042 23.3435 10.8748 23.4211 10.8098C23.6271 10.6372 25.5018 10.6093 25.5658 10.7779C25.5932 10.8498 25.7116 10.9085 25.8291 10.9085C25.9465 10.9085 26.0165 10.866 25.9848 10.8142C25.9276 10.7207 26.4311 10.8555 26.7661 11.0232C26.8634 11.0719 26.965 11.0701 26.9962 11.0194C27.0273 10.9683 27.1614 10.9802 27.2985 11.0454C27.4341 11.1101 27.5188 11.2057 27.4867 11.258C27.454 11.3119 27.529 11.3268 27.659 11.2925C27.7857 11.259 28.0111 11.2815 28.16 11.3423C28.9037 11.6464 29.1113 11.761 29.1626 11.8956C29.1933 11.9765 29.2824 12.0425 29.3608 12.0425C29.4389 12.0425 29.5037 12.1004 29.5045 12.1713C29.5055 12.2571 29.5392 12.2486 29.6051 12.1455C29.6595 12.0605 29.7106 12.0257 29.7185 12.0682C29.7264 12.1108 29.7443 12.1919 29.7583 12.2486C29.7724 12.3053 29.7897 12.3842 29.7966 12.4239C29.8038 12.4636 29.863 12.4419 29.9284 12.3759C30.0187 12.2847 30.092 12.3084 30.2347 12.4744C30.3379 12.5942 30.4222 12.655 30.4222 12.6092C30.4222 12.5633 30.5131 12.6089 30.6241 12.7102C30.7349 12.8117 30.797 12.9421 30.7615 12.9998C30.726 13.0578 30.7469 13.0741 30.808 13.0359C30.8697 12.9973 30.9989 13.1029 31.099 13.2738C31.2331 13.5029 31.3115 13.5534 31.408 13.4725C31.5068 13.3898 31.5277 13.4153 31.4963 13.5794C31.4647 13.7449 31.5073 13.7951 31.6791 13.7964C31.8612 13.7977 31.8745 13.8168 31.7499 13.898C31.6184 13.9838 31.6217 13.9982 31.7728 13.9995C31.8696 14.0003 32.0154 14.1309 32.0968 14.2899C32.1783 14.4489 32.3588 14.6652 32.4982 14.7708C32.6376 14.8765 32.7316 15.0161 32.7068 15.0813C32.6821 15.1463 32.7543 15.2839 32.8672 15.3872C32.9803 15.4903 33.0495 15.6127 33.0211 15.6589C32.9453 15.7828 33.3428 15.9692 33.5292 15.897C33.6171 15.8627 33.6658 15.7965 33.637 15.7498C33.6084 15.7029 33.6324 15.6349 33.6903 15.5988C33.7483 15.5627 33.7713 15.4932 33.7414 15.4442C33.7115 15.3952 33.7345 15.3257 33.7925 15.2896C33.8504 15.2535 33.8714 15.1806 33.8392 15.1277C33.8068 15.0752 33.8318 15.0319 33.8946 15.0319C33.9574 15.0319 33.9786 14.9826 33.9416 14.9223C33.9048 14.862 33.9569 14.7208 34.0575 14.6087C34.2342 14.4116 34.2337 14.4067 34.0422 14.4688C33.8489 14.5317 33.8486 14.5291 34.035 14.3752C34.152 14.2786 34.2013 14.1505 34.1617 14.0461C34.1144 13.9222 34.1392 13.8915 34.2508 13.9348C34.3358 13.9678 34.4053 13.9536 34.4053 13.9034C34.4053 13.8531 34.3631 13.7967 34.3116 13.7776C34.1476 13.7176 34.3177 13.1857 34.5214 13.1205C34.6289 13.0859 34.7104 13.0032 34.7022 12.9367C34.6705 12.6782 34.716 12.5486 34.8163 12.611C34.8738 12.6468 34.9144 12.638 34.9065 12.5914C34.8539 12.287 34.9575 12.026 35.2417 11.7453C35.4424 11.5474 35.5111 11.4234 35.4204 11.4224C35.2966 11.4211 35.2976 11.4051 35.4266 11.3209C35.5108 11.266 35.5422 11.2201 35.4963 11.2193C35.4503 11.2186 35.5078 11.083 35.6239 10.9183C35.7401 10.7537 35.8351 10.5905 35.8351 10.5557C35.8351 10.521 36.1108 10.2158 36.4479 9.87772C36.7849 9.53961 37.0607 9.19324 37.0607 9.10769C37.0607 8.93451 37.365 8.53764 37.498 8.53764C37.545 8.53764 37.5522 8.59562 37.5139 8.66649C37.4756 8.73736 37.582 8.65618 37.7503 8.4861C37.9188 8.31601 38.0365 8.14206 38.012 8.09954C37.9878 8.05701 38.0163 8.02222 38.0758 8.02222C38.1353 8.02222 38.1841 7.95857 38.1841 7.88048C38.1841 7.80266 38.3222 7.71091 38.4913 7.67664C38.6631 7.6421 38.7869 7.5568 38.7721 7.48336C38.7576 7.4112 38.8033 7.36378 38.8735 7.37795C38.9437 7.39213 38.9897 7.34574 38.9756 7.27487C38.9616 7.204 39.0382 7.14576 39.1459 7.1455C39.2537 7.14524 39.3612 7.087 39.3844 7.01613C39.4079 6.94501 39.4763 6.91769 39.5363 6.95506C39.5984 6.99397 39.616 6.9749 39.5769 6.91125C39.4921 6.77286 39.9119 6.46052 40.0646 6.54839C40.1256 6.58344 40.1419 6.57442 40.1008 6.52855C39.9798 6.39351 40.5035 5.97551 40.8839 5.90361C41.1334 5.85619 41.2176 5.79434 41.177 5.68739C41.1326 5.57091 41.1791 5.55261 41.3874 5.60544C41.5856 5.65569 41.6716 5.62838 41.7206 5.49978C41.7809 5.34129 42.2275 5.0841 42.3873 5.11605C42.4241 5.12327 42.5101 5.06116 42.5785 4.97792C42.647 4.89469 42.803 4.82665 42.9253 4.82665C43.0476 4.82665 43.2028 4.77099 43.2702 4.70295C43.3654 4.60683 43.393 4.61249 43.3943 4.72872C43.3953 4.83129 43.4193 4.84108 43.4709 4.75965C43.5123 4.69445 43.6379 4.62486 43.7502 4.60502C43.8626 4.58518 43.9775 4.54575 44.0056 4.5174C44.1342 4.38752 44.53 4.20506 44.4697 4.3035C44.4325 4.36458 44.4506 4.41432 44.5101 4.41432C44.5696 4.41432 44.6183 4.36793 44.6183 4.31123C44.6183 4.25454 44.7294 4.20815 44.8652 4.20815C45.0008 4.20815 45.1354 4.15017 45.1637 4.0793C45.2028 3.9824 45.2424 3.98858 45.3238 4.10507C45.3838 4.19037 45.4328 4.20712 45.4338 4.14244C45.4356 4.01049 45.8707 3.89993 46.5736 3.85303C46.8343 3.83576 47.0986 3.78989 47.1609 3.75098C47.2229 3.71232 47.2737 3.72959 47.2737 3.78963C47.2737 3.84968 47.3886 3.8989 47.5291 3.8989C47.6695 3.8989 47.7844 3.86231 47.7844 3.81773C47.7844 3.77314 47.9315 3.72521 48.111 3.71155C48.2907 3.69763 48.463 3.66027 48.4939 3.62805C48.5251 3.5961 48.7572 3.60177 49.01 3.64068C49.2627 3.67985 49.527 3.71516 49.5972 3.71928ZM58.3263 7.14937C58.479 7.31172 58.6222 7.42357 58.6447 7.39831C58.6672 7.3728 58.5421 7.24008 58.3669 7.10324L58.0485 6.85455L58.3263 7.14937ZM4.88947 39.7839C4.88947 39.9228 4.72453 39.8924 4.58971 39.7282C4.4909 39.6081 4.50699 39.5919 4.67933 39.6373C4.795 39.6677 4.88947 39.7337 4.88947 39.7839Z" fill="#23182E"/>
<path d="M45.7025 25.3395L46.2247 25.1706L45.6904 25.0449L40.4858 23.8202L40.4507 23.812L40.4157 23.8202L35.211 25.0449L34.6768 25.1706L35.199 25.3395L40.4036 27.0234L40.4507 27.0386L40.4979 27.0234L45.7025 25.3395Z" fill="#23182E" stroke="#23182E" stroke-width="0.306156"/>
<path d="M39.8397 27.949V35.756L34.1758 33.3067V25.959L39.8397 27.949Z" fill="#23182E"/>
<path d="M47.0343 33.766L41.2174 35.756V27.949L47.0343 25.959V33.766Z" fill="#23182E"/>
<path d="M28.8164 25.9212C28.6262 25.9212 28.472 26.0754 28.472 26.2656C28.472 26.4558 28.6262 26.6101 28.8164 26.6101V25.9212ZM34.1741 25.9212H28.8164V26.6101H34.1741V25.9212Z" fill="#23182E"/>
<path d="M30.3457 27.5281C30.1555 27.5281 30.0013 27.6823 30.0013 27.8726C30.0013 28.0628 30.1555 28.217 30.3457 28.217V27.5281ZM34.1757 27.5281H30.3457V28.217H34.1757V27.5281Z" fill="#23182E"/>
<path d="M29.4297 29.136C29.2395 29.136 29.0853 29.2902 29.0853 29.4805C29.0853 29.6707 29.2395 29.8249 29.4297 29.8249V29.136ZM34.3282 29.136H29.4297V29.8249H34.3282V29.136Z" fill="#23182E"/>
<path d="M30.8066 32.8096C30.6164 32.8096 30.4622 32.9638 30.4622 33.1541C30.4622 33.3443 30.6164 33.4985 30.8066 33.4985V32.8096ZM35.0928 32.8096H30.8066V33.4985H35.0928V32.8096Z" fill="#23182E"/>
<path d="M32.4902 30.9727C32.3 30.9727 32.1458 31.1269 32.1458 31.3171C32.1458 31.5074 32.3 31.6616 32.4902 31.6616V30.9727ZM34.3272 30.9727H32.4902V31.6616H34.3272V30.9727Z" fill="#23182E"/>
<path d="M27.5925 26.2656H26.2148" stroke="#23182E" stroke-width="0.68885" stroke-linecap="round"/>
<path d="M28.9695 27.9495H27.5918" stroke="#23182E" stroke-width="0.68885" stroke-linecap="round"/>
<path d="M30.6548 31.3171H29.7363" stroke="#23182E" stroke-width="0.68885" stroke-linecap="round"/>
<path d="M70.8959 22.8524L71.5026 22.6562L70.8819 22.5101L64.8354 21.0874L64.7946 21.0778L64.7539 21.0874L58.7073 22.5101L58.0866 22.6562L58.6933 22.8524L64.7399 24.8087L64.7946 24.8264L64.8494 24.8087L70.8959 22.8524Z" fill="#23182E" stroke="#23182E" stroke-width="0.355681"/>
<path d="M64.084 25.8839V34.9538L57.5039 32.1084V23.572L64.084 25.8839Z" fill="#23182E"/>
<path d="M72.4425 32.6419L65.6846 34.9538V25.8839L72.4425 23.572V32.6419Z" fill="#23182E"/>
<path d="M51.2793 23.5276C51.0583 23.5276 50.8792 23.7067 50.8792 23.9277C50.8792 24.1487 51.0583 24.3279 51.2793 24.3279V23.5276ZM57.5037 23.5276H51.2793V24.3279H57.5037V23.5276Z" fill="#23182E"/>
<path d="M53.0566 25.3958C52.8356 25.3958 52.6565 25.5749 52.6565 25.7959C52.6565 26.0169 52.8356 26.196 53.0566 26.196V25.3958ZM57.5062 25.3958H53.0566V26.196H57.5062V25.3958Z" fill="#23182E"/>
<path d="M51.9902 27.2629C51.7692 27.2629 51.5901 27.4421 51.5901 27.6631C51.5901 27.8841 51.7692 28.0632 51.9902 28.0632V27.2629ZM57.6811 27.2629H51.9902V28.0632H57.6811V27.2629Z" fill="#23182E"/>
<path d="M53.5918 31.5303C53.3708 31.5303 53.1917 31.7094 53.1917 31.9304C53.1917 32.1514 53.3708 32.3306 53.5918 32.3306V31.5303ZM58.5713 31.5303H53.5918V32.3306H58.5713V31.5303Z" fill="#23182E"/>
<path d="M55.5469 29.3967C55.3259 29.3967 55.1467 29.5759 55.1467 29.7969C55.1467 30.0179 55.3259 30.197 55.5469 30.197V29.3967ZM57.681 29.3967H55.5469V30.197H57.681V29.3967Z" fill="#23182E"/>
<path d="M49.8564 23.9277H48.2559" stroke="#23182E" stroke-width="0.800282" stroke-linecap="round"/>
<path d="M51.456 25.8843H49.8555" stroke="#23182E" stroke-width="0.800282" stroke-linecap="round"/>
<path d="M53.4127 29.7969H52.3457" stroke="#23182E" stroke-width="0.800282" stroke-linecap="round"/>
<path d="M24.6539 26.9448L25.0879 26.8044L24.6439 26.6999L20.318 25.6821L20.2888 25.6752L20.2597 25.6821L15.9337 26.6999L15.4897 26.8044L15.9237 26.9448L20.2496 28.3444L20.2888 28.3571L20.328 28.3444L24.6539 26.9448Z" fill="#23182E" stroke="#23182E" stroke-width="0.254466"/>
<path d="M19.7818 29.114V35.6029L15.0742 33.5671V27.46L19.7818 29.114Z" fill="#23182E"/>
<path d="M25.7618 33.9488L20.9269 35.6029V29.114L25.7618 27.46V33.9488Z" fill="#23182E"/>
<path d="M10.6191 27.4283C10.461 27.4283 10.3329 27.5565 10.3329 27.7146C10.3329 27.8727 10.461 28.0009 10.6191 28.0009V27.4283ZM15.0723 27.4283H10.6191V28.0009H15.0723V27.4283Z" fill="#23182E"/>
<path d="M11.8906 28.7643C11.7325 28.7643 11.6044 28.8924 11.6044 29.0505C11.6044 29.2086 11.7325 29.3368 11.8906 29.3368V28.7643ZM15.074 28.7643H11.8906V29.3368H15.074V28.7643Z" fill="#23182E"/>
<path d="M11.1289 30.1C10.9708 30.1 10.8426 30.2281 10.8426 30.3862C10.8426 30.5443 10.9708 30.6725 11.1289 30.6725V30.1ZM15.2004 30.1H11.1289V30.6725H15.2004V30.1Z" fill="#23182E"/>
<path d="M12.2754 33.1534C12.1173 33.1534 11.9891 33.2816 11.9891 33.4397C11.9891 33.5978 12.1173 33.726 12.2754 33.726V33.1534ZM15.8379 33.1534H12.2754V33.726H15.8379V33.1534Z" fill="#23182E"/>
<path d="M13.6738 31.6266C13.5157 31.6266 13.3876 31.7547 13.3876 31.9128C13.3876 32.0709 13.5157 32.1991 13.6738 32.1991V31.6266ZM15.2006 31.6266H13.6738V32.1991H15.2006V31.6266Z" fill="#23182E"/>
<path d="M9.60213 27.7146H8.45703" stroke="#23182E" stroke-width="0.572549" stroke-linecap="round"/>
<path d="M10.7467 29.114H9.60156" stroke="#23182E" stroke-width="0.572549" stroke-linecap="round"/>
<path d="M12.1482 31.9128H11.3848" stroke="#23182E" stroke-width="0.572549" stroke-linecap="round"/>
<path d="M23.8068 11.6269C23.8326 11.616 23.8576 11.6058 23.8817 11.5964C23.8566 11.6066 23.8317 11.6168 23.8068 11.6269C21.9786 12.4017 15.7913 17.0757 15.5464 22.4686C15.3044 16.5489 17.3344 14.2696 23.8068 11.6269Z" fill="#23182E"/>
<path d="M23.8817 11.5964C22.1547 12.2698 15.7948 16.9995 15.5464 22.4686C15.3035 16.5262 17.35 14.2521 23.8817 11.5964Z" stroke="#23182E" stroke-width="0.241603"/>
<path d="M6.22608 35.7568C4.88273 28.4804 6.28508 25.6354 12.7494 22.8311C9.99723 23.1384 7.94999 24.1585 6.3463 26.4551C4.26527 29.4353 4.42936 31.5377 6.22608 35.7568Z" fill="#23182E" stroke="#23182E" stroke-width="0.241603"/>
<path d="M43.9154 5.7981C39.3818 8.95185 37.6671 11.0301 35.5801 15.0998C36.4655 10.619 38.594 8.69098 43.9154 5.7981Z" fill="#23182E" stroke="#23182E" stroke-width="0.241603"/>
</svg>
