<svg width="92" height="91" viewBox="0 0 92 91" fill="none" xmlns="http://www.w3.org/2000/svg">
<g filter="url(#filter0_di_1774_276)">
<path d="M22.7764 13.9254L42.1508 6.29435C45.0763 5.14206 48.3327 5.15777 51.247 6.33823L69.8653 13.8799C72.8868 15.1038 75.2965 17.4806 76.5617 20.485L84.3569 38.9954C85.6063 41.962 85.6388 45.3009 84.4475 48.2913L76.5088 68.2195C75.2794 71.3057 72.8502 73.7609 69.7773 75.0232L51.3017 82.6124C48.3553 83.8227 45.0535 83.8388 42.0954 82.6573L22.8683 74.9775C19.7813 73.7445 17.3273 71.3109 16.0685 68.2343L7.95349 48.3995C6.70421 45.346 6.73825 41.9179 8.04793 38.8898L16.0164 20.4659C17.3106 17.4737 19.7431 15.1202 22.7764 13.9254Z" fill="#24182E"/>
</g>
<path d="M22.8451 38.5229L16.4219 35.6284L19.1805 31.0583H26.077L28.0694 28.2547L24.851 24.1168L29.1422 17.9865L34.6594 21.2049L40.4832 19.4805L41.4027 13.0823H51.5177L52.4372 19.4805L57.3414 21.2049L64.0847 17.9865L68.5292 24.1168L65.6173 28.2547L67.6096 31.0583H73.4334L75.4257 35.6284L69.4487 38.5229" stroke="white" stroke-width="2.45211"/>
<path d="M22.8451 50.4761L16.4219 53.3706L19.1805 57.9407H26.077L28.0694 60.7443L24.851 64.8823L29.1422 71.0125L34.6594 67.7941L40.4832 69.5185L41.4027 75.9167H51.5177L52.4372 69.5185L57.3414 67.7941L64.0847 71.0125L68.5292 64.8823L65.6173 60.7443L67.6096 57.9407H73.4334L75.4257 53.3706L69.4487 50.4761" stroke="white" stroke-width="2.45211"/>
<circle cx="46.7676" cy="44.3465" r="15.0866" stroke="white" stroke-width="2.62375"/>
<rect x="14.2754" y="34.8447" width="63.7548" height="19.6169" fill="#24182E"/>
<path fill-rule="evenodd" clip-rule="evenodd" d="M47.9283 38.5533C47.9283 38.5665 47.8646 38.5773 47.7867 38.5773C47.7089 38.5773 47.6513 38.5878 47.6589 38.6007C47.6664 38.6135 47.6412 38.6268 47.603 38.6302C47.563 38.6337 47.5408 38.6238 47.5508 38.6068C47.5602 38.5906 47.5546 38.5773 47.5383 38.5773C47.522 38.5773 47.5087 38.5906 47.5087 38.607C47.5087 38.6233 47.4709 38.6367 47.4247 38.6367C47.3786 38.6367 47.3408 38.6473 47.3408 38.6601C47.3408 38.673 47.3154 38.6855 47.2842 38.6881C47.249 38.6909 47.234 38.6793 47.2444 38.6572C47.2535 38.6378 47.2424 38.6461 47.2197 38.6757C47.1935 38.7098 47.1716 38.7179 47.16 38.6979C47.133 38.6515 47.089 38.6597 47.089 38.711C47.089 38.7355 47.0757 38.7556 47.0594 38.7556C47.0431 38.7556 47.0392 38.7389 47.0508 38.7185C47.0676 38.6888 47.0631 38.6887 47.0289 38.7182C47.0053 38.7385 46.9777 38.7463 46.9676 38.7355C46.9574 38.7248 46.9492 38.7287 46.9492 38.7443C46.9492 38.7598 46.9271 38.775 46.9002 38.778C46.7641 38.7929 46.72 38.8093 46.6556 38.8688C46.617 38.9044 46.5855 38.9243 46.5855 38.9129C46.5855 38.9016 46.5704 38.9084 46.5519 38.928C46.5335 38.9476 46.4902 38.9637 46.4557 38.9637C46.4212 38.9637 46.3852 38.977 46.3757 38.9934C46.3662 39.0097 46.3215 39.0231 46.2764 39.0231C46.2246 39.0231 46.1814 39.045 46.1594 39.0825C46.1401 39.1152 46.1023 39.142 46.0752 39.142C46.0482 39.142 46.0258 39.1587 46.0256 39.1791C46.0252 39.2089 46.0207 39.2089 46.0029 39.1791C45.9856 39.1502 45.9687 39.1524 45.9264 39.1888C45.8965 39.2145 45.891 39.2269 45.9141 39.2163C45.9372 39.2057 45.9316 39.2181 45.9018 39.2438C45.8595 39.2802 45.8425 39.2824 45.8253 39.2535C45.8093 39.2269 45.8029 39.2308 45.8026 39.2676C45.8024 39.2957 45.763 39.3403 45.7152 39.3666C45.6673 39.3929 45.6366 39.3999 45.6469 39.3822C45.6572 39.3645 45.6523 39.35 45.636 39.35C45.6197 39.35 45.6064 39.3776 45.6064 39.4113C45.6064 39.4449 45.5944 39.4646 45.5798 39.455C45.5652 39.4454 45.5403 39.4631 45.5246 39.4944C45.5089 39.5256 45.4743 39.56 45.4479 39.5707C45.4063 39.5877 45.4071 39.5815 45.454 39.5255L45.5084 39.4605L45.4455 39.5016C45.4109 39.5242 45.3826 39.5508 45.3826 39.5607C45.3826 39.5873 45.2813 39.7067 45.2587 39.7067C45.2481 39.7067 45.248 39.6919 45.2585 39.6739C45.269 39.6559 45.2445 39.6641 45.2041 39.6922C45.1315 39.7428 45.0984 39.7904 45.1657 39.7474C45.1895 39.7322 45.1884 39.7411 45.1623 39.7753C45.1412 39.8029 45.108 39.8256 45.0887 39.8256C45.0692 39.8256 45.0456 39.8557 45.0361 39.8925C45.0245 39.9377 45.0119 39.9478 44.9971 39.9238C44.9826 39.9001 44.9617 39.8976 44.9342 39.9163C44.898 39.9411 44.8981 39.9484 44.9349 39.9761C44.9684 40.0013 44.9645 40.0042 44.9161 39.9897C44.8678 39.9754 44.8533 39.9856 44.8461 40.0391C44.8412 40.0762 44.8109 40.1203 44.7789 40.1372C44.6932 40.1823 44.6351 40.252 44.6483 40.294C44.6546 40.3143 44.6408 40.3309 44.6174 40.3309C44.5941 40.3309 44.5671 40.3576 44.5573 40.3903C44.5475 40.423 44.5265 40.4498 44.5107 40.4498C44.4706 40.4498 44.3293 40.6147 44.3401 40.649C44.3449 40.6644 44.3233 40.7015 44.2922 40.7315C44.261 40.7614 44.2356 40.8114 44.2356 40.8425C44.2356 40.8736 44.2228 40.8907 44.2071 40.8804C44.1915 40.8702 44.1872 40.8472 44.1974 40.8295C44.2084 40.8107 44.2033 40.8058 44.1851 40.8177C44.1681 40.8289 44.1618 40.8593 44.1712 40.8853C44.1813 40.9134 44.1692 40.944 44.1414 40.9605C44.1156 40.9759 44.1009 40.9995 44.1088 41.0129C44.1166 41.0265 44.1019 41.0557 44.076 41.078C44.0437 41.1059 44.0355 41.1069 44.05 41.0814C44.0616 41.0609 44.0637 41.0442 44.0547 41.0442C44.0457 41.0442 44.0268 41.0766 44.0126 41.1161C43.9959 41.1629 43.9692 41.1845 43.9364 41.1778C43.9086 41.1722 43.871 41.1666 43.8528 41.1654C43.8346 41.1641 43.8117 41.1364 43.8019 41.1037C43.7922 41.071 43.7717 41.0442 43.7564 41.0442C43.7412 41.0442 43.7364 41.0574 43.7458 41.0736C43.7556 41.0904 43.7444 41.0954 43.7195 41.0853C43.6956 41.0756 43.6751 41.0456 43.6738 41.0187C43.6723 40.9848 43.6672 40.9819 43.6569 41.0091C43.6461 41.0377 43.6311 41.0317 43.6016 40.9869C43.5793 40.953 43.546 40.9264 43.5276 40.9277C43.5035 40.9293 43.5039 40.9342 43.5292 40.945C43.5684 40.9618 43.5771 41.0145 43.5407 41.0145C43.5278 41.0145 43.5025 40.9803 43.4846 40.9385C43.466 40.8951 43.4388 40.8712 43.4211 40.8829C43.404 40.894 43.3794 40.8849 43.3663 40.8625C43.3525 40.8386 43.3044 40.8245 43.2506 40.8284C43.1801 40.8336 43.1714 40.8294 43.2134 40.8107C43.2634 40.7886 43.2613 40.7844 43.1912 40.7658C43.1487 40.7544 43.1005 40.754 43.0842 40.7648C43.0677 40.7755 43.0458 40.7697 43.0354 40.7517C43.025 40.7338 42.976 40.7159 42.9266 40.7119C42.8772 40.7079 42.8368 40.6933 42.8368 40.6794C42.8368 40.6656 42.8253 40.6619 42.8111 40.6712C42.7969 40.6805 42.7686 40.6709 42.7481 40.6499C42.7277 40.6288 42.6606 40.6074 42.599 40.6021C42.5375 40.5969 42.4779 40.5772 42.4666 40.5583C42.4526 40.535 42.4457 40.5383 42.4451 40.5687C42.4445 40.601 42.4384 40.6034 42.4228 40.5772C42.3968 40.5337 41.3356 40.5283 41.3105 40.5716C41.3012 40.5875 41.2735 40.5864 41.2428 40.569C41.2066 40.5484 41.1876 40.5496 41.1802 40.5731C41.1744 40.5916 41.1178 40.6083 41.0544 40.61C40.9909 40.6118 40.9297 40.6233 40.9181 40.6355C40.9066 40.6478 40.8734 40.6578 40.8443 40.6578C40.8151 40.6578 40.7991 40.6712 40.8086 40.6875C40.8191 40.7055 40.7803 40.7173 40.7107 40.7173C40.638 40.7173 40.6021 40.7287 40.6135 40.7482C40.6251 40.7682 40.6061 40.7723 40.5592 40.7598C40.5023 40.7446 40.4869 40.7515 40.4869 40.7921C40.4869 40.8333 40.4704 40.8401 40.4041 40.826C40.3555 40.8157 40.3132 40.8222 40.3018 40.8417C40.29 40.862 40.295 40.8668 40.3147 40.8538C40.3325 40.8422 40.347 40.8478 40.347 40.8663C40.347 40.8848 40.3187 40.8969 40.2841 40.8932C40.2 40.8844 40.0698 40.9432 40.0496 40.9992C40.0406 41.0239 40.015 41.0442 39.9927 41.0442C39.9703 41.0442 39.9598 41.0576 39.9693 41.0739C39.9788 41.0903 39.9663 41.1037 39.9414 41.1037C39.9165 41.1037 39.9039 41.0903 39.9134 41.0739C39.9229 41.0576 39.9174 41.0442 39.9011 41.0442C39.8848 41.0442 39.8714 41.0555 39.8714 41.0694C39.8714 41.1372 39.7564 41.2355 39.7281 41.1919C39.7074 41.1598 39.7052 41.1679 39.7197 41.2223C39.7371 41.287 39.7341 41.2915 39.696 41.2579C39.6592 41.2254 39.6495 41.2289 39.6341 41.2804C39.6241 41.314 39.6034 41.3414 39.5881 41.3414C39.5729 41.3414 39.5681 41.3282 39.5775 41.3121C39.5877 41.2945 39.5749 41.2907 39.5456 41.3026C39.5154 41.3149 39.5095 41.3272 39.5301 41.3345C39.5877 41.3549 39.5668 41.4087 39.5077 41.3923C39.4769 41.3837 39.4574 41.3865 39.4643 41.3984C39.4807 41.4264 39.3905 41.5082 39.3149 41.5336C39.2825 41.5446 39.256 41.5667 39.256 41.583C39.256 41.5992 39.2717 41.6032 39.2909 41.592C39.3102 41.5807 39.2567 41.6451 39.172 41.7351C39.0874 41.8251 39.0098 41.8936 38.9994 41.8873C38.9892 41.881 38.9659 41.9237 38.9477 41.9822C38.9296 42.0407 38.9075 42.0809 38.8988 42.0716C38.8689 42.0398 38.7804 42.1529 38.7804 42.2228C38.7804 42.2612 38.7678 42.2925 38.7524 42.2925C38.737 42.2925 38.7242 42.2758 38.724 42.2554C38.7238 42.235 38.7073 42.2517 38.6873 42.2925C38.667 42.3342 38.6621 42.3748 38.6761 42.385C38.6899 42.395 38.6812 42.4113 38.6569 42.4212C38.6325 42.4311 38.6125 42.4732 38.6125 42.5145C38.6125 42.5616 38.5968 42.5898 38.5706 42.5898C38.5469 42.5898 38.5286 42.6164 38.5286 42.651C38.5286 42.6847 38.5169 42.7045 38.5026 42.6951C38.4883 42.6857 38.4674 42.6936 38.4563 42.7127C38.4436 42.7345 38.4482 42.7396 38.4683 42.7263C38.5297 42.6861 38.4783 42.8226 38.3931 42.9261C38.3686 42.9559 38.3478 43.0161 38.3467 43.0599C38.3454 43.1117 38.3312 43.1364 38.3061 43.1305C38.2742 43.123 38.2737 43.1295 38.3035 43.1676C38.3243 43.1943 38.3274 43.2139 38.3108 43.2139C38.295 43.2139 38.2887 43.2409 38.2968 43.2738C38.3082 43.3199 38.3011 43.3294 38.2662 43.3152C38.2136 43.2938 38.2035 43.3499 38.2559 43.3731C38.2819 43.3846 38.2796 43.3984 38.2464 43.4276C38.222 43.449 38.2079 43.4852 38.2151 43.5079C38.2223 43.5306 38.2154 43.5408 38.1999 43.5306C38.1823 43.5191 38.173 43.5594 38.1753 43.6366C38.1795 43.7797 38.1191 43.8106 37.8378 43.8093C37.7578 43.809 37.6847 43.8221 37.6753 43.8383C37.6658 43.8545 37.6329 43.8678 37.6021 43.8678C37.5714 43.8678 37.554 43.8812 37.5635 43.8975C37.5742 43.916 37.5212 43.9273 37.4236 43.9273C37.3371 43.9273 37.2734 43.9392 37.2819 43.9539C37.2904 43.9685 37.2779 43.9884 37.2541 43.9982C37.2294 44.0082 37.2182 44.0032 37.228 43.9863C37.2373 43.9702 37.2313 43.957 37.2145 43.957C37.1978 43.957 37.1764 43.9782 37.1671 44.004C37.1572 44.0313 37.1292 44.0451 37.1001 44.0371C37.0649 44.0273 37.0547 44.0361 37.0658 44.0666C37.0754 44.0931 37.0664 44.1074 37.0427 44.1031C37.0031 44.0961 36.9032 44.1323 36.8781 44.1629C36.8343 44.2162 36.7381 44.2531 36.7364 44.2173C36.7355 44.1968 36.7233 44.21 36.7094 44.2468C36.6955 44.2836 36.6703 44.3137 36.6535 44.3137C36.6366 44.3137 36.6323 44.2972 36.644 44.2765C36.6585 44.2509 36.6504 44.252 36.618 44.2798C36.5921 44.3021 36.5778 44.3322 36.5863 44.3467C36.5948 44.3612 36.5813 44.3731 36.5564 44.3731C36.5289 44.3731 36.5191 44.3868 36.5313 44.4079C36.5447 44.4308 36.5366 44.4366 36.5075 44.4247C36.4803 44.4136 36.4451 44.4328 36.4151 44.4752C36.3831 44.5206 36.3468 44.5391 36.3077 44.5301C36.2595 44.519 36.2564 44.5225 36.2906 44.5484C36.3321 44.5798 36.302 44.5971 36.2276 44.5846C36.2161 44.5827 36.2098 44.5973 36.2137 44.617C36.2175 44.6367 36.206 44.6534 36.188 44.6541C36.1701 44.6549 36.1449 44.6676 36.132 44.6825C36.1185 44.6983 36.1234 44.7006 36.1437 44.6882C36.163 44.6764 36.1787 44.6752 36.1787 44.6856C36.1787 44.7149 36.095 44.7964 36.093 44.7691C36.092 44.7556 36.0799 44.7747 36.066 44.8115C36.052 44.8483 36.0269 44.8784 36.0101 44.8784C35.9933 44.8784 35.9886 44.8617 35.9997 44.8412C36.0108 44.8208 36.009 44.8145 35.9959 44.8273C35.9827 44.84 35.9688 44.8732 35.965 44.901C35.9611 44.9288 35.9447 44.9563 35.9285 44.962C35.9122 44.9678 35.8989 44.99 35.8989 45.0115C35.8989 45.0329 35.8794 45.0583 35.8555 45.0681C35.827 45.0797 35.8181 45.0732 35.8296 45.0489C35.8393 45.0287 35.8277 45.0375 35.804 45.0685C35.7803 45.0995 35.7675 45.1364 35.7758 45.1505C35.784 45.1646 35.7615 45.1885 35.7259 45.2037C35.6887 45.2195 35.679 45.2325 35.7031 45.2342C35.734 45.2362 35.7284 45.2518 35.6821 45.2929C35.6474 45.3236 35.6257 45.3671 35.6338 45.3895C35.6419 45.412 35.6199 45.463 35.5849 45.5029C35.5499 45.5428 35.5213 45.5878 35.5213 45.6029C35.5213 45.6179 35.4961 45.6408 35.4653 45.6535C35.4345 45.6662 35.4251 45.6776 35.4443 45.6788C35.4995 45.6821 35.4851 45.7344 35.4234 45.7552C35.3926 45.7656 35.3674 45.7972 35.3674 45.8256C35.3674 45.8539 35.3517 45.895 35.3324 45.9171C35.3045 45.9491 35.3045 45.9529 35.3324 45.9361C35.3903 45.9014 35.3722 45.9836 35.3045 46.0627C35.2698 46.1032 35.2573 46.1266 35.2765 46.1149C35.3338 46.0798 35.3168 46.1681 35.2555 46.2238C35.1945 46.2793 35.1779 46.3521 35.2345 46.316C35.2625 46.2981 35.2625 46.3028 35.2346 46.3394C35.2154 46.3646 35.2044 46.4282 35.2101 46.4807C35.218 46.5523 35.211 46.5722 35.1821 46.5604C35.1388 46.5427 35.1286 46.6186 35.1705 46.6462C35.1857 46.6561 35.1879 46.6925 35.1756 46.7296C35.1636 46.7658 35.1577 46.8724 35.1625 46.9664C35.1673 47.0604 35.1614 47.1373 35.1493 47.1373C35.1373 47.1373 35.1263 47.1841 35.1249 47.2413C35.1234 47.2985 35.1307 47.3453 35.1409 47.3453C35.1512 47.3453 35.1602 47.3982 35.1609 47.4629C35.1617 47.5341 35.1511 47.5731 35.1342 47.562C35.1165 47.5505 35.1143 47.5647 35.1281 47.6005C35.1691 47.7066 35.194 47.8505 35.1686 47.8338C35.1398 47.8149 35.1361 47.8547 35.1605 47.9223C35.1698 47.9481 35.187 47.9629 35.1986 47.9553C35.2102 47.9476 35.2163 47.9744 35.2121 48.0147C35.208 48.0551 35.216 48.0957 35.23 48.1049C35.244 48.1141 35.2553 48.1376 35.2551 48.157C35.2548 48.1783 35.2438 48.1746 35.2275 48.1478C35.2126 48.1233 35.2002 48.1182 35.2 48.1364C35.1998 48.1546 35.2248 48.2036 35.2556 48.2453C35.2967 48.3007 35.3024 48.3251 35.2766 48.3361C35.2571 48.3445 35.2653 48.3522 35.2952 48.3535C35.3246 48.3548 35.3405 48.3646 35.3303 48.3754C35.3202 48.3862 35.3257 48.4126 35.3424 48.434C35.3592 48.4554 35.3742 48.5202 35.3757 48.5779C35.3773 48.6356 35.3922 48.6828 35.4091 48.6828C35.4259 48.6828 35.4595 48.7293 35.4838 48.7862C35.5096 48.8467 35.5149 48.8827 35.4966 48.8731C35.4794 48.8641 35.4853 48.8745 35.5097 48.8961C35.5341 48.9178 35.5492 48.951 35.5432 48.9699C35.5372 48.9888 35.5475 49.0143 35.5661 49.0265C35.5874 49.0405 35.5926 49.0361 35.5801 49.0147C35.5681 48.994 35.5746 48.9868 35.5967 48.9963C35.6168 49.0049 35.6559 49.0616 35.6837 49.1223L35.7342 49.2327L35.6624 49.1435L35.5906 49.0543L35.6399 49.1507C35.6689 49.2076 35.7112 49.2472 35.7428 49.2473C35.7722 49.2475 35.7879 49.2565 35.7777 49.2675C35.7674 49.2784 35.781 49.3141 35.8079 49.3468C35.8349 49.3796 35.8412 49.3966 35.822 49.3846C35.8028 49.3727 35.787 49.3707 35.787 49.3803C35.787 49.3898 35.8203 49.411 35.8608 49.4274C35.9015 49.4439 35.9277 49.4647 35.9192 49.4738C35.898 49.4962 36.0023 49.6041 36.0458 49.6047C36.0691 49.605 36.0668 49.6148 36.0388 49.6339C36.0049 49.6573 36.0089 49.6628 36.0598 49.6632C36.098 49.6635 36.1227 49.6819 36.1227 49.71C36.1227 49.7355 36.1352 49.7481 36.1504 49.7382C36.1662 49.7278 36.1709 49.7397 36.1614 49.7661C36.1489 49.8008 36.1646 49.8132 36.2246 49.8157C36.2705 49.8177 36.284 49.8249 36.2563 49.8326C36.2178 49.8433 36.215 49.8539 36.2423 49.8853C36.2674 49.914 36.2821 49.9154 36.2972 49.8907C36.3107 49.8684 36.3179 49.8731 36.3181 49.9043C36.3187 49.9651 36.4067 50.05 36.4693 50.05C36.4959 50.05 36.51 50.0633 36.5006 50.0794C36.491 50.0958 36.5015 50.1015 36.5241 50.0922C36.5464 50.0832 36.5742 50.0921 36.5858 50.1121C36.6004 50.1372 36.5948 50.1411 36.5677 50.1246C36.5353 50.105 36.5347 50.1081 36.5645 50.142C36.5953 50.1772 36.6045 50.1767 36.6271 50.139C36.6426 50.1128 36.6536 50.109 36.6539 50.1298C36.6541 50.1491 36.6794 50.1734 36.7102 50.1838C36.741 50.1942 36.7662 50.2204 36.7662 50.242C36.7662 50.2637 36.7857 50.2895 36.8096 50.2992C36.8345 50.3093 36.8457 50.3043 36.8359 50.2874C36.8051 50.2345 36.8682 50.2567 36.9194 50.3169C36.947 50.3491 36.9791 50.3693 36.9908 50.3616C37.0025 50.3539 37.0204 50.3706 37.0305 50.3986C37.0463 50.4423 37.0526 50.4433 37.0749 50.4059C37.0942 50.3736 37.1011 50.3723 37.1015 50.4011C37.1017 50.4225 37.1145 50.4317 37.1299 50.4216C37.1452 50.4115 37.1578 50.4188 37.1578 50.4378C37.1578 50.4569 37.1773 50.4646 37.2013 50.4548C37.2262 50.4447 37.2373 50.4497 37.2276 50.4665C37.2173 50.484 37.2563 50.4959 37.324 50.4959C37.3865 50.4959 37.4376 50.5092 37.4376 50.5256C37.4376 50.5419 37.4628 50.5553 37.4935 50.5553C37.5243 50.5553 37.5495 50.5695 37.5495 50.5868C37.5495 50.6041 37.5626 50.6096 37.5787 50.5991C37.5947 50.5885 37.6367 50.6 37.6719 50.6245C37.7101 50.651 37.751 50.6591 37.7732 50.6445C37.7938 50.631 37.8431 50.6331 37.8829 50.6492C37.9226 50.6652 37.9614 50.6808 37.9691 50.6837C37.9768 50.6867 37.9803 50.6979 37.9769 50.7088C37.9735 50.7196 38.0239 50.7247 38.0888 50.7199C38.1537 50.7152 38.2305 50.7244 38.2592 50.7403C38.2893 50.757 38.3047 50.7575 38.2955 50.7417C38.2866 50.7265 38.3072 50.7174 38.3411 50.7214C38.375 50.7254 41.6507 50.7331 45.6203 50.7386L52.838 50.7484L45.5924 50.7642L38.3468 50.78L46.2005 50.7831C51.7057 50.7854 54.0488 50.7769 54.036 50.7549C54.0249 50.7359 54.0347 50.7305 54.0609 50.7412C54.0846 50.7508 54.1181 50.7438 54.1354 50.7254C54.1527 50.7071 54.1668 50.7006 54.1668 50.7111C54.1668 50.7215 54.2005 50.7115 54.2417 50.6888C54.3195 50.646 54.3976 50.6621 54.3306 50.7072C54.3083 50.7223 54.3056 50.7329 54.3242 50.7332C54.3416 50.7334 54.37 50.7154 54.3875 50.693C54.4056 50.6698 54.4581 50.6561 54.5098 50.6611C54.5596 50.6659 54.5847 50.663 54.5654 50.6547C54.5063 50.6291 54.5268 50.5848 54.5928 50.5955C54.6271 50.6011 54.6932 50.581 54.7396 50.5509C54.7861 50.5208 54.8533 50.496 54.8888 50.4959C54.9247 50.4959 54.9457 50.4826 54.9361 50.4662C54.9266 50.4498 54.9311 50.4364 54.9461 50.4364C54.9611 50.4364 54.9797 50.4531 54.9875 50.4736C54.9964 50.4969 55.0025 50.4924 55.0038 50.4615C55.0053 50.4273 55.0231 50.417 55.062 50.4278C55.0928 50.4364 55.1179 50.4313 55.1179 50.4166C55.1179 50.4019 55.1589 50.3638 55.2089 50.332C55.2981 50.2752 55.3117 50.2693 55.3714 50.2618C55.3877 50.2598 55.3927 50.2438 55.3825 50.2264C55.3715 50.2073 55.3848 50.1984 55.4159 50.2041C55.4457 50.2095 55.4647 50.1978 55.4606 50.1764C55.4568 50.1559 55.4788 50.1392 55.5096 50.1392C55.5404 50.1392 55.5655 50.1261 55.5655 50.1101C55.5655 50.094 55.5969 50.0726 55.6353 50.0623C55.6737 50.052 55.699 50.0332 55.6916 50.0205C55.6842 50.0078 55.6992 49.9791 55.7251 49.9568C55.7575 49.9289 55.7656 49.9279 55.7511 49.9534C55.7395 49.9739 55.7368 49.9906 55.745 49.9906C55.7532 49.9906 55.7795 49.9505 55.8033 49.9014C55.8272 49.8524 55.8598 49.8123 55.8756 49.8123C55.8915 49.8123 55.8956 49.8277 55.8846 49.8466C55.8722 49.8678 55.8769 49.8728 55.8969 49.8597C55.9147 49.848 55.9292 49.8201 55.9292 49.7978C55.9292 49.7754 55.9607 49.7308 55.9992 49.6987C56.0376 49.6666 56.07 49.6221 56.0711 49.5999C56.0722 49.5778 56.0839 49.5864 56.0971 49.6191C56.12 49.6758 56.1212 49.6755 56.1231 49.6116C56.1241 49.5749 56.1384 49.5448 56.1547 49.5448C56.171 49.5448 56.1765 49.5314 56.167 49.515C56.1572 49.4981 56.1817 49.4853 56.2243 49.4853C56.2789 49.4853 56.2946 49.4734 56.2828 49.441C56.2739 49.4162 56.2935 49.3701 56.3271 49.3369C56.3603 49.3041 56.3756 49.277 56.3611 49.2768C56.3467 49.2766 56.348 49.2666 56.364 49.2545C56.3801 49.2425 56.43 49.1701 56.4748 49.0936C56.5197 49.0171 56.5664 48.9611 56.5785 48.969C56.5996 48.9829 56.6124 48.9355 56.6028 48.8797C56.6003 48.8654 56.624 48.8345 56.6554 48.8111C56.6868 48.7877 56.7125 48.7504 56.7125 48.7282C56.7125 48.7059 56.7258 48.683 56.742 48.6773C56.7583 48.6716 56.7747 48.6441 56.7786 48.6162C56.7824 48.5885 56.7943 48.5564 56.805 48.545C56.8157 48.5336 56.8244 48.4998 56.8244 48.4698C56.8244 48.4398 56.8378 48.4153 56.8541 48.4153C56.8704 48.4153 56.8759 48.4019 56.8664 48.3856C56.8569 48.3693 56.8604 48.3559 56.8742 48.3559C56.9026 48.3559 56.9772 48.206 56.9682 48.167C56.965 48.153 56.9785 48.1203 56.9983 48.0944C57.0257 48.0584 57.026 48.0526 56.9993 48.0696C56.9769 48.0838 56.9643 48.074 56.9643 48.0424C56.9643 48.013 56.9797 47.9991 57.0021 48.0083C57.0303 48.0198 57.0374 47.9987 57.0298 47.9256C57.0226 47.8565 57.0327 47.8221 57.0637 47.8095C57.0988 47.7952 57.105 47.7583 57.0944 47.6279C57.087 47.5378 57.0926 47.4642 57.1066 47.4642C57.1207 47.4642 57.1322 47.4249 57.1322 47.3768C57.1322 47.3288 57.1447 47.2811 57.1601 47.271C57.1755 47.2609 57.1881 47.2393 57.1881 47.2229C57.1881 47.2066 57.1755 47.2015 57.1601 47.2116C57.1432 47.2227 57.1322 47.1816 57.1322 47.1075C57.1322 47.0182 57.1416 46.9908 57.1671 47.0061C57.1951 47.0229 57.1951 47.0191 57.1671 46.9871C57.1479 46.965 57.1322 46.882 57.1322 46.8026C57.1322 46.6957 57.1412 46.6636 57.1671 46.6792C57.1951 46.696 57.1951 46.6922 57.1671 46.6602C57.1479 46.6381 57.1322 46.5751 57.1322 46.5202C57.1322 46.4483 57.1419 46.4267 57.1671 46.4427C57.1929 46.4592 57.1924 46.4523 57.1654 46.4169C57.1452 46.3904 57.1268 46.3085 57.1245 46.235C57.1223 46.1614 57.1134 46.1058 57.1048 46.1114C57.0962 46.1171 57.0938 46.0693 57.0996 46.0053C57.1073 45.9193 57.0997 45.8889 57.0703 45.8889C57.0459 45.8889 57.0298 45.8574 57.0289 45.8072C57.0281 45.7622 57.0183 45.6987 57.0072 45.666C56.991 45.6183 56.993 45.6154 57.0172 45.6512C57.0366 45.6798 57.0475 45.6829 57.0478 45.6596C57.048 45.6398 57.0231 45.6092 56.9923 45.5917C56.9615 45.5743 56.9363 45.5395 56.9363 45.5146C56.9363 45.4866 56.9497 45.4776 56.9713 45.491C56.9905 45.503 56.9842 45.486 56.9572 45.4532C56.9303 45.4205 56.9168 45.3846 56.9272 45.3735C56.9377 45.3624 56.9094 45.3113 56.8644 45.2599C56.8011 45.1878 56.7949 45.1711 56.8369 45.1872C56.8884 45.2068 56.8887 45.205 56.8438 45.1522C56.8177 45.1215 56.8048 45.0875 56.8151 45.0766C56.8253 45.0656 56.8141 45.0567 56.7901 45.0567C56.7661 45.0567 56.739 45.036 56.7298 45.0106C56.7203 44.9841 56.725 44.9722 56.7409 44.9826C56.756 44.9926 56.7685 44.9866 56.7685 44.9693C56.7685 44.9404 56.7298 44.9256 56.6776 44.9343C56.666 44.9363 56.6566 44.8977 56.6566 44.8487C56.6566 44.7923 56.6422 44.7595 56.6176 44.7595C56.5962 44.7595 56.571 44.7383 56.5617 44.7125C56.5373 44.6451 56.5404 44.6343 56.577 44.6583C56.5976 44.6719 56.6017 44.6664 56.5882 44.6432C56.5766 44.6233 56.5598 44.6146 56.551 44.624C56.5287 44.6476 56.4325 44.4868 56.4505 44.456C56.4584 44.4423 56.4482 44.4348 56.4279 44.4392C56.4075 44.4438 56.394 44.4304 56.398 44.4096C56.402 44.3888 56.3728 44.3587 56.3332 44.3427C56.2781 44.3204 56.2653 44.2996 56.2789 44.2542C56.2919 44.2107 56.2839 44.1948 56.2491 44.1948C56.19 44.1948 56.0919 44.0791 56.116 44.0378C56.1262 44.0202 56.1199 44.0163 56.1014 44.0285C56.0836 44.0401 56.0691 44.0355 56.0691 44.0182C56.0691 44.0009 56.0536 43.9901 56.0348 43.9941C56.0159 43.9982 55.9962 43.9713 55.9908 43.9343C55.9855 43.8972 55.9695 43.8746 55.9552 43.884C55.9409 43.8934 55.9292 43.8806 55.9292 43.8556C55.9292 43.8275 55.9133 43.8168 55.8873 43.8273C55.8617 43.8378 55.811 43.8055 55.7575 43.7447C55.7091 43.6898 55.6507 43.6493 55.6277 43.6546C55.5992 43.6612 55.5914 43.6489 55.6034 43.6159C55.6136 43.5877 55.6093 43.5751 55.5932 43.5857C55.578 43.5956 55.5655 43.5814 55.5655 43.5539C55.5655 43.5138 55.5576 43.5109 55.5255 43.5392C55.4936 43.5673 55.4739 43.5624 55.4299 43.5156C55.3994 43.4832 55.3671 43.4645 55.358 43.474C55.3491 43.4835 55.3417 43.469 55.3417 43.4418C55.3417 43.4146 55.3224 43.3923 55.2989 43.3923C55.2754 43.3923 55.2488 43.3722 55.24 43.3477C55.23 43.3203 55.1876 43.3031 55.1299 43.3031C55.0654 43.3031 55.006 43.2752 54.9404 43.2139C54.8878 43.1649 54.8244 43.1248 54.7995 43.1248C54.7746 43.1248 54.7543 43.1099 54.7543 43.0917C54.7543 43.0702 54.7208 43.0654 54.6585 43.0778C54.5971 43.09 54.5554 43.0843 54.5423 43.0616C54.5283 43.0376 54.5343 43.0341 54.5611 43.0506C54.5835 43.0644 54.5907 43.0636 54.5779 43.0487C54.5656 43.0343 54.5341 43.021 54.508 43.0193C54.3551 43.0089 54.3327 43.0035 54.346 42.9807C54.354 42.9669 54.3092 42.961 54.2464 42.9677C54.1017 42.9831 54.0231 42.9571 54.0836 42.9138C54.1117 42.8937 54.0738 42.8906 53.964 42.9039C53.8532 42.9175 53.8031 42.9132 53.8031 42.8904C53.8031 42.8722 53.7897 42.8573 53.7734 42.8573C53.7572 42.8573 53.7516 42.8706 53.7611 42.887C53.7713 42.9046 53.7394 42.9167 53.6827 42.9167C53.5901 42.9167 53.587 42.913 53.5901 42.8053C53.5921 42.735 53.5813 42.6962 53.5608 42.7003C53.5394 42.7046 53.5307 42.6654 53.5354 42.5862C53.5403 42.5036 53.5301 42.4603 53.5028 42.4493C53.4808 42.4403 53.4688 42.4091 53.4759 42.3799C53.4856 42.3408 53.4769 42.3312 53.4433 42.3437C53.4075 42.357 53.4047 42.3525 53.4301 42.3232C53.4551 42.2944 53.4505 42.2645 53.4105 42.1946C53.3819 42.1445 53.3642 42.0935 53.3714 42.0812C53.3785 42.069 53.3716 42.0505 53.356 42.0402C53.3149 42.0132 53.3209 41.9585 53.3625 41.981C53.3817 41.9914 53.3691 41.9733 53.3344 41.9407C53.2997 41.9082 53.2686 41.847 53.2653 41.8047C53.2621 41.7625 53.2495 41.7278 53.2375 41.7278C53.2255 41.7278 53.2156 41.7126 53.2156 41.6939C53.2156 41.6753 53.1936 41.6423 53.1667 41.6206C53.1207 41.5835 53.1211 41.5809 53.1737 41.5782C53.2252 41.5756 53.2246 41.5733 53.1667 41.5486C53.1304 41.5331 53.1037 41.4961 53.1037 41.4615C53.1037 41.4284 53.0645 41.3616 53.0165 41.3128C52.9625 41.258 52.9356 41.2068 52.9459 41.1784C52.9562 41.1498 52.931 41.1027 52.8792 41.0537C52.8312 41.0083 52.796 40.9452 52.796 40.9046C52.796 40.8594 52.7735 40.8246 52.733 40.8073C52.697 40.792 52.6881 40.7796 52.7121 40.7785C52.7351 40.7774 52.7145 40.7509 52.6662 40.7196C52.559 40.6501 52.5091 40.5786 52.5886 40.6083C52.6387 40.627 52.639 40.6257 52.5932 40.5878C52.5662 40.5655 52.544 40.5287 52.5438 40.5059C52.5434 40.4729 52.5379 40.4735 52.5162 40.5092C52.4946 40.5448 52.489 40.5392 52.4887 40.4819C52.4885 40.4425 52.48 40.4189 52.4699 40.4297C52.4446 40.4566 52.3733 40.39 52.3923 40.3573C52.4008 40.3428 52.3975 40.3309 52.385 40.3309C52.3405 40.3308 52.2085 40.1893 52.2085 40.1416C52.2085 40.1149 52.1952 40.0931 52.1789 40.0931C52.1626 40.0931 52.157 40.1063 52.1663 40.1225C52.1759 40.139 52.1654 40.1445 52.1426 40.1352C52.12 40.126 52.0819 40.076 52.0578 40.0241C52.0337 39.9721 52.0137 39.9413 52.0133 39.9556C52.013 39.9698 51.9939 39.965 51.971 39.9448C51.9481 39.9246 51.9342 39.8995 51.9401 39.8891C51.9577 39.8582 51.8909 39.8096 51.8317 39.8101C51.8013 39.8104 51.7623 39.7804 51.7449 39.7433C51.7275 39.7063 51.7031 39.6661 51.6906 39.6542C51.6782 39.6422 51.6771 39.6491 51.6881 39.6696C51.6992 39.69 51.6971 39.7067 51.6833 39.7067C51.6696 39.7067 51.6419 39.6737 51.6215 39.6335C51.6012 39.5931 51.5733 39.5676 51.5593 39.5767C51.5455 39.5858 51.5115 39.5655 51.4838 39.5317C51.4562 39.4978 51.4256 39.4784 51.416 39.4886C51.4064 39.4988 51.3906 39.4852 51.3809 39.4583C51.3712 39.4315 51.3471 39.4095 51.3273 39.4095C51.3074 39.4095 51.2542 39.3727 51.2089 39.3278C51.1636 39.2828 51.1024 39.246 51.0731 39.246C51.0436 39.246 51.0226 39.2297 51.0262 39.2099C51.0303 39.188 51.0152 39.1811 50.9877 39.1923C50.9591 39.204 50.9223 39.1845 50.8877 39.1392C50.8575 39.0999 50.841 39.0844 50.8509 39.1048C50.8609 39.1253 50.8545 39.142 50.8367 39.142C50.8191 39.142 50.7979 39.1152 50.7899 39.0825C50.7818 39.0499 50.7523 39.0231 50.7242 39.0231C50.6962 39.0231 50.6654 39.0097 50.6559 38.9934C50.6464 38.977 50.6152 38.9637 50.5866 38.9637C50.558 38.9637 50.5283 38.9469 50.5206 38.9265C50.5105 38.8999 50.5058 38.9014 50.5043 38.9317C50.5027 38.9615 50.4809 38.953 50.4305 38.9027C50.3669 38.8392 50.361 38.8378 50.3768 38.89C50.3937 38.9454 50.3924 38.9458 50.354 38.8963C50.3302 38.8655 50.2946 38.8514 50.268 38.8622C50.2397 38.8738 50.2159 38.8618 50.2045 38.8301C50.1909 38.7926 50.1656 38.784 50.1063 38.7966C50.0274 38.8133 49.9939 38.775 50.0614 38.7451C50.0806 38.7366 50.0485 38.7364 49.9901 38.7447C49.9135 38.7555 49.8564 38.7425 49.7856 38.6982C49.7316 38.6643 49.6951 38.65 49.7047 38.6664C49.727 38.7048 49.6502 38.7048 49.5785 38.6664C49.5479 38.6501 49.4964 38.6224 49.464 38.6048C49.422 38.582 49.4105 38.582 49.4237 38.6048C49.4346 38.6236 49.4186 38.6367 49.3847 38.6367C49.353 38.6367 49.3271 38.6224 49.3271 38.6048C49.3271 38.5874 49.2973 38.5771 49.261 38.5822C49.2247 38.5873 49.1743 38.5732 49.1491 38.551C49.1159 38.5217 49.0933 38.5194 49.067 38.5425C49.026 38.5786 48.9039 38.5777 48.925 38.5415C48.9325 38.5285 48.7113 38.5205 48.4335 38.5236C48.1556 38.5267 47.9283 38.54 47.9283 38.5533ZM48.7046 39.5955C48.7238 39.5967 48.7396 39.6084 48.7396 39.6214C48.7396 39.6345 48.834 39.6392 48.9494 39.632C49.103 39.6225 49.1594 39.6287 49.1596 39.6554C49.1599 39.6788 49.1698 39.6759 49.1872 39.6473C49.207 39.6147 49.2144 39.6132 49.2147 39.6417C49.215 39.6632 49.2372 39.6768 49.2641 39.6722C49.291 39.6675 49.3319 39.6761 49.3548 39.6914C49.3778 39.7066 49.4462 39.7234 49.5067 39.7286C49.5672 39.7337 49.6302 39.7485 49.6467 39.7616C49.6633 39.7747 49.7203 39.7882 49.7735 39.7916C49.8268 39.795 49.8772 39.809 49.8854 39.8226C49.8938 39.8362 49.932 39.8578 49.9704 39.8705C50.0088 39.8833 50.055 39.9151 50.073 39.9414C50.0911 39.9675 50.1151 39.9792 50.1263 39.9672C50.1376 39.9552 50.1638 39.9686 50.1846 39.997C50.2195 40.0446 50.2209 40.044 50.2036 39.9891C50.1862 39.9339 50.1887 39.933 50.2385 39.9755C50.268 40.0007 50.33 40.0405 50.3761 40.0639C50.4494 40.1011 50.5444 40.1703 50.6617 40.2719C50.6803 40.288 50.7141 40.3012 50.737 40.3012C50.7598 40.3012 50.7864 40.3148 50.796 40.3314C50.8057 40.348 50.8243 40.3545 50.8374 40.346C50.8505 40.3373 50.8844 40.3616 50.9128 40.3999C50.9411 40.4382 50.9959 40.4779 51.0345 40.4882C51.1215 40.5114 51.2294 40.6152 51.2294 40.6756C51.2294 40.7005 51.2388 40.7146 51.2504 40.7071C51.2619 40.6996 51.3217 40.7402 51.3832 40.7974C51.4448 40.8547 51.4794 40.8927 51.4602 40.8819C51.4409 40.8712 51.4252 40.8702 51.4252 40.8797C51.4252 40.8893 51.4565 40.9097 51.4946 40.9251C51.5442 40.9452 51.5589 40.9675 51.5458 41.0036C51.5344 41.0351 51.5386 41.0467 51.5572 41.0346C51.5734 41.0239 51.6023 41.0351 51.6213 41.0594C51.6403 41.0837 51.6449 41.1039 51.6315 41.1041C51.618 41.1043 51.6385 41.1215 51.677 41.1422C51.7158 41.1632 51.7469 41.2059 51.747 41.2384C51.747 41.2705 51.7627 41.2985 51.782 41.3006C51.8011 41.3026 51.8302 41.3059 51.8465 41.308C51.8628 41.3101 51.8683 41.3251 51.8588 41.3414C51.8493 41.3578 51.8548 41.3712 51.8711 41.3712C51.8874 41.3712 51.9008 41.3914 51.9008 41.416C51.9008 41.4407 51.926 41.4838 51.9567 41.5118C51.9875 41.5398 52.0127 41.5798 52.0127 41.6007C52.0127 41.6216 52.0248 41.6387 52.0395 41.6387C52.0543 41.6387 52.0815 41.6922 52.0999 41.7575C52.1184 41.8229 52.1448 41.8764 52.1586 41.8764C52.1725 41.8764 52.1761 41.8898 52.1665 41.9062C52.157 41.9225 52.1682 41.9359 52.1912 41.9359C52.2184 41.9359 52.2294 41.9572 52.2224 41.9961C52.2163 42.0293 52.2233 42.0485 52.238 42.0389C52.2525 42.0294 52.2664 42.039 52.2687 42.0604C52.2781 42.1463 52.2823 42.1612 52.3137 42.2217C52.3317 42.2564 52.3374 42.2943 52.3264 42.306C52.3155 42.3177 52.319 42.3228 52.3344 42.3173C52.3498 42.3119 52.3645 42.3193 52.367 42.3338C52.3695 42.3484 52.386 42.3697 52.4037 42.3813C52.4213 42.3929 52.4369 42.4443 52.4383 42.4955C52.4397 42.5468 52.4641 42.6111 52.4925 42.6384C52.5509 42.6946 52.5643 42.7839 52.5092 42.7502C52.49 42.7385 52.5026 42.7619 52.5372 42.8024C52.602 42.8781 52.6218 42.9344 52.5722 42.9019C52.5568 42.8917 52.5442 42.8976 52.5442 42.9149C52.5442 42.9322 52.5568 42.9464 52.5722 42.9464C52.5876 42.9464 52.6002 42.9791 52.6002 43.019C52.6002 43.0589 52.6142 43.1007 52.6313 43.112C52.6516 43.1253 52.656 43.1838 52.6439 43.2802C52.6307 43.386 52.6368 43.4465 52.6654 43.4928C52.6874 43.5285 52.7021 43.6107 52.6981 43.6756C52.6942 43.7405 52.7043 43.8203 52.7207 43.853C52.7372 43.8857 52.7524 43.9358 52.7547 43.9644C52.7611 44.0478 52.7867 44.0554 52.8848 44.0034C52.9454 43.9713 52.9805 43.9655 52.9871 43.9867C52.9936 44.0074 53.0087 44.0089 53.0295 43.9907C53.0473 43.9752 53.1247 43.9553 53.2016 43.9465C53.2786 43.9377 53.3793 43.9234 53.4254 43.9146C53.501 43.9002 53.5024 43.9013 53.4394 43.9249C53.3717 43.9502 53.3722 43.9511 53.4587 43.954C53.5078 43.9557 53.5565 43.9424 53.5668 43.9247C53.5803 43.9014 53.5941 43.9014 53.616 43.9247C53.6327 43.9424 53.6872 43.957 53.7371 43.957C53.7869 43.957 53.8356 43.9704 53.8451 43.9867C53.8546 44.0031 53.912 44.0164 53.9726 44.0164C54.0333 44.0164 54.0829 44.0298 54.0829 44.0462C54.0829 44.0625 54.0962 44.0759 54.1125 44.0759C54.1288 44.0759 54.1343 44.0625 54.1248 44.0462C54.1153 44.0298 54.1208 44.0164 54.1371 44.0164C54.1534 44.0164 54.1668 44.0298 54.1668 44.0462C54.1668 44.0625 54.1957 44.0759 54.2311 44.0759C54.2665 44.0759 54.3087 44.0899 54.3248 44.107C54.3409 44.1242 54.3844 44.1419 54.4213 44.1465C54.5228 44.159 54.5882 44.1973 54.5679 44.2322C54.5577 44.2497 54.5631 44.2547 54.5802 44.2434C54.5968 44.2325 54.6184 44.2371 54.6281 44.2537C54.6377 44.2703 54.6582 44.2839 54.6736 44.2839C54.689 44.2839 54.6926 44.2685 54.6817 44.2496C54.6692 44.2282 54.674 44.2234 54.6945 44.2368C54.7124 44.2486 54.7199 44.2708 54.7111 44.286C54.7022 44.3012 54.7209 44.3137 54.7526 44.3137C54.7843 44.3137 54.8102 44.3258 54.8102 44.3408C54.8102 44.3556 54.8315 44.3645 54.8576 44.3605C54.8836 44.3564 54.9399 44.391 54.9825 44.4374C55.0252 44.4837 55.0807 44.5217 55.106 44.5217C55.134 44.5217 55.146 44.5381 55.1368 44.5635C55.1202 44.6095 55.4371 44.9287 55.4854 44.9148C55.501 44.9103 55.5057 44.9204 55.496 44.9371C55.4863 44.9539 55.496 44.9675 55.5174 44.9675C55.5556 44.9675 55.6205 45.0832 55.6225 45.1547C55.623 45.1743 55.6559 45.2306 55.6955 45.2796C55.7351 45.3287 55.7591 45.3521 55.7488 45.3316C55.7385 45.3112 55.7449 45.2945 55.763 45.2945C55.7831 45.2945 55.7906 45.3238 55.7823 45.3698C55.7749 45.4112 55.7753 45.4382 55.7833 45.4297C55.8052 45.4064 55.8714 45.5101 55.8724 45.5694C55.8729 45.598 55.8859 45.6214 55.9012 45.6214C55.9166 45.6214 55.9292 45.6425 55.9292 45.6682C55.9292 45.6938 55.9475 45.7343 55.97 45.7582C55.9924 45.782 56.0036 45.8212 55.995 45.8452C55.9859 45.8704 55.9953 45.8892 56.0171 45.8894C56.0464 45.8898 56.0455 45.8964 56.0131 45.9187C55.9852 45.9378 55.9829 45.9476 56.0062 45.9479C56.0254 45.9482 56.0415 45.9718 56.042 46.0004C56.0425 46.029 56.0604 46.0769 56.0817 46.1068C56.1031 46.1367 56.115 46.1936 56.1083 46.2331C56.1015 46.2727 56.1088 46.305 56.1245 46.305C56.1402 46.305 56.153 46.3326 56.153 46.3663C56.153 46.4049 56.1411 46.4196 56.1207 46.4062C56.0986 46.3917 56.0962 46.3981 56.113 46.4268C56.1481 46.4866 56.1475 47.2026 56.1122 47.2544C56.0905 47.2864 56.092 47.2916 56.1181 47.275C56.1373 47.2627 56.153 47.2668 56.153 47.2841C56.153 47.3014 56.1373 47.3158 56.1181 47.316C56.0948 47.3163 56.0971 47.3261 56.125 47.3453C56.153 47.3645 56.1553 47.3743 56.132 47.3746C56.1128 47.3748 56.0971 47.4085 56.0971 47.4494C56.0971 47.4902 56.0845 47.5237 56.0691 47.5237C56.0537 47.5237 56.0411 47.5378 56.0411 47.5552C56.0411 47.5725 56.0537 47.5783 56.0691 47.5682C56.0845 47.5581 56.0971 47.564 56.0971 47.5813C56.0971 47.5986 56.0845 47.6128 56.0691 47.6128C56.0537 47.6128 56.0411 47.6385 56.0411 47.6698C56.0411 47.7011 56.0254 47.7345 56.0062 47.7441C55.9787 47.7577 55.9792 47.7653 56.0081 47.7795C56.0355 47.7929 56.0299 47.8088 55.9864 47.8412C55.9541 47.8652 55.9296 47.9005 55.9318 47.9197C55.9423 48.0103 55.9265 48.0901 55.9012 48.0735C55.8859 48.0634 55.8733 48.0819 55.8733 48.1147C55.8733 48.1474 55.8453 48.195 55.8111 48.2204C55.7769 48.2459 55.7604 48.2667 55.7744 48.2667C55.7885 48.2667 55.7756 48.2868 55.7457 48.3114C55.7005 48.3486 55.6995 48.353 55.7404 48.3379C55.8001 48.3158 55.807 48.3802 55.7475 48.4045C55.7246 48.4139 55.714 48.4358 55.7242 48.4532C55.7356 48.4729 55.7254 48.4779 55.6969 48.4662C55.6718 48.456 55.6438 48.4604 55.6347 48.476C55.6256 48.4917 55.6337 48.5045 55.6527 48.5045C55.6725 48.5045 55.6612 48.5338 55.6264 48.5733C55.5929 48.6111 55.5655 48.6579 55.5655 48.6773C55.5655 48.6967 55.5459 48.7125 55.5219 48.7125C55.4979 48.7125 55.4861 48.7259 55.4956 48.7423C55.5051 48.7586 55.4885 48.772 55.4587 48.772C55.429 48.772 55.3889 48.792 55.3697 48.8166C55.3276 48.8704 55.3707 48.8762 55.4257 48.824C55.4591 48.7924 55.4594 48.7946 55.4279 48.8389C55.4075 48.8675 55.3727 48.8909 55.3506 48.8909C55.3271 48.8909 55.3188 48.9053 55.3307 48.9257C55.3444 48.9492 55.3355 48.9542 55.3033 48.941C55.2738 48.929 55.2496 48.9384 55.2398 48.9655C55.2311 48.9896 55.2105 49.0006 55.1942 48.9899C55.1755 48.9776 55.171 48.9887 55.1822 49.0197C55.1921 49.0471 55.1865 49.0692 55.1698 49.0692C55.1531 49.0692 55.0969 49.1186 55.0448 49.179C54.9927 49.2394 54.9501 49.2733 54.9501 49.2543C54.9501 49.2353 54.932 49.227 54.9099 49.2361C54.8878 49.2451 54.8765 49.2714 54.8849 49.2946C54.8933 49.3178 54.8862 49.3367 54.8692 49.3367C54.8521 49.3367 54.8372 49.32 54.8359 49.2996C54.8342 49.2701 54.8308 49.2701 54.8196 49.2997C54.8118 49.3203 54.7938 49.3294 54.7796 49.3201C54.7655 49.3109 54.7463 49.3242 54.7371 49.3497C54.7278 49.3753 54.7028 49.3962 54.6813 49.3962C54.6599 49.3962 54.6424 49.4103 54.6424 49.4277C54.6424 49.445 54.6312 49.4518 54.6175 49.4428C54.6039 49.4338 54.5773 49.4463 54.5584 49.4705C54.5368 49.4982 54.4994 49.5079 54.4573 49.4967C54.4077 49.4835 54.3906 49.4911 54.3906 49.5267C54.3906 49.5529 54.3853 49.5745 54.3789 49.5745C54.3725 49.5745 54.3441 49.5824 54.316 49.5922C54.2733 49.6068 54.2718 49.6044 54.3067 49.5778C54.3416 49.5511 54.338 49.5456 54.2857 49.5452C54.2511 49.545 54.2227 49.5581 54.2227 49.5745C54.2227 49.5908 54.2038 49.6042 54.1808 49.6042C54.1577 49.6042 54.1388 49.6176 54.1388 49.6339C54.1388 49.6503 54.101 49.6637 54.0549 49.6637C54.0087 49.6637 53.971 49.677 53.971 49.6934C53.971 49.7097 53.945 49.7231 53.9133 49.7231C53.8812 49.7231 53.8635 49.7096 53.8735 49.6926C53.8932 49.6587 53.826 49.6659 53.8018 49.7002C53.7719 49.7426 53.0981 49.7318 53.0724 49.6885C53.0532 49.6565 53.0485 49.6575 53.0478 49.6934C53.047 49.733 53.0439 49.733 53.0198 49.6934C53.0018 49.6637 52.9925 49.6612 52.9922 49.6859C52.9917 49.735 38.5145 49.7412 38.486 49.6922C38.476 49.6752 38.447 49.6683 38.4213 49.677C38.3957 49.6856 38.3397 49.6733 38.2969 49.6497C38.2541 49.6261 38.2265 49.6195 38.2356 49.6352C38.2603 49.6776 38.2335 49.6702 38.1217 49.6035C38.0663 49.5704 38.0289 49.557 38.0387 49.5738C38.0581 49.6073 37.9555 49.5997 37.9232 49.5653C37.9125 49.5541 37.8808 49.5448 37.8525 49.5448C37.8243 49.5448 37.8013 49.5309 37.8013 49.5141C37.8013 49.4973 37.7603 49.4857 37.7103 49.4884C37.6235 49.4932 37.4518 49.4207 37.4798 49.391C37.4871 49.3831 37.4554 49.3827 37.4094 49.3898C37.3555 49.3982 37.3257 49.39 37.3257 49.3667C37.3257 49.3461 37.3445 49.338 37.3691 49.3481C37.3959 49.359 37.4054 49.3535 37.3939 49.3338C37.3837 49.3162 37.352 49.3083 37.3235 49.3162C37.295 49.3242 37.2743 49.3162 37.2777 49.2987C37.281 49.2811 37.2459 49.2525 37.1998 49.2352C37.1536 49.2179 37.1061 49.1874 37.0941 49.1674C37.0822 49.1475 37.0539 49.1387 37.0312 49.1479C36.9951 49.1626 36.9777 49.1307 36.9857 49.0648C36.987 49.0543 36.9635 49.0524 36.9335 49.0607C36.895 49.0714 36.871 49.0554 36.8516 49.0057C36.819 48.9225 36.7538 48.8314 36.7269 48.8314C36.7164 48.8314 36.6801 48.8039 36.6461 48.7701C36.5885 48.713 36.588 48.7101 36.6403 48.7276C36.6924 48.7451 36.6922 48.7437 36.6374 48.7072C36.605 48.6856 36.5846 48.6494 36.5921 48.6266C36.5995 48.604 36.5938 48.5931 36.5796 48.6024C36.5652 48.6119 36.5375 48.5922 36.518 48.5589C36.4931 48.5167 36.4923 48.5049 36.5152 48.5199C36.5333 48.5318 36.5273 48.5075 36.5016 48.4661C36.476 48.4245 36.4342 48.382 36.4086 48.3716C36.3685 48.3553 36.3678 48.3488 36.4033 48.325C36.4378 48.3018 36.4366 48.2972 36.3955 48.2969C36.3654 48.2966 36.3465 48.2736 36.3465 48.237C36.3465 48.2043 36.3332 48.1775 36.3169 48.1775C36.3006 48.1775 36.2951 48.1642 36.3046 48.1478C36.3141 48.1315 36.307 48.1181 36.2888 48.1181C36.2655 48.1181 36.2671 48.1033 36.2942 48.0678C36.3153 48.0402 36.3182 48.0266 36.3007 48.0378C36.264 48.0612 36.2197 47.9414 36.1981 47.7601C36.1931 47.7185 36.1786 47.6664 36.1658 47.6443C36.153 47.6223 36.1434 47.5658 36.1447 47.5188C36.1461 47.4672 36.1356 47.4409 36.1181 47.4524C36.0987 47.4651 36.0978 47.4531 36.1155 47.4158C36.1504 47.3421 36.1549 47.0481 36.1212 47.0481C36.1067 47.0481 36.0948 47.0339 36.0948 47.0166C36.0948 46.9993 36.1074 46.9934 36.1227 47.0035C36.1394 47.0144 36.1507 46.9791 36.1507 46.9161C36.1507 46.8577 36.1648 46.8103 36.1821 46.8103C36.2038 46.8103 36.2028 46.7966 36.1787 46.7657C36.1508 46.73 36.1511 46.7212 36.18 46.7212C36.1997 46.7212 36.2082 46.7129 36.1987 46.7028C36.1892 46.6927 36.2055 46.6171 36.235 46.5347C36.2644 46.4523 36.2819 46.3737 36.2739 46.3599C36.2659 46.3461 36.2726 46.3348 36.2889 46.3348C36.3052 46.3348 36.3186 46.3139 36.3186 46.2884C36.3186 46.261 36.3317 46.2507 36.3509 46.2633C36.3686 46.275 36.376 46.2721 36.3672 46.257C36.3473 46.2229 36.4417 46 36.4654 46.0251C36.4749 46.0352 36.4758 46.0156 36.4674 45.9816C36.4559 45.935 36.4696 45.9127 36.5225 45.8913C36.5613 45.8756 36.6024 45.8466 36.6139 45.8267C36.6273 45.8037 36.6232 45.7983 36.6027 45.8118C36.5838 45.8242 36.5703 45.8146 36.5703 45.7887C36.5703 45.7642 36.5957 45.7358 36.6267 45.7253C36.6577 45.7148 36.6758 45.6939 36.667 45.6787C36.6582 45.6636 36.6706 45.6512 36.6946 45.6512C36.7185 45.6512 36.7382 45.6303 36.7382 45.6048C36.7382 45.5793 36.7508 45.5667 36.7662 45.5768C36.7816 45.587 36.7941 45.5736 36.7941 45.5471C36.7941 45.5206 36.8076 45.5078 36.824 45.5187C36.8405 45.5295 36.8609 45.5096 36.8696 45.4742C36.8787 45.4373 36.9009 45.4164 36.9219 45.4249C36.942 45.4331 36.9625 45.4305 36.9676 45.4192C36.9726 45.4078 37.0257 45.3517 37.0855 45.2945C37.1453 45.2373 37.1852 45.2072 37.1743 45.2276C37.1634 45.248 37.1678 45.2648 37.1841 45.2648C37.2004 45.2648 37.2138 45.2439 37.2138 45.2184C37.2138 45.1929 37.225 45.1795 37.2388 45.1885C37.2526 45.1976 37.2716 45.1836 37.281 45.1575C37.2908 45.1304 37.3161 45.1173 37.3399 45.127C37.3644 45.137 37.3816 45.1272 37.3816 45.1032C37.3816 45.0769 37.4041 45.0667 37.4446 45.0747C37.4792 45.0815 37.4911 45.0789 37.4711 45.0689C37.4099 45.0384 37.5254 44.97 37.6084 44.9875C37.6603 44.9985 37.6866 44.9885 37.6996 44.9525C37.71 44.9235 37.7353 44.9091 37.7587 44.9187C37.7813 44.9278 37.8189 44.9149 37.8424 44.8898C37.8815 44.8484 37.8971 44.8571 37.8885 44.9155C37.8867 44.9278 37.8978 44.9378 37.9132 44.9378C37.9285 44.9378 37.9411 44.9178 37.9411 44.8932C37.9411 44.8687 37.9506 44.8476 37.9621 44.8464C38.0783 44.8337 38.1572 44.8378 38.1467 44.856C38.1395 44.8682 38.1668 44.8649 38.2071 44.8486C38.3014 44.8105 38.3603 44.8105 38.3048 44.8487C38.2745 44.8695 38.2996 44.8776 38.3957 44.8779C38.4688 44.8782 38.5286 44.8678 38.5286 44.855C38.5286 44.8421 38.5541 44.8296 38.5852 44.827C38.6202 44.8243 38.6344 44.8351 38.6225 44.8555C38.6101 44.8769 38.6198 44.8818 38.6502 44.8694C38.6759 44.8589 38.7314 44.8658 38.7736 44.8848C38.8158 44.9037 38.8881 44.9218 38.9343 44.925C38.9804 44.9282 39.0371 44.9357 39.0601 44.9418C39.0953 44.9509 39.1029 44.8998 39.1069 44.6257C39.1159 44.0029 39.1256 43.8979 39.1799 43.836C39.2079 43.8041 39.2228 43.7641 39.213 43.7472C39.2032 43.7304 39.2152 43.6842 39.2396 43.6446C39.2639 43.6051 39.2839 43.5321 39.2839 43.4825C39.2839 43.4328 39.2935 43.3923 39.3052 43.3923C39.3169 43.3923 39.343 43.3641 39.3632 43.3297C39.3834 43.2953 39.3865 43.2761 39.37 43.2869C39.3119 43.325 39.3406 43.2503 39.4028 43.2013C39.4375 43.174 39.45 43.1598 39.4308 43.1697C39.3746 43.1986 39.39 43.0997 39.4504 43.0449C39.4803 43.0176 39.4972 42.982 39.4877 42.9658C39.4775 42.9482 39.49 42.9443 39.5186 42.9559C39.545 42.9666 39.5597 42.9636 39.5512 42.9491C39.5429 42.9346 39.5733 42.8802 39.619 42.8282C39.6648 42.7763 39.6995 42.7248 39.6964 42.7138C39.6868 42.6806 39.7973 42.56 39.8374 42.56C39.8579 42.56 39.8669 42.5467 39.8574 42.5303C39.8479 42.514 39.8594 42.5006 39.8829 42.5006C39.9077 42.5006 39.9194 42.4834 39.9108 42.4596C39.893 42.4104 40.0333 42.2851 40.0753 42.3127C40.0935 42.3246 40.098 42.3134 40.0872 42.2835C40.0666 42.2265 40.1203 42.18 40.1493 42.2298C40.1621 42.2519 40.1826 42.2373 40.2071 42.1885C40.2347 42.1338 40.2513 42.1234 40.2677 42.1508C40.2854 42.1805 40.2903 42.1806 40.2906 42.1514C40.2908 42.1309 40.3092 42.1142 40.3313 42.1142C40.3535 42.1142 40.3794 42.101 40.3888 42.0849C40.3988 42.0676 40.3849 42.0625 40.3555 42.0724C40.3104 42.0875 40.3108 42.0843 40.3593 42.0424C40.3892 42.0165 40.4302 41.9953 40.4502 41.9953C40.4704 41.9953 40.4869 41.9811 40.4869 41.9638C40.4869 41.9465 40.5 41.941 40.5161 41.9516C40.5321 41.9621 40.5636 41.9545 40.5861 41.9348C40.6084 41.9151 40.6268 41.9087 40.6268 41.9206C40.6268 41.9327 40.6529 41.9109 40.6848 41.8723C40.7168 41.8337 40.735 41.8188 40.7252 41.8393C40.7154 41.8597 40.7207 41.8764 40.737 41.8764C40.7533 41.8764 40.7666 41.8568 40.7666 41.8328C40.7666 41.8062 40.7831 41.7958 40.8086 41.8062C40.8317 41.8157 40.8506 41.8075 40.8506 41.7881C40.8506 41.7648 40.8776 41.7591 40.93 41.7714C40.9834 41.7839 41.0207 41.7755 41.0437 41.7461C41.0625 41.722 41.1027 41.7073 41.1328 41.7135C41.163 41.7197 41.1804 41.7121 41.1714 41.6965C41.1543 41.6672 41.1877 41.6585 41.2866 41.6666C41.3187 41.6692 41.3611 41.6506 41.3809 41.6253C41.4209 41.5742 41.522 41.5624 41.522 41.6089C41.522 41.6253 41.4999 41.6397 41.473 41.641C41.4422 41.6424 41.4374 41.6491 41.4599 41.6586C41.4797 41.6671 41.5133 41.6586 41.5346 41.6399C41.591 41.5901 42.1045 41.5821 42.122 41.6307C42.1295 41.6514 42.162 41.6684 42.1941 41.6684C42.2263 41.6684 42.2455 41.6561 42.2368 41.6412C42.2211 41.6142 42.3591 41.6531 42.4508 41.7014C42.4775 41.7155 42.5053 41.715 42.5138 41.7003C42.5224 41.6856 42.5591 41.689 42.5966 41.7078C42.6338 41.7265 42.657 41.7541 42.6482 41.7691C42.6392 41.7847 42.6598 41.789 42.6954 41.7791C42.7301 41.7694 42.7918 41.7759 42.8326 41.7934C43.0363 41.8811 43.0932 41.9142 43.1073 41.953C43.1156 41.9763 43.1401 41.9953 43.1615 41.9953C43.1829 41.9953 43.2007 42.012 43.2009 42.0325C43.2012 42.0572 43.2104 42.0548 43.2285 42.025C43.2434 42.0005 43.2573 41.9905 43.2595 42.0028C43.2617 42.015 43.2666 42.0384 43.2704 42.0548C43.2743 42.0711 43.279 42.0939 43.2809 42.1053C43.2829 42.1167 43.2991 42.1105 43.317 42.0915C43.3418 42.0652 43.3618 42.072 43.4009 42.1199C43.4292 42.1544 43.4523 42.1719 43.4523 42.1587C43.4523 42.1455 43.4772 42.1586 43.5076 42.1879C43.5379 42.2171 43.5549 42.2547 43.5452 42.2714C43.5355 42.2881 43.5412 42.2928 43.5579 42.2818C43.5749 42.2706 43.6102 42.3011 43.6377 42.3504C43.6744 42.4164 43.6959 42.431 43.7223 42.4076C43.7494 42.3838 43.7551 42.3912 43.7465 42.4385C43.7378 42.4862 43.7495 42.5007 43.7966 42.501C43.8464 42.5014 43.8501 42.5069 43.8159 42.5303C43.7799 42.5551 43.7808 42.5592 43.8222 42.5596C43.8487 42.5598 43.8887 42.5975 43.911 42.6433C43.9333 42.6892 43.9827 42.7515 44.0209 42.782C44.0591 42.8125 44.0848 42.8527 44.0781 42.8715C44.0713 42.8903 44.0911 42.9299 44.122 42.9597C44.153 42.9895 44.1719 43.0248 44.1642 43.0381C44.1434 43.0738 44.2523 43.1275 44.3033 43.1067C44.3274 43.0968 44.3408 43.0777 44.3328 43.0643C44.325 43.0508 44.3316 43.0311 44.3475 43.0207C44.3633 43.0103 44.3696 42.9903 44.3615 42.9762C44.3533 42.962 44.3596 42.942 44.3754 42.9316C44.3913 42.9212 44.3971 42.9001 44.3882 42.8849C44.3794 42.8698 44.3862 42.8573 44.4034 42.8573C44.4206 42.8573 44.4264 42.8431 44.4163 42.8257C44.4062 42.8083 44.4205 42.7676 44.448 42.7353C44.4964 42.6784 44.4963 42.677 44.4438 42.6949C44.3909 42.713 44.3908 42.7123 44.4419 42.6679C44.4739 42.6401 44.4874 42.6031 44.4766 42.5731C44.4636 42.5373 44.4704 42.5285 44.501 42.5409C44.5243 42.5505 44.5433 42.5464 44.5433 42.5319C44.5433 42.5174 44.5318 42.5011 44.5176 42.4956C44.4727 42.4783 44.5193 42.3249 44.5751 42.3061C44.6046 42.2962 44.6269 42.2723 44.6246 42.2532C44.616 42.1786 44.6284 42.1413 44.6559 42.1592C44.6716 42.1696 44.6827 42.167 44.6806 42.1536C44.6662 42.0658 44.6946 41.9906 44.7724 41.9097C44.8274 41.8526 44.8462 41.8168 44.8214 41.8165C44.7874 41.8162 44.7877 41.8116 44.823 41.7873C44.8461 41.7714 44.8547 41.7582 44.8421 41.758C44.8295 41.7578 44.8453 41.7187 44.8771 41.6712C44.9089 41.6237 44.9349 41.5767 44.9349 41.5667C44.9349 41.5566 45.0105 41.4686 45.1028 41.3712C45.1951 41.2737 45.2706 41.1738 45.2706 41.1491C45.2706 41.0992 45.354 40.9848 45.3905 40.9848C45.4033 40.9848 45.4053 41.0015 45.3948 41.0219C45.3843 41.0424 45.4135 41.019 45.4596 40.9699C45.5057 40.9209 45.538 40.8707 45.5312 40.8585C45.5246 40.8462 45.5324 40.8362 45.5487 40.8362C45.565 40.8362 45.5784 40.8178 45.5784 40.7953C45.5784 40.7729 45.6162 40.7464 45.6625 40.7365C45.7096 40.7266 45.7435 40.702 45.7394 40.6808C45.7355 40.66 45.748 40.6463 45.7672 40.6504C45.7864 40.6545 45.799 40.6411 45.7952 40.6207C45.7913 40.6002 45.8123 40.5834 45.8418 40.5834C45.8713 40.5833 45.9008 40.5665 45.9072 40.5461C45.9136 40.5256 45.9323 40.5177 45.9488 40.5285C45.9658 40.5397 45.9706 40.5342 45.9599 40.5158C45.9367 40.4759 46.0516 40.3859 46.0935 40.4112C46.1102 40.4213 46.1147 40.4187 46.1034 40.4055C46.0703 40.3665 46.2137 40.246 46.3179 40.2253C46.3862 40.2116 46.4093 40.1938 46.3982 40.163C46.386 40.1294 46.3988 40.1241 46.4558 40.1393C46.5101 40.1538 46.5337 40.1459 46.5471 40.1089C46.5636 40.0632 46.6859 39.989 46.7297 39.9982C46.7398 40.0003 46.7633 39.9824 46.7821 39.9584C46.8008 39.9344 46.8436 39.9148 46.8771 39.9148C46.9106 39.9148 46.9531 39.8987 46.9715 39.8791C46.9976 39.8514 47.0052 39.853 47.0055 39.8865C47.0058 39.9161 47.0124 39.9189 47.0265 39.8955C47.0378 39.8767 47.0723 39.8566 47.103 39.8509C47.1338 39.8451 47.1653 39.8338 47.173 39.8256C47.2082 39.7882 47.3166 39.7355 47.3001 39.7639C47.2899 39.7815 47.2949 39.7959 47.3112 39.7959C47.3275 39.7959 47.3408 39.7825 47.3408 39.7662C47.3408 39.7498 47.3712 39.7364 47.4085 39.7364C47.4456 39.7364 47.4824 39.7197 47.4902 39.6993C47.5009 39.6713 47.5117 39.6731 47.5341 39.7067C47.5505 39.7313 47.5639 39.7361 47.5642 39.7175C47.5647 39.6794 47.6839 39.6476 47.8764 39.634C47.9478 39.6291 48.0202 39.6158 48.0373 39.6046C48.0543 39.5935 48.0682 39.5985 48.0682 39.6158C48.0682 39.6331 48.0996 39.6473 48.1381 39.6473C48.1766 39.6473 48.2081 39.6367 48.2081 39.6239C48.2081 39.611 48.2483 39.5972 48.2975 39.5933C48.3467 39.5892 48.3939 39.5785 48.4024 39.5692C48.4109 39.56 48.4745 39.5616 48.5438 39.5728C48.613 39.5841 48.6854 39.5943 48.7046 39.5955ZM51.0957 40.5845C51.1375 40.6313 51.1767 40.6635 51.1829 40.6563C51.189 40.6489 51.1548 40.6106 51.1068 40.5712L51.0196 40.4995L51.0957 40.5845ZM41.9939 44.6347C41.9632 44.6576 41.9125 44.6691 41.8812 44.6604C41.8498 44.6517 41.831 44.6518 41.8392 44.6607C41.8594 44.6821 41.7508 44.8041 41.7115 44.8041C41.6944 44.8041 41.6782 44.8368 41.6754 44.8769C41.6726 44.9169 41.6572 44.9543 41.6411 44.96C41.625 44.9658 41.6188 44.9986 41.6272 45.0331C41.6378 45.0758 41.6324 45.089 41.6103 45.0745C41.5476 45.0333 41.5694 45.4221 41.6339 45.4957C41.6956 45.566 41.7079 45.6071 41.6575 45.574C41.6374 45.5608 41.6328 45.5659 41.6455 45.5876C41.6566 45.6067 41.6774 45.6147 41.6918 45.6053C41.706 45.5959 41.7178 45.6023 41.7178 45.6197C41.7178 45.637 41.7358 45.6512 41.7579 45.6512C41.7799 45.6512 41.8059 45.6779 41.8157 45.7106C41.8255 45.7433 41.852 45.77 41.8747 45.77C41.8974 45.77 41.943 45.7968 41.976 45.8295C42.009 45.8622 42.0494 45.8887 42.0657 45.8885C42.0821 45.8883 42.0766 45.875 42.0535 45.8592C41.9892 45.8151 42.0709 45.8221 42.1394 45.8666C42.1875 45.8979 42.2008 45.8957 42.2239 45.8525C42.2426 45.8175 42.2777 45.8044 42.3343 45.8114C42.3799 45.8171 42.4172 45.8101 42.4172 45.7959C42.4172 45.7816 42.4494 45.77 42.4888 45.77C42.5282 45.77 42.5536 45.7584 42.5453 45.7442C42.5263 45.7116 42.6103 45.609 42.6777 45.5824C42.7056 45.5714 42.7213 45.55 42.7125 45.5349C42.7036 45.5197 42.7163 45.4862 42.7406 45.4603C42.765 45.4345 42.7709 45.4134 42.7539 45.4134C42.732 45.4134 42.7313 45.3967 42.7519 45.3559C42.8253 45.2102 42.7675 44.9591 42.6286 44.8205C42.5902 44.7822 42.5667 44.7361 42.5764 44.718C42.5861 44.7 42.584 44.6948 42.5719 44.7064C42.5596 44.7181 42.523 44.7119 42.4904 44.6927C42.4578 44.6734 42.4202 44.6611 42.4068 44.6652C42.3933 44.6694 42.3891 44.6541 42.3972 44.6314C42.4181 44.5738 42.072 44.5767 41.9939 44.6347ZM43.3794 44.6159C43.3717 44.6291 43.3881 44.6314 43.4158 44.6211C43.4512 44.6078 43.4579 44.6118 43.4383 44.6344C43.4229 44.6522 43.3734 44.6738 43.3283 44.6824C43.2832 44.6911 43.2266 44.7211 43.2024 44.7495C43.1619 44.7969 43.1624 44.7978 43.2081 44.7611C43.2511 44.7266 43.2554 44.7278 43.2401 44.7701C43.2304 44.797 43.2 44.8189 43.1726 44.8189C43.1145 44.8189 43.091 44.9225 43.0714 45.2648C43.0624 45.422 43.067 45.4745 43.0872 45.4431C43.1099 45.4075 43.1158 45.4145 43.1161 45.4778C43.1167 45.5823 43.1442 45.6549 43.1754 45.6344C43.1892 45.6253 43.2005 45.6387 43.2005 45.6642C43.2005 45.6897 43.2162 45.7073 43.2354 45.7032C43.2547 45.6991 43.2669 45.7137 43.2626 45.7357C43.2583 45.7576 43.2708 45.7697 43.2906 45.7626C43.3102 45.7555 43.3767 45.7832 43.4383 45.8242C43.5069 45.8699 43.5353 45.8796 43.5118 45.8493C43.4789 45.8069 43.4795 45.7998 43.5158 45.7998C43.5391 45.7998 43.5654 45.8198 43.5743 45.8444C43.5921 45.8936 43.704 45.9065 43.704 45.8592C43.704 45.8429 43.7237 45.8295 43.7477 45.8295C43.7724 45.8295 43.783 45.8438 43.7722 45.8623C43.7617 45.8803 43.7856 45.8725 43.8252 45.8449C43.8651 45.8172 43.9136 45.8046 43.9336 45.8169C43.9535 45.829 43.9605 45.8281 43.949 45.8147C43.9224 45.7834 43.9819 45.7058 44.0156 45.728C44.0297 45.7372 44.0376 45.7273 44.0334 45.7061C44.0292 45.6848 44.0541 45.6628 44.0887 45.6572C44.1233 45.6516 44.1516 45.6338 44.1516 45.6176C44.1516 45.6014 44.1391 45.5965 44.1237 45.6066C44.1083 45.6167 44.0957 45.614 44.0957 45.6006C44.0957 45.5873 44.1209 45.5596 44.1516 45.5392C44.1838 45.5178 44.2076 45.4699 44.2076 45.4262C44.2076 45.3845 44.2193 45.3582 44.2337 45.3676C44.2498 45.3782 44.2506 45.3501 44.2357 45.2951C44.219 45.233 44.2212 45.2053 44.2431 45.2053C44.2656 45.2053 44.2649 45.1949 44.2412 45.1697C44.2227 45.15 44.2076 45.1032 44.2076 45.0656C44.2076 45.028 44.195 44.9973 44.1796 44.9973C44.1642 44.9973 44.1516 44.9723 44.1516 44.9418C44.1516 44.9114 44.1269 44.853 44.0966 44.8121C44.0663 44.7712 44.0506 44.7263 44.0616 44.7125C44.0727 44.6986 44.0579 44.7067 44.0287 44.7305C43.9793 44.7709 43.9771 44.7689 43.9956 44.6998C44.011 44.6422 44.0087 44.6357 43.9851 44.6703C43.9587 44.709 43.9492 44.7071 43.9123 44.6558C43.8678 44.5937 43.4121 44.5597 43.3794 44.6159ZM44.8755 44.596C44.8735 44.6042 44.8689 44.6243 44.865 44.6406C44.8612 44.6569 44.8565 44.6786 44.8545 44.6888C44.8526 44.699 44.834 44.6924 44.8133 44.674C44.7762 44.6413 44.6585 44.7365 44.6762 44.7849C44.68 44.7955 44.6716 44.8041 44.6575 44.8041C44.6144 44.8041 44.6021 44.8316 44.5949 44.9444C44.5911 45.0041 44.578 45.0462 44.5657 45.0382C44.5534 45.0301 44.5433 45.1112 44.5433 45.2184C44.5433 45.3502 44.5541 45.4134 44.5769 45.4134C44.6012 45.4134 44.602 45.4223 44.5797 45.446C44.5409 45.4872 44.6186 45.6436 44.6902 45.6681C44.7171 45.6773 44.7393 45.7074 44.7395 45.7349C44.7399 45.7781 44.7437 45.7788 44.7671 45.7403C44.782 45.7158 44.7944 45.7109 44.7947 45.7294C44.7951 45.7607 44.8943 45.8103 44.9419 45.803C44.9535 45.8012 44.9629 45.8172 44.9629 45.8385C44.9629 45.8848 45.1504 45.8977 45.1763 45.8531C45.1873 45.8342 45.2018 45.8371 45.2157 45.8608C45.2329 45.8904 45.2471 45.8885 45.2816 45.8518C45.3063 45.8256 45.3504 45.812 45.3821 45.8207C45.4131 45.8293 45.4385 45.8235 45.4385 45.8079C45.4385 45.7921 45.4705 45.7404 45.5095 45.6929C45.5638 45.6269 45.5765 45.6206 45.5637 45.666C45.5544 45.6987 45.5684 45.6853 45.5947 45.6363C45.621 45.5873 45.6543 45.539 45.6687 45.5289C45.6832 45.519 45.694 45.5022 45.6927 45.4918C45.6746 45.3484 45.6957 45.1159 45.7252 45.1336C45.7532 45.1504 45.7532 45.1466 45.7252 45.1146C45.706 45.0925 45.6903 45.0505 45.6903 45.021C45.6903 44.9916 45.6646 44.9403 45.6333 44.907C45.6019 44.8737 45.584 44.8333 45.5934 44.8171C45.6029 44.801 45.5938 44.7914 45.5735 44.7959C45.5519 44.8007 45.5398 44.7826 45.5445 44.7525C45.5505 44.7148 45.5398 44.7062 45.5051 44.7204C45.4726 44.7336 45.4364 44.7123 45.3908 44.653C45.3542 44.6053 45.3262 44.5797 45.3287 44.596C45.3386 44.6607 45.3244 44.683 45.2997 44.6415C45.2705 44.5924 44.9629 44.5662 44.9629 44.6129C44.9629 44.6281 44.9409 44.6404 44.914 44.6402C44.8721 44.6398 44.8711 44.6355 44.907 44.6109C44.9349 44.5917 44.9373 44.5819 44.914 44.5816C44.8947 44.5814 44.8775 44.5878 44.8755 44.596ZM46.4596 44.7892C46.4691 44.8056 46.4573 44.8189 46.4333 44.8189C46.4093 44.8189 46.3897 44.8331 46.3897 44.8504C46.3897 44.8678 46.3785 44.8746 46.3648 44.8656C46.3512 44.8566 46.3245 44.8692 46.3055 44.8935C46.2864 44.9179 46.2819 44.9383 46.2953 44.9388C46.3087 44.9394 46.2891 44.9669 46.2516 45C46.1725 45.07 46.151 45.3407 46.214 45.4728C46.2335 45.5137 46.2495 45.531 46.2496 45.5113C46.2497 45.4916 46.2806 45.5082 46.3182 45.5482C46.3587 45.5912 46.4043 45.6136 46.4301 45.6031C46.454 45.5933 46.4736 45.6003 46.4736 45.6186C46.4736 45.6428 47.0388 45.6516 48.5589 45.6508C49.9065 45.65 50.6384 45.6394 50.6275 45.6207C50.6182 45.6048 50.6421 45.5917 50.6806 45.5917C50.719 45.5917 50.7582 45.5785 50.7676 45.5624C50.7777 45.5449 50.7652 45.5409 50.7367 45.5526C50.7041 45.5658 50.6952 45.5609 50.7089 45.5373C50.72 45.5182 50.7525 45.5025 50.7809 45.5025C50.8146 45.5025 50.83 45.4843 50.8249 45.4505C50.8206 45.4219 50.8301 45.3718 50.846 45.3392C50.88 45.2696 50.8909 45.055 50.8593 45.0757C50.8474 45.0835 50.8377 45.0693 50.8377 45.0439C50.8377 44.989 50.7536 44.8784 50.7118 44.8784C50.6955 44.8784 50.6641 44.8516 50.6419 44.8189C50.6016 44.7595 50.5393 44.733 50.572 44.7892C50.5815 44.8056 50.5689 44.8189 50.544 44.8189C50.5191 44.8189 50.5045 44.8089 50.5117 44.7966C50.5188 44.7844 49.6226 44.781 48.5201 44.7892C47.4176 44.7974 46.5114 44.794 46.5062 44.7818C46.5011 44.7695 46.4846 44.7595 46.4696 44.7595C46.4546 44.7595 46.4501 44.7729 46.4596 44.7892ZM47.1559 46.1988C47.1466 46.2245 47.1144 46.2456 47.0844 46.2456C47.0526 46.2456 47.0376 46.2322 47.0483 46.2136C47.0596 46.1944 47.0457 46.1959 47.0132 46.2174C46.9644 46.2498 46.8261 46.4398 46.8212 46.4812C46.8147 46.5376 46.7412 46.6573 46.7213 46.6442C46.7082 46.6356 46.6976 46.6593 46.6978 46.6971C46.6982 46.7463 46.7049 46.7544 46.722 46.7258C46.7559 46.6691 46.7789 46.8117 46.7479 46.8866C46.7271 46.937 46.7257 46.9359 46.7361 46.8771C46.7427 46.8403 46.7367 46.8178 46.7228 46.8269C46.6847 46.8519 46.6922 46.9173 46.7377 46.9574C46.7598 46.977 46.7711 47.012 46.7628 47.0352C46.7544 47.0584 46.7677 47.0855 46.7922 47.0956C46.8168 47.1055 46.83 47.1257 46.8215 47.1404C46.8129 47.155 46.8178 47.167 46.8324 47.167C46.8468 47.167 46.8653 47.1937 46.8734 47.2264C46.8832 47.2666 46.9115 47.2859 46.9606 47.2859C47.0004 47.2859 47.0583 47.3126 47.089 47.3453C47.1198 47.378 47.1739 47.4048 47.2093 47.4048C47.2447 47.4048 47.2882 47.4202 47.3061 47.4392C47.3285 47.463 47.3496 47.4642 47.3746 47.443C47.3945 47.4262 47.4586 47.4034 47.5171 47.3921C47.5757 47.3809 47.6303 47.353 47.6386 47.3299C47.6469 47.307 47.6777 47.28 47.7071 47.2701C47.7365 47.2602 47.7604 47.2322 47.7604 47.2078C47.7604 47.1834 47.773 47.1717 47.7884 47.1818C47.8038 47.192 47.8164 47.1786 47.8164 47.1521C47.8164 47.1257 47.829 47.1123 47.8444 47.1224C47.86 47.1327 47.8739 47.1072 47.8758 47.0647C47.8794 46.9878 47.8881 46.9354 47.8996 46.9218C47.9487 46.8639 47.9082 46.5317 47.8458 46.4791C47.8013 46.4417 47.7929 46.4253 47.8234 46.4355C47.8503 46.4444 47.8723 46.4389 47.8723 46.423C47.8723 46.4071 47.8477 46.3942 47.8175 46.3942C47.7421 46.3942 47.636 46.2724 47.6834 46.2404C47.7052 46.2258 47.6857 46.2166 47.6323 46.2163C47.5848 46.2161 47.5376 46.207 47.5273 46.196C47.4828 46.1488 47.1732 46.151 47.1559 46.1988ZM48.7211 46.2027C48.7119 46.2282 48.6865 46.2417 48.6646 46.2328C48.6412 46.2232 48.6323 46.2295 48.6429 46.2478C48.6679 46.2906 48.5749 46.3942 48.5114 46.3942C48.473 46.3942 48.4598 46.4165 48.4598 46.4816C48.4598 46.5297 48.4472 46.5773 48.4319 46.5874C48.3915 46.6139 48.3972 46.9394 48.4388 46.9871C48.4661 47.0183 48.4662 47.0225 48.4392 47.0063C48.3747 46.9677 48.4339 47.0724 48.5042 47.1213C48.5413 47.1471 48.5717 47.1813 48.5717 47.1971C48.5717 47.2426 48.6644 47.3453 48.7055 47.3453C48.7261 47.3453 48.7362 47.3568 48.728 47.3709C48.7199 47.3849 48.7431 47.3929 48.7799 47.3886C48.8165 47.3843 48.882 47.4004 48.9254 47.4243C48.9769 47.4527 49.0077 47.4569 49.0141 47.4363C49.0195 47.419 49.06 47.4048 49.104 47.4048C49.1479 47.4048 49.1917 47.3914 49.2012 47.375C49.2107 47.3587 49.2422 47.3453 49.2713 47.3453C49.3004 47.3453 49.3581 47.3119 49.3997 47.271C49.4411 47.2301 49.4656 47.1967 49.4539 47.1967C49.4423 47.1967 49.4564 47.1733 49.4854 47.1447C49.5144 47.1161 49.5258 47.1027 49.5109 47.115C49.4568 47.1593 49.4406 47.1359 49.4862 47.0793C49.5118 47.0475 49.5451 47.0295 49.5602 47.0393C49.5757 47.0495 49.5785 47.0419 49.5667 47.0216C49.5553 47.0021 49.5629 46.964 49.5835 46.9371C49.6051 46.9087 49.6071 46.8968 49.5881 46.9089C49.5649 46.9237 49.5562 46.8843 49.5577 46.7709C49.5589 46.6835 49.5496 46.5944 49.537 46.5728C49.5219 46.5468 49.5251 46.5407 49.5465 46.5549C49.5938 46.5858 49.586 46.5267 49.5372 46.4837C49.5143 46.4635 49.5037 46.433 49.5135 46.416C49.5234 46.399 49.5189 46.3933 49.5034 46.4035C49.4718 46.4242 49.3552 46.2947 49.3546 46.2379C49.3543 46.2125 49.3478 46.2111 49.3336 46.2335C49.3188 46.257 49.2914 46.2564 49.2355 46.2318C49.1928 46.2129 49.1639 46.1911 49.1712 46.1833C49.1785 46.1755 49.097 46.1687 48.99 46.1681C48.883 46.1674 48.7955 46.178 48.7955 46.1914C48.7955 46.2049 48.7822 46.2159 48.7659 46.2159C48.7496 46.2159 48.7441 46.2025 48.7536 46.1862C48.7631 46.1698 48.7634 46.1564 48.7543 46.1564C48.7452 46.1564 48.7303 46.1772 48.7211 46.2027ZM50.0651 46.33C49.9818 46.4207 49.9178 46.5088 49.9231 46.5257C49.9285 46.5426 49.9098 46.5827 49.8817 46.6147C49.8536 46.6467 49.8308 46.6938 49.831 46.7193C49.8315 46.7602 49.8347 46.7604 49.8587 46.7212C49.8796 46.687 49.8847 46.6957 49.8802 46.7583C49.877 46.8033 49.8645 46.84 49.8525 46.84C49.8405 46.84 49.8306 46.8601 49.8306 46.8846C49.8306 46.9091 49.844 46.9292 49.8603 46.9292C49.8766 46.9292 49.8809 46.9138 49.8699 46.8949C49.8581 46.8747 49.8622 46.8686 49.8798 46.8802C49.8962 46.8909 49.904 46.9376 49.8971 46.9838C49.8874 47.0494 49.8987 47.0751 49.9486 47.1006C49.9837 47.1185 49.9955 47.1341 49.9747 47.1353C49.9399 47.1371 50.0526 47.2709 50.1739 47.3719C50.2174 47.408 50.2214 47.4071 50.2059 47.3644C50.1961 47.3372 50.2021 47.3156 50.2193 47.3156C50.2363 47.3156 50.2502 47.3371 50.2502 47.3634C50.2502 47.3917 50.2659 47.4048 50.2887 47.3954C50.3099 47.3868 50.36 47.3979 50.4001 47.4199C50.4513 47.4482 50.4787 47.4505 50.4919 47.4279C50.5041 47.4069 50.4968 47.4041 50.4714 47.4198C50.449 47.4336 50.4417 47.4328 50.4545 47.4178C50.4669 47.4034 50.5182 47.3955 50.5686 47.4001C50.6253 47.4052 50.6739 47.3909 50.6962 47.3623C50.716 47.337 50.7417 47.3225 50.7534 47.3302C50.7651 47.3379 50.8172 47.301 50.8691 47.2481C50.9211 47.1954 50.9726 47.1553 50.9836 47.1593C50.9946 47.1631 50.997 47.1481 50.989 47.1259C50.981 47.1037 50.9912 47.0786 51.0117 47.0702C51.0582 47.0513 51.054 46.6494 51.0066 46.5887C50.9891 46.5663 50.9829 46.5111 50.9926 46.4639C51.0024 46.4164 50.9999 46.3942 50.9868 46.4132C50.9698 46.438 50.9539 46.436 50.9275 46.4058C50.9039 46.3787 50.9021 46.3645 50.9226 46.3645C50.9405 46.3645 50.9359 46.3457 50.9117 46.3199C50.8886 46.2954 50.8568 46.2753 50.841 46.2753C50.7861 46.2753 50.6685 46.2055 50.6946 46.1883C50.709 46.1788 50.6074 46.1697 50.4687 46.1681L50.2167 46.1651L50.0651 46.33ZM42.0299 46.3861C42.0599 46.4254 42.0601 46.4306 42.0308 46.4119C42.0088 46.3979 41.9729 46.4087 41.9416 46.4388C41.9128 46.4665 41.8771 46.4813 41.8624 46.4716C41.8476 46.4619 41.8281 46.4747 41.8189 46.4999C41.8082 46.53 41.8136 46.5385 41.8348 46.5246C41.8567 46.5102 41.8611 46.5201 41.8484 46.5552C41.8382 46.5838 41.8295 46.6161 41.8293 46.627C41.8291 46.6379 41.8186 46.6297 41.8061 46.6087C41.7436 46.5041 41.7082 46.803 41.7699 46.9141C41.8028 46.9734 41.8172 47.0137 41.8018 47.0035C41.7503 46.9698 41.773 47.0256 41.8333 47.0812C41.8661 47.1113 41.9038 47.1289 41.9173 47.12C41.9306 47.1113 41.9416 47.1155 41.9416 47.1295C41.9416 47.2273 45.9855 47.2904 46.0418 47.1935C46.0555 47.17 46.0668 47.1708 46.0817 47.1963C46.0973 47.2231 46.1261 47.2186 46.1971 47.1785C46.2492 47.1492 46.3027 47.1283 46.3162 47.1324C46.3296 47.1364 46.3325 47.1172 46.3225 47.0897C46.3066 47.0459 46.3104 47.0448 46.3525 47.081C46.3788 47.1038 46.3918 47.1071 46.3812 47.0884C46.3706 47.0696 46.3808 47.0467 46.4038 47.0373C46.4268 47.0279 46.4446 47.0031 46.4434 46.9822C46.4417 46.9523 46.4381 46.9521 46.4271 46.9812C46.4193 47.0017 46.3991 47.0184 46.3821 47.0184C46.3651 47.0184 46.385 46.9809 46.4264 46.935C46.4749 46.8812 46.5009 46.8207 46.4996 46.7641C46.498 46.6928 46.4937 46.6872 46.4765 46.734C46.449 46.8085 46.4294 46.7698 46.4053 46.593C46.3895 46.4774 46.3785 46.4563 46.3479 46.4832C46.3175 46.51 46.3134 46.5031 46.3268 46.4479C46.3413 46.3881 46.3378 46.3843 46.2989 46.4181C46.2613 46.4509 46.2517 46.4476 46.2363 46.3958C46.2262 46.3622 46.1968 46.335 46.171 46.3352C46.1303 46.3356 46.1296 46.3396 46.1659 46.3645C46.2017 46.3891 46.2007 46.3934 46.1589 46.3938C46.1319 46.394 46.1099 46.3806 46.1099 46.364C46.1099 46.3438 45.4294 46.3342 44.0511 46.3354C42.139 46.3368 41.9951 46.3405 42.0299 46.3861ZM41.8017 46.8138C41.8017 46.8465 41.7899 46.8655 41.7755 46.8561C41.7611 46.8466 41.7512 46.8133 41.7533 46.7821C41.7586 46.708 41.8017 46.7363 41.8017 46.8138ZM42.1192 47.718C42.1078 47.7495 42.0775 47.7596 42.0221 47.7504C41.9724 47.742 41.9414 47.7501 41.9411 47.7715C41.9408 47.7905 41.9001 47.8361 41.8506 47.8729C41.8011 47.9097 41.7768 47.9398 41.7968 47.9398C41.8167 47.9398 41.825 47.9535 41.8152 47.9704C41.782 48.0274 41.7918 48.3221 41.8284 48.3691C41.8483 48.3945 41.8558 48.4153 41.8451 48.4153C41.8086 48.4153 41.8995 48.493 41.9945 48.5432C42.0822 48.5895 42.4122 48.5933 46.354 48.5933H50.6187L50.7109 48.476C50.7616 48.4115 50.8091 48.3651 50.8164 48.3729C50.8237 48.3807 50.8473 48.3641 50.8687 48.336C50.8945 48.3023 50.8958 48.2926 50.8727 48.3074C50.8509 48.3213 50.8377 48.3129 50.8377 48.2851C50.8377 48.2605 50.8503 48.2322 50.8658 48.2221C50.8845 48.2098 50.8845 48.1852 50.8658 48.148C50.8258 48.0685 50.8299 47.9908 50.8727 48.0174C50.8919 48.0294 50.8872 48.0135 50.8623 47.982C50.8374 47.9506 50.8234 47.906 50.8312 47.883C50.8409 47.8542 50.8313 47.8469 50.8004 47.8594C50.7474 47.8811 50.7094 47.8335 50.7607 47.8094C50.7844 47.7982 50.7822 47.7938 50.7538 47.7955C50.6588 47.8016 50.6115 47.7895 50.6269 47.7633C50.636 47.7475 50.6122 47.7414 50.5723 47.749C50.525 47.7582 50.504 47.7501 50.5088 47.7249C50.5208 47.6619 42.1419 47.655 42.1192 47.718ZM50.488 47.7317C50.4646 47.772 42.224 47.772 42.1654 47.7317C42.1382 47.7131 43.5983 47.7027 46.3144 47.7024C49.1013 47.7021 50.4995 47.7119 50.488 47.7317ZM36.4584 49.9941C36.4584 50.0341 36.4133 50.0254 36.3763 49.978C36.3493 49.9434 36.3537 49.9387 36.4009 49.9518C36.4326 49.9606 36.4584 49.9796 36.4584 49.9941Z" fill="white"/>
<path opacity="0.5" d="M42.4746 7.25881C45.8195 5.68294 47.7107 5.71819 50.7505 7.25881C47.5895 6.72663 45.7775 6.72708 42.4746 7.25881Z" fill="white"/>
<path opacity="0.5" d="M68.5012 14.8358C72.079 15.769 73.5085 17.0078 74.8553 20.1382C72.7693 17.7044 71.3778 16.5437 68.5012 14.8358Z" fill="white"/>
<path opacity="0.5" d="M18.2729 18.8111C20.2522 15.6879 21.8677 14.7041 25.2597 14.3755C22.3059 15.6204 20.7763 16.592 18.2729 18.8111Z" fill="white"/>
<defs>
<filter id="filter0_di_1774_276" x="0.909771" y="0.537192" width="90.5389" height="90.3511" filterUnits="userSpaceOnUse" color-interpolation-filters="sRGB">
<feFlood flood-opacity="0" result="BackgroundImageFix"/>
<feColorMatrix in="SourceAlpha" type="matrix" values="0 0 0 0 0 0 0 0 0 0 0 0 0 0 0 0 0 0 127 0" result="hardAlpha"/>
<feOffset dy="1.22605"/>
<feGaussianBlur stdDeviation="3.06513"/>
<feComposite in2="hardAlpha" operator="out"/>
<feColorMatrix type="matrix" values="0 0 0 0 0.137255 0 0 0 0 0.0941176 0 0 0 0 0.180392 0 0 0 0.25 0"/>
<feBlend mode="normal" in2="BackgroundImageFix" result="effect1_dropShadow_1774_276"/>
<feBlend mode="normal" in="SourceGraphic" in2="effect1_dropShadow_1774_276" result="shape"/>
<feColorMatrix in="SourceAlpha" type="matrix" values="0 0 0 0 0 0 0 0 0 0 0 0 0 0 0 0 0 0 127 0" result="hardAlpha"/>
<feOffset dy="2.45211"/>
<feGaussianBlur stdDeviation="1.0728"/>
<feComposite in2="hardAlpha" operator="arithmetic" k2="-1" k3="1"/>
<feColorMatrix type="matrix" values="0 0 0 0 0.870833 0 0 0 0 0.870833 0 0 0 0 0.870833 0 0 0 0.31 0"/>
<feBlend mode="normal" in2="shape" result="effect2_innerShadow_1774_276"/>
</filter>
</defs>
</svg>
