<svg width="72" height="38" viewBox="0 0 72 38" fill="none" xmlns="http://www.w3.org/2000/svg">
<path fill-rule="evenodd" clip-rule="evenodd" d="M41.7899 0.0939781C41.7899 0.134972 41.582 0.168365 41.3281 0.168365C41.0741 0.168365 40.8863 0.201068 40.911 0.24091C40.9354 0.280752 40.8532 0.321977 40.7286 0.33234C40.5981 0.343394 40.5258 0.312534 40.5582 0.259795C40.589 0.209589 40.5708 0.168365 40.5176 0.168365C40.4644 0.168365 40.4208 0.209819 40.4208 0.260485C40.4208 0.311152 40.2976 0.352606 40.147 0.352606C39.9964 0.352606 39.8732 0.385309 39.8732 0.425151C39.8732 0.464993 39.7902 0.503914 39.6886 0.511744C39.5736 0.520496 39.5246 0.484568 39.5586 0.416169C39.5885 0.35583 39.5522 0.381624 39.478 0.473284C39.3925 0.579222 39.3213 0.604324 39.2834 0.542373C39.1953 0.398435 39.0518 0.423769 39.0518 0.582907C39.0518 0.658906 39.0082 0.721087 38.9551 0.721087C38.9019 0.721087 38.8893 0.669269 38.927 0.605936C38.9817 0.514046 38.9671 0.513816 38.8556 0.605246C38.7787 0.668118 38.6885 0.6923 38.6555 0.658906C38.6224 0.625513 38.5955 0.637718 38.5955 0.686081C38.5955 0.734214 38.5236 0.781196 38.4357 0.790408C37.9917 0.836698 37.8477 0.887595 37.6378 1.07184C37.5119 1.18215 37.409 1.24387 37.409 1.20863C37.409 1.17363 37.3597 1.19458 37.2994 1.25538C37.2392 1.31618 37.0979 1.36593 36.9855 1.36593C36.873 1.36593 36.7555 1.40738 36.7244 1.45805C36.6934 1.50872 36.5476 1.55017 36.4004 1.55017C36.2316 1.55017 36.0906 1.61811 36.0187 1.73441C35.9559 1.83574 35.8325 1.91865 35.7442 1.91865C35.6559 1.91865 35.5829 1.97047 35.5822 2.0338C35.5811 2.12592 35.5662 2.12592 35.5083 2.0338C35.4519 1.94421 35.3967 1.95089 35.2586 2.06374C35.1612 2.14342 35.1432 2.18188 35.2185 2.14895C35.2938 2.11602 35.2758 2.15448 35.1783 2.23416C35.0403 2.34701 34.9851 2.35369 34.9287 2.2641C34.8767 2.18165 34.8559 2.19386 34.8548 2.30786C34.8541 2.39514 34.7256 2.53332 34.5696 2.61485C34.4135 2.69638 34.3131 2.71802 34.3469 2.66321C34.3804 2.6084 34.3644 2.56349 34.3113 2.56349C34.2581 2.56349 34.2145 2.64893 34.2145 2.75326C34.2145 2.85759 34.1755 2.91862 34.1278 2.88868C34.0801 2.85897 33.9991 2.91378 33.9478 3.01074C33.8965 3.10746 33.7837 3.21409 33.6975 3.24748C33.5617 3.29999 33.5645 3.28088 33.7176 3.10723L33.8951 2.90595L33.6897 3.0333C33.5768 3.10332 33.4844 3.18576 33.4844 3.21639C33.4844 3.29884 33.154 3.66894 33.0803 3.66894C33.0456 3.66894 33.0454 3.62311 33.0796 3.56737C33.1138 3.51141 33.034 3.53674 32.9023 3.62403C32.6655 3.78063 32.5573 3.92825 32.777 3.79491C32.8546 3.74793 32.851 3.77556 32.7659 3.8815C32.6969 3.96717 32.5888 4.03742 32.5256 4.03742C32.4622 4.03742 32.385 4.13069 32.3542 4.24469C32.3161 4.38494 32.2751 4.41626 32.2269 4.34164C32.1797 4.26818 32.1112 4.26058 32.0216 4.31861C31.9034 4.3953 31.9038 4.41787 32.0241 4.50401C32.1331 4.58208 32.1206 4.59083 31.9625 4.54615C31.805 4.5017 31.7578 4.53325 31.7343 4.69907C31.7181 4.81399 31.6193 4.95079 31.515 5.00307C31.2353 5.14309 31.0459 5.35911 31.0888 5.48923C31.1095 5.5521 31.0644 5.60346 30.9882 5.60346C30.9122 5.60346 30.8239 5.68637 30.7919 5.7877C30.76 5.88903 30.6915 5.97194 30.64 5.97194C30.509 5.97194 30.0481 6.48321 30.0832 6.58938C30.099 6.63728 30.0287 6.7522 29.9272 6.84501C29.8254 6.93782 29.7423 7.09281 29.7423 7.18931C29.7423 7.28558 29.7006 7.33855 29.6495 7.30676C29.5986 7.27498 29.5844 7.20382 29.618 7.14901C29.6538 7.09074 29.6369 7.07531 29.5778 7.11216C29.5221 7.14693 29.5016 7.24136 29.5322 7.32196C29.5653 7.40902 29.5258 7.50367 29.435 7.55503C29.351 7.60247 29.3031 7.6757 29.3287 7.71739C29.3542 7.7593 29.3063 7.85004 29.2219 7.91913C29.1162 8.0055 29.0898 8.00872 29.137 7.9295C29.1746 7.86616 29.1815 7.81435 29.1523 7.81435C29.1228 7.81435 29.0612 7.91476 29.0149 8.03728C28.9604 8.18214 28.8732 8.24915 28.7662 8.22843C28.6756 8.21115 28.5529 8.19365 28.4935 8.18997C28.4342 8.18605 28.3596 8.09992 28.3277 7.99859C28.2957 7.89725 28.2291 7.81435 28.1791 7.81435C28.1294 7.81435 28.1139 7.85534 28.1444 7.90531C28.1764 7.95759 28.1399 7.97302 28.0586 7.9417C27.9806 7.91153 27.9138 7.81872 27.9096 7.73535C27.9046 7.63011 27.888 7.62112 27.8544 7.70564C27.8193 7.79431 27.7702 7.77542 27.6739 7.63655C27.6012 7.53177 27.4925 7.44909 27.4325 7.45323C27.3538 7.4583 27.3552 7.47327 27.4378 7.5069C27.5656 7.55894 27.5941 7.72223 27.4752 7.72223C27.4332 7.72223 27.3509 7.61629 27.2924 7.48663C27.2315 7.35213 27.1428 7.27821 27.085 7.31436C27.0294 7.34891 26.949 7.32058 26.9064 7.25103C26.8612 7.17711 26.7044 7.13335 26.5287 7.14555C26.2987 7.16144 26.2705 7.14855 26.4076 7.09074C26.5705 7.02211 26.5639 7.00922 26.335 6.95141C26.1965 6.91617 26.0393 6.91479 25.9859 6.94819C25.9323 6.98158 25.8609 6.96338 25.8269 6.90788C25.7929 6.85238 25.6332 6.79688 25.4718 6.78444C25.3108 6.77201 25.1789 6.72664 25.1789 6.6838C25.1789 6.64096 25.1412 6.62945 25.0949 6.65824C25.0488 6.68702 24.9564 6.65732 24.8895 6.59214C24.8229 6.52697 24.6039 6.46041 24.4031 6.44406C24.2023 6.42794 24.0079 6.36691 23.9709 6.30841C23.9253 6.2361 23.9029 6.24623 23.9011 6.34042C23.899 6.4406 23.879 6.44797 23.8281 6.36691C23.7432 6.23218 20.2814 6.21537 20.1992 6.3494C20.1691 6.39869 20.0785 6.39546 19.9783 6.34134C19.8604 6.27778 19.7983 6.28147 19.7741 6.35424C19.7552 6.41158 19.5706 6.46317 19.3636 6.4687C19.1567 6.474 18.9568 6.50969 18.9192 6.54769C18.8815 6.58569 18.7731 6.61678 18.6782 6.61678C18.5831 6.61678 18.5308 6.65824 18.5618 6.7089C18.5961 6.76464 18.4697 6.80102 18.2424 6.80102C18.0053 6.80102 17.8883 6.83649 17.9252 6.89683C17.9634 6.95901 17.9011 6.97168 17.7482 6.93299C17.5625 6.88577 17.5123 6.90719 17.5123 7.03294C17.5123 7.16075 17.4584 7.18171 17.2421 7.13795C17.0835 7.10594 16.9455 7.12621 16.9085 7.18678C16.8699 7.24965 16.8864 7.26439 16.9505 7.22432C17.0084 7.18816 17.0559 7.20543 17.0559 7.26278C17.0559 7.32012 16.9635 7.35766 16.8505 7.34637C16.5763 7.31897 16.1514 7.50137 16.0855 7.67478C16.0563 7.75147 15.9728 7.81435 15.9 7.81435C15.827 7.81435 15.7927 7.8558 15.8238 7.90647C15.8548 7.95713 15.8137 7.99859 15.7325 7.99859C15.6513 7.99859 15.6102 7.95713 15.6412 7.90647C15.6723 7.8558 15.6542 7.81435 15.6011 7.81435C15.5479 7.81435 15.5043 7.84935 15.5043 7.89242C15.5043 8.10245 15.129 8.40714 15.0368 8.27195C14.9693 8.17269 14.962 8.1978 15.0094 8.36638C15.066 8.56697 15.0562 8.58079 14.9318 8.47669C14.8118 8.37605 14.7803 8.38687 14.7301 8.54647C14.6973 8.65057 14.63 8.73555 14.58 8.73555C14.5303 8.73555 14.5147 8.69456 14.5453 8.64458C14.5786 8.59 14.5369 8.57825 14.4413 8.61533C14.3429 8.65333 14.3235 8.69133 14.3908 8.71413C14.5786 8.77723 14.5104 8.94397 14.3176 8.89307C14.2172 8.86659 14.1535 8.87511 14.1761 8.91196C14.2295 8.99901 13.9352 9.25234 13.6888 9.33111C13.5829 9.36519 13.4964 9.43382 13.4964 9.48426C13.4964 9.53446 13.5477 9.5469 13.6105 9.51212C13.6732 9.47712 13.4987 9.67679 13.2226 9.95568C12.9465 10.2346 12.6932 10.4469 12.6595 10.4273C12.6259 10.408 12.5499 10.5402 12.4906 10.7214C12.4315 10.9027 12.3596 11.0273 12.3311 10.9985C12.2337 10.9001 11.9448 11.2507 11.9448 11.4674C11.9448 11.5862 11.9038 11.6834 11.8536 11.6834C11.8034 11.6834 11.7616 11.6316 11.7609 11.5682C11.7602 11.5049 11.7064 11.5567 11.6411 11.6834C11.575 11.8126 11.5588 11.9383 11.6046 11.9699C11.6496 12.001 11.6213 12.0514 11.5419 12.0823C11.4622 12.1129 11.3972 12.2433 11.3972 12.3713C11.3972 12.5173 11.3459 12.6046 11.2603 12.6046C11.183 12.6046 11.1234 12.687 11.1234 12.7944C11.1234 12.8987 11.0851 12.9602 11.0385 12.9309C10.9917 12.9019 10.9238 12.9266 10.8875 12.9857C10.8462 13.0532 10.861 13.0689 10.9267 13.0279C11.1268 12.9031 10.9591 13.3261 10.6812 13.6472C10.6013 13.7393 10.5333 13.9258 10.5299 14.0617C10.5258 14.2222 10.4793 14.2989 10.3974 14.2805C10.2933 14.2572 10.2917 14.2775 10.3889 14.3956C10.4569 14.4783 10.4669 14.5391 10.4129 14.5391C10.3613 14.5391 10.3408 14.6227 10.3672 14.7247C10.4042 14.8675 10.3812 14.897 10.2673 14.853C10.0957 14.7867 10.0629 14.9606 10.2335 15.0324C10.3186 15.0681 10.3109 15.111 10.2027 15.2012C10.1231 15.2678 10.077 15.3797 10.1005 15.4502C10.124 15.5204 10.1016 15.5522 10.051 15.5207C9.99372 15.485 9.96314 15.6098 9.97067 15.8491C9.98436 16.2926 9.78745 16.3884 8.86951 16.3845C8.60871 16.3836 8.37027 16.4239 8.33946 16.4741C8.30843 16.5245 8.20119 16.5658 8.10079 16.5658C8.0004 16.5658 7.94358 16.6072 7.97461 16.6579C8.00975 16.7152 7.8368 16.75 7.51827 16.75C7.23624 16.75 7.02815 16.7871 7.05599 16.8325C7.08383 16.8778 7.04298 16.9396 6.9654 16.9697C6.88463 17.0008 6.84812 16.9854 6.88007 16.9331C6.91064 16.8831 6.89102 16.8421 6.83626 16.8421C6.7815 16.8421 6.7119 16.9078 6.68133 16.9877C6.64916 17.0724 6.55766 17.1153 6.46297 17.0904C6.34819 17.06 6.31488 17.0872 6.35093 17.1818C6.38219 17.264 6.35299 17.3083 6.27564 17.2951C6.14626 17.2733 5.82043 17.3854 5.73852 17.4803C5.59568 17.6454 5.28194 17.7599 5.27647 17.6489C5.27327 17.5853 5.23357 17.6263 5.18816 17.7403C5.14276 17.8543 5.06061 17.9476 5.00585 17.9476C4.95063 17.9476 4.93672 17.8964 4.97482 17.8324C5.02205 17.7532 4.99558 17.7564 4.88994 17.8428C4.80552 17.9119 4.75897 18.0051 4.78658 18.0501C4.81419 18.095 4.77015 18.1318 4.68892 18.1318C4.59948 18.1318 4.5673 18.1742 4.60723 18.2396C4.65082 18.3108 4.62458 18.3285 4.52966 18.2916C4.44067 18.2573 4.3259 18.317 4.22801 18.4482C4.12351 18.589 4.00508 18.6463 3.87754 18.6184C3.72055 18.5841 3.71029 18.5947 3.82186 18.6751C3.95717 18.7725 3.85905 18.8262 3.61651 18.7875C3.57886 18.7815 3.55832 18.8266 3.57087 18.8877C3.58342 18.9487 3.54577 19.0005 3.48713 19.0028C3.42872 19.0051 3.34658 19.0447 3.30459 19.0908C3.26056 19.1396 3.27653 19.147 3.3427 19.1085C3.40545 19.0719 3.45678 19.0682 3.45678 19.1002C3.45678 19.1912 3.18366 19.4438 3.17727 19.3591C3.17408 19.3174 3.13438 19.3766 3.08897 19.4906C3.04356 19.6046 2.96142 19.6979 2.90666 19.6979C2.8519 19.6979 2.83661 19.646 2.87289 19.5827C2.90894 19.5194 2.90324 19.4998 2.86034 19.5394C2.81744 19.5788 2.77204 19.6817 2.75949 19.7679C2.74694 19.8542 2.69332 19.9394 2.64038 19.9572C2.58744 19.9749 2.54409 20.0438 2.54409 20.1103C2.54409 20.1767 2.48043 20.2556 2.4024 20.2858C2.3093 20.3217 2.28032 20.3017 2.31797 20.2264C2.34946 20.1638 2.31181 20.1912 2.23423 20.2872C2.15688 20.3832 2.11535 20.4977 2.14228 20.5412C2.16898 20.585 2.09573 20.6591 1.97959 20.7061C1.8582 20.7552 1.82649 20.7955 1.90521 20.8005C2.00583 20.807 1.98758 20.8554 1.83653 20.9825C1.72358 21.0778 1.65262 21.2125 1.67909 21.2821C1.70556 21.3516 1.63368 21.5099 1.51959 21.6335C1.40528 21.7572 1.31196 21.8965 1.31196 21.9433C1.31196 21.99 1.22981 22.0607 1.12942 22.1004C1.02902 22.1397 0.998219 22.175 1.06097 22.1787C1.24077 22.1888 1.19399 22.3509 0.992514 22.4154C0.892118 22.4476 0.809976 22.5458 0.809976 22.6335C0.809976 22.7212 0.758637 22.8488 0.695889 22.9172C0.60462 23.0165 0.60462 23.0282 0.695889 22.9762C0.884588 22.8686 0.825492 23.1234 0.60462 23.3686C0.491675 23.4939 0.450603 23.5667 0.513351 23.5303C0.700453 23.4216 0.644779 23.6952 0.444899 23.8679C0.245932 24.0399 0.191855 24.2654 0.376447 24.1535C0.467717 24.0982 0.467716 24.1127 0.376675 24.2263C0.313928 24.3043 0.278104 24.5015 0.296814 24.6641C0.32237 24.8861 0.299781 24.9476 0.205317 24.9109C0.0640782 24.8564 0.0307647 25.0915 0.167669 25.1769C0.217182 25.2078 0.224483 25.3204 0.184097 25.4356C0.145079 25.5477 0.125684 25.878 0.141428 26.1693C0.157172 26.4606 0.137778 26.699 0.0985319 26.699C0.0592861 26.699 0.0232351 26.8441 0.0186716 27.0214C0.01388 27.1988 0.03761 27.3438 0.0709233 27.3438C0.104465 27.3438 0.133899 27.5078 0.136181 27.7082C0.138691 27.9288 0.104236 28.0499 0.0490185 28.0154C-0.00848114 27.9797 -0.0157831 28.0239 0.029167 28.1347C0.162877 28.4636 0.244335 28.9094 0.16128 28.8578C0.0672725 28.7991 0.0554071 28.9226 0.13504 29.1321C0.165387 29.212 0.22129 29.2579 0.259166 29.2344C0.297043 29.2107 0.316893 29.2936 0.303203 29.4186C0.289741 29.5437 0.315981 29.6694 0.361616 29.698C0.407478 29.7265 0.444214 29.7993 0.44353 29.8596C0.442617 29.9255 0.406794 29.9142 0.353629 29.8311C0.305029 29.7551 0.264414 29.7392 0.263729 29.7956C0.263045 29.852 0.344731 30.004 0.445355 30.1332C0.579293 30.305 0.597775 30.3806 0.513807 30.4147C0.450147 30.4407 0.476843 30.4646 0.574273 30.4686C0.670334 30.4727 0.722129 30.5031 0.689044 30.5365C0.655959 30.5699 0.673757 30.6516 0.728518 30.718C0.783052 30.7845 0.832108 30.9854 0.837128 31.1641C0.842148 31.343 0.890977 31.4893 0.945967 31.4893C1.00073 31.4893 1.11048 31.6334 1.18966 31.8096C1.27385 31.9973 1.29119 32.1088 1.23141 32.0791C1.17528 32.0512 1.19468 32.0832 1.27431 32.1502C1.35394 32.2175 1.40323 32.3204 1.3836 32.3789C1.36398 32.4376 1.39752 32.5166 1.45822 32.5544C1.52781 32.5979 1.54469 32.5843 1.50385 32.5178C1.4646 32.4538 1.48582 32.4314 1.55816 32.4609C1.62364 32.4876 1.75119 32.6633 1.84177 32.8515L2.00652 33.1935L1.77241 32.9171L1.53808 32.6408L1.69894 32.9395C1.79363 33.1156 1.93145 33.2386 2.03458 33.2388C2.13064 33.2393 2.18198 33.2672 2.14844 33.3013C2.1149 33.3351 2.15939 33.4459 2.24724 33.5472C2.33531 33.6488 2.35585 33.7015 2.2931 33.6644C2.23035 33.6274 2.17901 33.6214 2.17901 33.6509C2.17901 33.6806 2.2874 33.7462 2.41974 33.7971C2.55231 33.848 2.63787 33.9125 2.61003 33.9408C2.5409 34.0104 2.88133 34.3447 3.02326 34.3464C3.09924 34.3473 3.09171 34.3777 3.00044 34.4371C2.88977 34.5094 2.90278 34.5267 3.06889 34.5278C3.19347 34.5288 3.27425 34.5856 3.27425 34.6729C3.27425 34.7519 3.31486 34.7911 3.36437 34.7602C3.41617 34.728 3.43146 34.7648 3.40043 34.8468C3.35958 34.9544 3.41069 34.9926 3.60669 35.0004C3.75638 35.0066 3.80041 35.029 3.71006 35.0529C3.58433 35.0861 3.57521 35.119 3.66442 35.2162C3.74611 35.3051 3.79425 35.3095 3.84331 35.233C3.88735 35.1639 3.91085 35.1784 3.91176 35.2749C3.91359 35.4636 4.20063 35.7268 4.40484 35.7268C4.49178 35.7268 4.53764 35.7678 4.50707 35.8177C4.47581 35.8686 4.5098 35.8864 4.58373 35.8576C4.65652 35.8295 4.7471 35.8571 4.78498 35.9191C4.83267 35.9969 4.81442 36.0089 4.72588 35.9578C4.62024 35.897 4.61841 35.9066 4.71562 36.0119C4.81601 36.1208 4.84613 36.1194 4.9196 36.0025C4.97026 35.9212 5.00608 35.9096 5.00699 35.9739C5.00768 36.0338 5.0905 36.1091 5.1909 36.1413C5.2913 36.1736 5.37344 36.2549 5.37344 36.3219C5.37344 36.3891 5.4371 36.4688 5.51514 36.499C5.59636 36.5303 5.63287 36.5149 5.60093 36.4626C5.50053 36.2986 5.70634 36.3672 5.87337 36.5538C5.96327 36.6537 6.068 36.7162 6.10633 36.6924C6.14444 36.6685 6.20285 36.7203 6.23593 36.8071C6.28727 36.9425 6.30804 36.9458 6.38082 36.8297C6.44357 36.7297 6.46616 36.7256 6.4673 36.8147C6.46799 36.8811 6.50974 36.9096 6.55994 36.8783C6.61014 36.847 6.65121 36.8698 6.65121 36.9287C6.65121 36.9879 6.71464 37.0116 6.7929 36.9812C6.87413 36.9499 6.91064 36.9653 6.8787 37.0176C6.84539 37.0717 6.97248 37.1086 7.19335 37.1086C7.39711 37.1086 7.5639 37.15 7.5639 37.2007C7.5639 37.2514 7.64604 37.2928 7.74644 37.2928C7.84683 37.2928 7.92898 37.3368 7.92898 37.3905C7.92898 37.4441 7.97188 37.4612 8.02435 37.4285C8.07661 37.3958 8.21351 37.4312 8.32828 37.5072C8.45286 37.5895 8.58634 37.6146 8.6589 37.5692C8.72599 37.5275 8.88685 37.534 9.01668 37.5837C9.14628 37.6334 9.27292 37.6818 9.29802 37.6908C9.32312 37.7 9.33453 37.7348 9.32357 37.7684C9.31239 37.802 9.47668 37.8177 9.68865 37.8029C9.90039 37.7884 10.1507 37.8168 10.2445 37.8663C10.3426 37.9179 10.393 37.9195 10.3629 37.8704C10.3339 37.8234 10.401 37.7951 10.5117 37.8075C10.6221 37.82 21.3091 37.8439 34.2602 37.8607L57.8076 37.8911L34.1689 37.9402L10.5302 37.9893L36.1529 37.9989C54.1135 38.0058 61.758 37.9796 61.7162 37.9114C61.68 37.8525 61.7119 37.8356 61.7975 37.8688C61.8748 37.8987 61.9841 37.8769 62.0405 37.82C62.0968 37.7631 62.1429 37.7431 62.1429 37.7755C62.1429 37.808 62.2529 37.7769 62.3873 37.7067C62.641 37.5738 62.8959 37.6238 62.6775 37.7636C62.6045 37.8103 62.5958 37.8433 62.6565 37.8442C62.7131 37.8449 62.806 37.7889 62.863 37.7196C62.9221 37.6477 63.0935 37.6051 63.2621 37.6205C63.4246 37.6355 63.5062 37.6265 63.4435 37.6007C63.2505 37.5215 63.3173 37.3843 63.5327 37.4174C63.6448 37.4347 63.8604 37.3723 64.0119 37.279C64.1636 37.1857 64.3827 37.109 64.4986 37.1088C64.6156 37.1088 64.6841 37.0676 64.6528 37.0165C64.6218 36.9658 64.6364 36.9243 64.6855 36.9243C64.7345 36.9243 64.7952 36.9762 64.8205 37.0395C64.8495 37.1118 64.8694 37.0978 64.8737 37.002C64.8787 36.896 64.9367 36.8642 65.0635 36.8976C65.1639 36.9241 65.2461 36.9085 65.2461 36.8629C65.2461 36.8173 65.3795 36.6991 65.5427 36.6005C65.8338 36.4246 65.8783 36.4064 66.073 36.3831C66.1261 36.3769 66.1426 36.3274 66.1093 36.2733C66.0732 36.2143 66.1168 36.1867 66.2181 36.2042C66.3155 36.221 66.3774 36.1848 66.3641 36.1183C66.3516 36.055 66.4235 36.0031 66.5238 36.0031C66.6242 36.0031 66.7064 35.9624 66.7064 35.9129C66.7064 35.8631 66.8088 35.7966 66.9339 35.7648C67.0591 35.733 67.1417 35.6747 67.1176 35.6354C67.0934 35.5957 67.1424 35.5068 67.2269 35.4378C67.3325 35.3514 67.359 35.3482 67.3117 35.4274C67.2741 35.4907 67.2652 35.5425 67.2919 35.5425C67.3186 35.5425 67.4044 35.4182 67.4822 35.2662C67.56 35.1142 67.6663 34.9898 67.7181 34.9898C67.7699 34.9898 67.7831 35.0377 67.7473 35.0962C67.7069 35.1621 67.7222 35.1775 67.7875 35.1367C67.8454 35.1006 67.8929 35.0142 67.8929 34.9449C67.8929 34.8756 67.9956 34.7374 68.1211 34.6377C68.2466 34.5382 68.3522 34.4005 68.3556 34.3316C68.3593 34.263 68.3974 34.2897 68.4405 34.391C68.5154 34.5668 68.5192 34.5658 68.5254 34.368C68.5288 34.254 68.5753 34.1607 68.6285 34.1607C68.6817 34.1607 68.6997 34.1193 68.6687 34.0686C68.6365 34.0161 68.7166 33.9765 68.8556 33.9765C69.0338 33.9765 69.0849 33.9397 69.0465 33.839C69.0175 33.7623 69.0814 33.6195 69.191 33.5166C69.2991 33.4148 69.3491 33.331 69.3019 33.3303C69.2549 33.3296 69.2592 33.2985 69.3114 33.2612C69.3639 33.2239 69.5266 32.9996 69.6729 32.7624C69.8194 32.5254 69.9715 32.3517 70.0112 32.3764C70.0799 32.4192 70.1217 32.2725 70.0904 32.0993C70.0822 32.0551 70.1596 31.9593 70.262 31.887C70.3645 31.8144 70.4484 31.6988 70.4484 31.63C70.4484 31.5609 70.4918 31.4899 70.5447 31.4722C70.5976 31.4545 70.6513 31.3693 70.6638 31.2829C70.6764 31.1968 70.7152 31.0973 70.7501 31.062C70.785 31.0268 70.8135 30.922 70.8135 30.829C70.8135 30.7362 70.8571 30.6602 70.9102 30.6602C70.9634 30.6602 70.9814 30.6187 70.9504 30.568C70.9194 30.5174 70.931 30.4759 70.976 30.4759C71.0686 30.4759 71.3118 30.0114 71.2826 29.8905C71.2721 29.8472 71.3162 29.7459 71.3807 29.6655C71.4702 29.554 71.4711 29.5358 71.3839 29.5886C71.3109 29.6328 71.2699 29.6024 71.2699 29.5043C71.2699 29.4131 71.32 29.3703 71.3933 29.3986C71.4852 29.4343 71.5083 29.3689 71.4834 29.1423C71.4601 28.9283 71.493 28.8217 71.5941 28.7825C71.7086 28.7383 71.7289 28.6238 71.6942 28.2197C71.6703 27.9405 71.6883 27.7123 71.7342 27.7123C71.78 27.7123 71.8175 27.5905 71.8175 27.4415C71.8175 27.2925 71.8585 27.1449 71.9087 27.1135C71.9589 27.0822 72 27.0152 72 26.9645C72 26.9139 71.9589 26.898 71.9087 26.9293C71.8535 26.9638 71.8175 26.8363 71.8175 26.6069C71.8175 26.3301 71.8483 26.2451 71.9315 26.2925C72.0228 26.3446 72.0228 26.3328 71.9315 26.2336C71.8688 26.1652 71.8175 25.9079 71.8175 25.6617C71.8175 25.3305 71.8471 25.2311 71.9315 25.2792C72.0228 25.3312 72.0228 25.3195 71.9315 25.2202C71.8688 25.1518 71.8175 24.9568 71.8175 24.7866C71.8175 24.5637 71.8494 24.4966 71.9315 24.5464C72.0155 24.5973 72.0139 24.5761 71.9258 24.4665C71.8599 24.3842 71.8001 24.1305 71.7926 23.9025C71.7853 23.6745 71.7563 23.502 71.7282 23.5195C71.7002 23.5372 71.6924 23.3891 71.7114 23.1906C71.7365 22.9239 71.7116 22.83 71.6155 22.83C71.5359 22.83 71.4836 22.7321 71.4807 22.5766C71.4779 22.4373 71.446 22.2404 71.4097 22.139C71.357 21.9912 71.3634 21.9822 71.4423 22.093C71.5058 22.1819 71.5414 22.1913 71.5423 22.1192C71.543 22.0578 71.4615 21.9629 71.3611 21.9087C71.2607 21.8546 71.1786 21.7471 71.1786 21.6697C71.1786 21.5829 71.2222 21.555 71.2927 21.5967C71.3554 21.6338 71.3349 21.581 71.2468 21.4795C71.159 21.3781 71.1149 21.2669 71.1489 21.2323C71.1829 21.198 71.0907 21.0396 70.9438 20.8802C70.7375 20.6568 70.7172 20.6052 70.8541 20.655C71.0221 20.7158 71.0232 20.71 70.8767 20.5465C70.7916 20.4514 70.7494 20.3462 70.7829 20.3123C70.8165 20.2782 70.78 20.2506 70.7015 20.2506C70.6232 20.2506 70.5347 20.1863 70.5048 20.1076C70.4738 20.0256 70.489 19.9887 70.5408 20.021C70.5904 20.0518 70.631 20.0334 70.631 19.9797C70.631 19.8902 70.5048 19.8441 70.3343 19.8713C70.2967 19.8773 70.2659 19.7577 70.2659 19.6057C70.2659 19.4309 70.2191 19.3294 70.1388 19.3294C70.0687 19.3294 69.9866 19.2637 69.9563 19.1836C69.8768 18.9749 69.8869 18.9413 70.0062 19.0157C70.0735 19.0579 70.0868 19.0408 70.0427 18.969C70.0049 18.9072 69.9501 18.8803 69.9213 18.9095C69.8488 18.9825 69.5348 18.4842 69.5935 18.3886C69.6192 18.3462 69.5862 18.323 69.5198 18.3368C69.4531 18.3508 69.4093 18.3094 69.4223 18.2449C69.4353 18.1804 69.34 18.0871 69.2108 18.0376C69.031 17.9685 68.9895 17.904 69.0337 17.7633C69.0762 17.6284 69.0502 17.5791 68.9365 17.5791C68.7437 17.5791 68.4236 17.2205 68.5021 17.0925C68.5354 17.0381 68.5151 17.0259 68.4546 17.0637C68.3967 17.0998 68.3492 17.0856 68.3492 17.0319C68.3492 16.9782 68.2988 16.9446 68.2372 16.9573C68.1758 16.9699 68.1112 16.8863 68.0939 16.7717C68.0766 16.657 68.0243 16.5867 67.9775 16.616C67.931 16.645 67.8929 16.6054 67.8929 16.528C67.8929 16.4407 67.8409 16.4076 67.756 16.4403C67.6727 16.4727 67.5073 16.3725 67.3325 16.1842C67.1746 16.014 66.9841 15.8885 66.9092 15.9048C66.8161 15.9253 66.7908 15.8873 66.8298 15.7848C66.8631 15.6975 66.8492 15.6584 66.7965 15.6913C66.747 15.7222 66.7064 15.678 66.7064 15.5928C66.7064 15.4686 66.6804 15.4596 66.5756 15.5474C66.4718 15.6342 66.4075 15.6192 66.2637 15.4741C66.1642 15.3737 66.0588 15.3157 66.0294 15.3452C66.0002 15.3747 65.9762 15.3297 65.9762 15.2455C65.9762 15.1609 65.9132 15.0918 65.8363 15.0918C65.7597 15.0918 65.673 15.0297 65.6442 14.9537C65.6118 14.8687 65.4733 14.8155 65.2851 14.8155C65.0747 14.8155 64.8808 14.7289 64.6667 14.5391C64.4952 14.3871 64.2884 14.2628 64.2072 14.2628C64.126 14.2628 64.0596 14.2167 64.0596 14.1603C64.0596 14.0937 63.9505 14.0788 63.7472 14.1172C63.5469 14.155 63.4109 14.1373 63.368 14.067C63.3223 13.9926 63.342 13.9818 63.4294 14.0329C63.5024 14.0758 63.5261 14.0732 63.4843 14.0269C63.444 13.9823 63.3413 13.9413 63.2562 13.9357C62.7574 13.9035 62.6841 13.8869 62.7275 13.8162C62.7537 13.7734 62.6077 13.7552 62.4028 13.7759C61.9307 13.8236 61.6743 13.743 61.8716 13.6089C61.9633 13.5465 61.8395 13.5369 61.4812 13.5783C61.12 13.6202 60.9564 13.6071 60.9564 13.5364C60.9564 13.48 60.9128 13.4337 60.8597 13.4337C60.8065 13.4337 60.7885 13.4751 60.8195 13.5258C60.8528 13.5804 60.7486 13.6179 60.5635 13.6179C60.2614 13.6179 60.2514 13.6064 60.2614 13.2725C60.268 13.0548 60.2327 12.9346 60.1658 12.9473C60.096 12.9606 60.0677 12.839 60.0832 12.5935C60.0992 12.3375 60.0656 12.2034 59.9766 12.1691C59.905 12.1412 59.8657 12.0445 59.889 11.954C59.9205 11.8329 59.8922 11.8032 59.7825 11.8421C59.6659 11.8831 59.6565 11.8692 59.7393 11.7785C59.821 11.6892 59.8062 11.5966 59.6757 11.3799C59.5821 11.2246 59.5246 11.0664 59.5479 11.0284C59.5712 10.9904 59.5486 10.9331 59.4977 10.9013C59.3635 10.8177 59.3832 10.6482 59.5189 10.7177C59.5817 10.75 59.5404 10.6938 59.4272 10.5929C59.314 10.4921 59.2127 10.3025 59.202 10.1715C59.1913 10.0404 59.1504 9.93311 59.1112 9.93311C59.0719 9.93311 59.0398 9.8859 59.0398 9.82809C59.0398 9.77029 58.9679 9.66804 58.88 9.60079C58.7301 9.48587 58.7315 9.47781 58.9029 9.46952C59.071 9.46146 59.0692 9.45432 58.88 9.37763C58.7618 9.32949 58.6747 9.21503 58.6747 9.10771C58.6747 9.00523 58.5467 8.79796 58.3902 8.64688C58.214 8.47692 58.1262 8.31824 58.1597 8.23027C58.1932 8.1416 58.1111 7.99559 57.9423 7.84382C57.7857 7.70311 57.6707 7.50736 57.6707 7.38161C57.6707 7.24159 57.5973 7.13381 57.4654 7.08015C57.3479 7.03271 57.3187 6.99425 57.3969 6.99079C57.4722 6.98734 57.4049 6.90512 57.2472 6.80816C56.8975 6.59283 56.7348 6.37128 56.994 6.46317C57.1576 6.52121 57.1585 6.51706 57.009 6.39961C56.9212 6.33052 56.8486 6.21652 56.8479 6.14605C56.8468 6.04356 56.8288 6.04564 56.758 6.15618C56.6875 6.2665 56.6693 6.24922 56.6681 6.07166C56.6674 5.94937 56.6398 5.87637 56.6068 5.90976C56.5242 5.99313 56.2916 5.78655 56.3537 5.68522C56.3813 5.64031 56.3706 5.60346 56.33 5.60346C56.1846 5.60323 55.7541 5.16474 55.7541 5.01688C55.7541 4.93421 55.7105 4.8665 55.6573 4.8665C55.6042 4.8665 55.5859 4.90749 55.6165 4.95747C55.6478 5.00859 55.6135 5.02587 55.5389 4.99685C55.4654 4.96852 55.3411 4.81353 55.2624 4.65255C55.1836 4.49157 55.1184 4.39599 55.1172 4.44021C55.1161 4.48443 55.054 4.46946 54.9792 4.40682C54.9046 4.34418 54.8592 4.26657 54.8783 4.23432C54.9358 4.13829 54.7179 3.98767 54.5247 3.98951C54.4257 3.99043 54.2983 3.89739 54.2415 3.78247C54.1849 3.66755 54.1051 3.54319 54.0645 3.50611C54.0238 3.46903 54.0202 3.49045 54.0562 3.55379C54.0925 3.61712 54.0854 3.66894 54.0407 3.66894C53.996 3.66894 53.9054 3.56668 53.839 3.44186C53.7729 3.31681 53.6816 3.23781 53.6362 3.26591C53.591 3.29424 53.4801 3.23136 53.3897 3.12635C53.2996 3.02133 53.1999 2.96122 53.1686 2.993C53.1372 3.02455 53.0856 2.98241 53.0541 2.89904C53.0224 2.8159 52.9437 2.74773 52.8791 2.74773C52.8143 2.74773 52.6407 2.63373 52.4928 2.4944C52.3449 2.35507 52.1455 2.24107 52.0497 2.24107C51.9536 2.24107 51.8849 2.19063 51.8968 2.12914C51.91 2.06121 51.8608 2.03979 51.7711 2.07456C51.6778 2.11072 51.558 2.05038 51.4448 1.9099C51.3464 1.78807 51.2926 1.74017 51.325 1.8035C51.3574 1.86683 51.3366 1.91865 51.2787 1.91865C51.221 1.91865 51.1521 1.83574 51.1258 1.73441C51.0996 1.63308 51.0031 1.55017 50.9116 1.55017C50.8201 1.55017 50.7197 1.50872 50.6886 1.45805C50.6576 1.40738 50.5558 1.36593 50.4627 1.36593C50.3694 1.36593 50.2724 1.31411 50.2471 1.25078C50.2143 1.16833 50.199 1.17294 50.194 1.2669C50.1887 1.35925 50.1177 1.33277 49.9535 1.17685C49.7458 0.980176 49.7267 0.975799 49.7782 1.1377C49.8332 1.30927 49.8289 1.31043 49.7036 1.15705C49.626 1.0617 49.5099 1.01795 49.4232 1.05157C49.3308 1.08727 49.2532 1.05019 49.216 0.952078C49.1717 0.835776 49.0891 0.809062 48.8956 0.848213C48.638 0.900031 48.5287 0.781196 48.7492 0.688384C48.8119 0.66213 48.7072 0.66144 48.5164 0.687233C48.2666 0.720857 48.0802 0.680555 47.8492 0.543065C47.6731 0.438048 47.5542 0.39383 47.5855 0.444496C47.6583 0.563562 47.4075 0.563562 47.1736 0.444727C47.0739 0.39406 46.9057 0.308158 46.8001 0.253577C46.6632 0.183105 46.6255 0.183105 46.6687 0.253577C46.7043 0.311843 46.652 0.352606 46.5414 0.352606C46.438 0.352606 46.3533 0.308158 46.3533 0.253807C46.3533 0.199686 46.2564 0.167904 46.1379 0.183795C46.0193 0.199456 45.855 0.155699 45.7729 0.0868392C45.6645 -0.00389928 45.5906 -0.0110382 45.505 0.0605853C45.3713 0.172511 44.9727 0.169748 45.0416 0.0573611C45.066 0.0172888 44.3445 -0.00758497 43.438 0.00208765C42.5314 0.0117603 41.7899 0.0529846 41.7899 0.0939781ZM44.3226 3.32418C44.3853 3.32809 44.4367 3.36425 44.4367 3.40455C44.4367 3.44508 44.7447 3.45982 45.1212 3.43748C45.6223 3.40777 45.8062 3.42712 45.8071 3.5098C45.808 3.58234 45.8402 3.57336 45.897 3.48469C45.9616 3.38382 45.9858 3.37922 45.9869 3.46742C45.9876 3.53398 46.0601 3.57635 46.148 3.56184C46.2358 3.54734 46.3691 3.57405 46.4439 3.62149C46.519 3.6687 46.7419 3.72052 46.9393 3.73664C47.1369 3.75253 47.3425 3.79859 47.3963 3.83913C47.4502 3.87966 47.6364 3.92134 47.81 3.93194C47.9839 3.94253 48.1482 3.98583 48.1751 4.02797C48.2022 4.07012 48.3268 4.13714 48.4521 4.17652C48.5776 4.21613 48.7282 4.31493 48.787 4.39622C48.8459 4.47729 48.9242 4.51345 48.9609 4.47637C48.9976 4.43906 49.0832 4.48074 49.151 4.56849C49.2651 4.71611 49.2696 4.71427 49.213 4.54408C49.1562 4.37319 49.1644 4.3702 49.3269 4.50193C49.4232 4.58023 49.6253 4.70345 49.7759 4.77599C50.0148 4.89114 50.3249 5.10578 50.7076 5.4206C50.7683 5.47058 50.8787 5.51134 50.9533 5.51134C51.0277 5.51134 51.1144 5.55348 51.1459 5.60507C51.1774 5.65643 51.2381 5.6767 51.281 5.65021C51.3236 5.6235 51.4341 5.6988 51.5267 5.81741C51.6191 5.93601 51.7978 6.05923 51.9237 6.09101C52.2076 6.16286 52.5597 6.48459 52.5597 6.67183C52.5597 6.74898 52.5905 6.79273 52.6281 6.76947C52.6657 6.74621 52.8608 6.87219 53.0616 7.04952C53.2624 7.22708 53.3754 7.34476 53.3126 7.31137C53.2499 7.27798 53.1985 7.27498 53.1985 7.30446C53.1985 7.33417 53.3005 7.3975 53.4249 7.44517C53.5869 7.50735 53.6346 7.57645 53.5919 7.68837C53.5547 7.78625 53.5686 7.82218 53.6291 7.78441C53.682 7.75124 53.7763 7.78602 53.8383 7.86133C53.9004 7.93687 53.9152 7.99928 53.8714 7.99997C53.8276 8.00066 53.8945 8.05386 54.02 8.11811C54.1466 8.18306 54.2481 8.31548 54.2484 8.41612C54.2484 8.51584 54.2997 8.60243 54.3624 8.60888C54.425 8.61533 54.5199 8.62546 54.5731 8.63191C54.6262 8.63836 54.6442 8.68488 54.6132 8.73555C54.5822 8.78621 54.6002 8.82767 54.6534 8.82767C54.7065 8.82767 54.7501 8.89031 54.7501 8.96677C54.7501 9.04323 54.8323 9.17681 54.9327 9.26363C55.033 9.35045 55.1152 9.47435 55.1152 9.53907C55.1152 9.60378 55.1547 9.65675 55.2028 9.65675C55.2509 9.65675 55.3397 9.82257 55.3997 10.0252C55.46 10.2279 55.5462 10.3937 55.5914 10.3937C55.6366 10.3937 55.6482 10.4352 55.6172 10.4858C55.5861 10.5365 55.6224 10.578 55.6977 10.578C55.7862 10.578 55.8223 10.644 55.7993 10.7647C55.7796 10.8674 55.8024 10.9271 55.8501 10.8974C55.8976 10.8677 55.9428 10.8976 55.9505 10.9639C55.9811 11.2302 55.9948 11.2762 56.0972 11.4639C56.1561 11.5712 56.1746 11.6887 56.1388 11.7251C56.103 11.7612 56.1146 11.7771 56.1648 11.7601C56.215 11.7433 56.2629 11.7663 56.2711 11.8112C56.2793 11.8564 56.3332 11.9224 56.3909 11.9584C56.4484 11.9943 56.4993 12.1537 56.5038 12.3126C56.5082 12.4715 56.5878 12.6707 56.6807 12.7554C56.8712 12.9296 56.9148 13.2064 56.7352 13.1018C56.6725 13.0654 56.7135 13.1382 56.8265 13.2635C57.0378 13.4982 57.1023 13.6727 56.9406 13.5719C56.8904 13.5405 56.8493 13.5587 56.8493 13.6124C56.8493 13.6661 56.8904 13.71 56.9406 13.71C56.9908 13.71 57.0318 13.8111 57.0318 13.9348C57.0318 14.0585 57.0775 14.1881 57.1334 14.2232C57.1995 14.2644 57.2139 14.4456 57.1747 14.7446C57.1316 15.0723 57.1514 15.26 57.2447 15.4034C57.3164 15.514 57.3643 15.7687 57.3513 15.97C57.3385 16.171 57.3716 16.4184 57.4252 16.5197C57.4788 16.621 57.5286 16.7765 57.5359 16.8652C57.5569 17.1236 57.6404 17.1473 57.9605 16.9861C58.1583 16.8864 58.2727 16.8686 58.2943 16.9343C58.3155 16.9985 58.3648 17.0029 58.4326 16.9467C58.4905 16.8986 58.7431 16.8368 58.9941 16.8097C59.2451 16.7825 59.5737 16.738 59.7243 16.7109C59.9709 16.6662 59.9755 16.6694 59.7699 16.7426C59.5488 16.8212 59.5506 16.8239 59.8329 16.8329C59.9931 16.838 60.1519 16.797 60.1856 16.7419C60.2297 16.6699 60.2746 16.6699 60.3461 16.7419C60.4006 16.797 60.5783 16.8421 60.741 16.8421C60.9037 16.8421 61.0623 16.8836 61.0933 16.9343C61.1244 16.9849 61.3117 17.0264 61.5095 17.0264C61.7073 17.0264 61.8691 17.0678 61.8691 17.1185C61.8691 17.1692 61.9127 17.2106 61.9659 17.2106C62.019 17.2106 62.037 17.1692 62.006 17.1185C61.975 17.0678 61.993 17.0264 62.0462 17.0264C62.0993 17.0264 62.1429 17.0678 62.1429 17.1185C62.1429 17.1692 62.2374 17.2106 62.3528 17.2106C62.4683 17.2106 62.6059 17.2541 62.6584 17.3071C62.7111 17.3603 62.8528 17.4153 62.9732 17.4294C63.3046 17.4683 63.5179 17.5869 63.4517 17.6952C63.4184 17.7493 63.436 17.7647 63.4916 17.7299C63.5459 17.6961 63.6165 17.7104 63.648 17.7617C63.6794 17.8133 63.7463 17.8555 63.7965 17.8555C63.8467 17.8555 63.8586 17.8076 63.8227 17.7491C63.7821 17.6827 63.7976 17.6678 63.8645 17.7094C63.9231 17.7461 63.9475 17.8147 63.9188 17.8619C63.8898 17.9089 63.9507 17.9476 64.0541 17.9476C64.1575 17.9476 64.2421 17.9853 64.2421 18.0316C64.2421 18.0777 64.3117 18.1051 64.3966 18.0927C64.4817 18.08 64.6651 18.1873 64.8043 18.331C64.9435 18.4747 65.1247 18.5924 65.2071 18.5924C65.2983 18.5924 65.3376 18.6431 65.3077 18.7221C65.2536 18.8644 66.2872 19.8538 66.4449 19.8107C66.4958 19.7969 66.5113 19.828 66.4796 19.8798C66.4479 19.9318 66.4794 19.9742 66.5494 19.9742C66.674 19.9742 66.8857 20.3326 66.8921 20.5543C66.8939 20.6151 67.0012 20.7895 67.1303 20.9415C67.2597 21.0935 67.3377 21.166 67.3042 21.1027C67.2707 21.0394 67.2914 20.9875 67.3505 20.9875C67.4162 20.9875 67.4407 21.0783 67.4135 21.2211C67.3893 21.3493 67.3907 21.4329 67.4167 21.4067C67.4883 21.3344 67.7042 21.6559 67.7074 21.8397C67.709 21.9283 67.7514 22.0009 67.8016 22.0009C67.8518 22.0009 67.8929 22.066 67.8929 22.1457C67.8929 22.2252 67.9527 22.3507 68.0259 22.4246C68.0992 22.4985 68.1357 22.6199 68.1074 22.6945C68.0777 22.7724 68.1085 22.8306 68.1797 22.8313C68.2753 22.8325 68.2723 22.8532 68.1667 22.9221C68.0754 22.9815 68.0679 23.0119 68.1439 23.0128C68.2066 23.0135 68.2593 23.0867 68.2609 23.1754C68.2625 23.2641 68.3207 23.4126 68.3903 23.5052C68.4601 23.598 68.4989 23.7742 68.477 23.8967C68.4549 24.0194 68.4788 24.1196 68.5299 24.1196C68.5811 24.1196 68.623 24.2051 68.623 24.3094C68.623 24.4292 68.5843 24.4748 68.5176 24.4333C68.4455 24.3882 68.4375 24.4082 68.4923 24.4969C68.6071 24.6825 68.605 26.9014 68.49 27.0622C68.4191 27.1612 68.4239 27.1773 68.509 27.1257C68.5717 27.0877 68.623 27.1004 68.623 27.1541C68.623 27.2077 68.5717 27.2524 68.509 27.2531C68.433 27.254 68.4405 27.2844 68.5318 27.3438C68.623 27.4033 68.6306 27.4337 68.5546 27.4346C68.4918 27.4353 68.4405 27.5396 68.4405 27.6663C68.4405 27.7929 68.3994 27.8966 68.3492 27.8966C68.299 27.8966 68.258 27.9405 68.258 27.9942C68.258 28.0479 68.299 28.0661 68.3492 28.0347C68.3994 28.0034 68.4405 28.0216 68.4405 28.0753C68.4405 28.1289 68.3994 28.1729 68.3492 28.1729C68.299 28.1729 68.258 28.2524 68.258 28.3496C68.258 28.4465 68.2066 28.5502 68.1439 28.5799C68.0544 28.622 68.0558 28.6455 68.1503 28.6895C68.2395 28.7309 68.2212 28.7802 68.0793 28.8806C67.9741 28.955 67.894 29.0646 67.9013 29.1241C67.9356 29.4048 67.884 29.6521 67.8016 29.6008C67.7514 29.5695 67.7104 29.6268 67.7104 29.7284C67.7104 29.8297 67.6191 29.9773 67.5075 30.0561C67.3959 30.1351 67.3421 30.1996 67.3879 30.1996C67.4338 30.1996 67.3918 30.2617 67.2942 30.338C67.1465 30.4534 67.1436 30.4669 67.2768 30.4202C67.4717 30.3518 67.4943 30.5515 67.3001 30.6265C67.2252 30.6558 67.1908 30.7237 67.2239 30.7776C67.2613 30.8387 67.2278 30.8541 67.1349 30.8179C67.053 30.7864 66.9617 30.8 66.932 30.8483C66.9024 30.8969 66.9289 30.9365 66.9907 30.9365C67.0553 30.9365 67.0185 31.0275 66.9049 31.1498C66.7956 31.267 66.7064 31.4121 66.7064 31.4722C66.7064 31.5323 66.6423 31.5814 66.564 31.5814C66.4857 31.5814 66.4472 31.6228 66.4782 31.6735C66.5092 31.7242 66.4552 31.7656 66.358 31.7656C66.2608 31.7656 66.13 31.8278 66.0675 31.9038C65.9301 32.0708 66.0707 32.0885 66.2503 31.9268C66.3591 31.8289 66.36 31.8356 66.2573 31.9729C66.1907 32.0616 66.0773 32.1341 66.0052 32.1341C65.9285 32.1341 65.9014 32.1788 65.9402 32.2419C65.9849 32.3149 65.9559 32.3303 65.8507 32.2895C65.7547 32.2522 65.6757 32.2813 65.6438 32.3653C65.6153 32.4402 65.5482 32.4742 65.4948 32.4409C65.4339 32.4029 65.4193 32.4374 65.4558 32.5334C65.4882 32.6184 65.4699 32.6868 65.4152 32.6868C65.3608 32.6868 65.1774 32.84 65.0074 33.0272C64.8374 33.2144 64.6985 33.3195 64.6985 33.2605C64.6985 33.2015 64.6394 33.176 64.5673 33.2041C64.4952 33.2319 64.4584 33.3135 64.4858 33.3853C64.5132 33.4572 64.4899 33.5159 64.4345 33.5159C64.3788 33.5159 64.3302 33.4641 64.3261 33.4007C64.3204 33.3093 64.3094 33.3093 64.2727 33.4012C64.2474 33.465 64.1887 33.4933 64.1424 33.4645C64.0961 33.4358 64.0336 33.477 64.0034 33.5562C63.9733 33.6354 63.8916 33.7001 63.8216 33.7001C63.7518 33.7001 63.6945 33.7441 63.6945 33.7978C63.6945 33.8514 63.658 33.8726 63.6135 33.8448C63.569 33.8169 63.4823 33.8556 63.4207 33.9307C63.35 34.0166 63.2281 34.0465 63.0907 34.0117C62.929 33.9707 62.8731 33.9945 62.8731 34.1048C62.8731 34.1861 62.856 34.2529 62.835 34.2529C62.814 34.2529 62.7216 34.2775 62.6296 34.3077C62.4904 34.353 62.4854 34.3457 62.5993 34.263C62.7131 34.1803 62.7015 34.1633 62.5308 34.1621C62.4179 34.1614 62.3255 34.2022 62.3255 34.2529C62.3255 34.3035 62.2638 34.345 62.1885 34.345C62.1133 34.345 62.0517 34.3864 62.0517 34.4371C62.0517 34.4878 61.9284 34.5292 61.7778 34.5292C61.6272 34.5292 61.504 34.5707 61.504 34.6213C61.504 34.672 61.4194 34.7135 61.316 34.7135C61.2111 34.7135 61.1536 34.6718 61.186 34.619C61.2503 34.514 61.031 34.5361 60.9521 34.6425C60.8547 34.7738 58.6564 34.7404 58.5725 34.6064C58.5099 34.5071 58.4944 34.5101 58.4921 34.6213C58.4896 34.7441 58.4796 34.7441 58.4009 34.6213C58.342 34.5292 58.3119 34.5216 58.311 34.5983C58.3092 34.7503 11.0773 34.7697 10.9842 34.6177C10.9518 34.5649 10.8571 34.5435 10.7734 34.5704C10.6899 34.5972 10.5071 34.5592 10.3675 34.4859C10.2278 34.4127 10.1377 34.3924 10.1674 34.441C10.2481 34.5725 10.1607 34.5495 9.79589 34.3427C9.61495 34.2402 9.49311 34.1987 9.52505 34.2508C9.58848 34.3544 9.25375 34.3309 9.14834 34.2245C9.11343 34.1895 9.00984 34.1607 8.91765 34.1607C8.8257 34.1607 8.7504 34.1179 8.7504 34.0656C8.7504 34.0136 8.61692 33.9776 8.45378 33.9862C8.17039 34.0009 7.61045 33.7761 7.70149 33.684C7.72545 33.6598 7.62209 33.6585 7.47195 33.6806C7.29603 33.7066 7.19883 33.681 7.19883 33.6087C7.19883 33.5449 7.2602 33.52 7.34052 33.5511C7.42791 33.585 7.45894 33.5679 7.42152 33.5069C7.38798 33.4523 7.28462 33.4279 7.19175 33.4523C7.09866 33.477 7.03135 33.4523 7.0423 33.398C7.05302 33.3434 6.93871 33.255 6.78811 33.2013C6.63752 33.1476 6.48236 33.0532 6.44334 32.9913C6.40455 32.9293 6.31214 32.9021 6.23799 32.9307C6.12048 32.9763 6.06344 32.8773 6.08968 32.6732C6.09378 32.6405 6.01734 32.6348 5.91946 32.6606C5.79373 32.6937 5.71547 32.644 5.65204 32.4899C5.54571 32.2322 5.33305 31.9499 5.24543 31.9499C5.21121 31.9499 5.09256 31.8644 4.98167 31.7599C4.79365 31.5828 4.79228 31.5738 4.96273 31.6281C5.13272 31.6822 5.13203 31.6779 4.95337 31.5648C4.84773 31.4978 4.7811 31.3856 4.80552 31.3151C4.8297 31.2449 4.81122 31.211 4.76467 31.2401C4.7179 31.2693 4.62754 31.2085 4.56365 31.1051C4.48265 30.9743 4.47991 30.9377 4.55475 30.9842C4.61385 31.0213 4.594 30.946 4.51026 30.8175C4.42675 30.6887 4.2903 30.557 4.20679 30.5248C4.07605 30.4741 4.07376 30.4541 4.18945 30.3804C4.30217 30.3083 4.29806 30.2942 4.16412 30.2931C4.06578 30.2921 4.0044 30.221 4.0044 30.1074C4.0044 30.0061 3.96082 29.9232 3.90765 29.9232C3.85449 29.9232 3.83646 29.8818 3.8675 29.8311C3.89853 29.7804 3.87548 29.739 3.81616 29.739C3.73995 29.739 3.7452 29.6931 3.8335 29.5831C3.90241 29.4974 3.91199 29.4555 3.85495 29.49C3.73516 29.5626 3.59049 29.1913 3.51999 28.6294C3.50379 28.5004 3.45633 28.339 3.41457 28.2706C3.37282 28.2024 3.34179 28.0271 3.34589 27.8816C3.35046 27.7215 3.31623 27.64 3.25919 27.6757C3.19575 27.7151 3.19302 27.6778 3.25052 27.5622C3.36437 27.3337 3.37921 26.4226 3.26923 26.4226C3.22177 26.4226 3.18298 26.3786 3.18298 26.325C3.18298 26.2713 3.22405 26.2531 3.27425 26.2845C3.32855 26.3183 3.36552 26.2087 3.36552 26.0136C3.36552 25.8326 3.41138 25.6857 3.46797 25.6857C3.5387 25.6857 3.53528 25.6431 3.45678 25.5475C3.36574 25.4367 3.36666 25.4093 3.46089 25.4093C3.52546 25.4093 3.55307 25.3838 3.52204 25.3524C3.49101 25.3211 3.5444 25.0867 3.64046 24.8315C3.73653 24.5761 3.79357 24.3324 3.76756 24.2896C3.74132 24.2468 3.76322 24.2118 3.81639 24.2118C3.86955 24.2118 3.91313 24.147 3.91313 24.068C3.91313 23.9831 3.95603 23.9513 4.01855 23.9902C4.0765 24.0264 4.10046 24.0176 4.07171 23.9709C4.00691 23.8652 4.31494 23.1742 4.39229 23.2521C4.4231 23.2832 4.42606 23.2226 4.39868 23.1171C4.36126 22.9727 4.40576 22.9036 4.57848 22.8373C4.70489 22.7887 4.83906 22.6987 4.87671 22.6372C4.92052 22.5658 4.90705 22.549 4.83997 22.5909C4.77836 22.6294 4.73455 22.5996 4.73455 22.5193C4.73455 22.4435 4.81738 22.3553 4.91846 22.3228C5.01954 22.2904 5.07864 22.2254 5.04989 22.1784C5.02114 22.1314 5.06153 22.093 5.13979 22.093C5.21805 22.093 5.28217 22.0283 5.28217 21.9493C5.28217 21.8703 5.32324 21.8314 5.37344 21.8627C5.42364 21.894 5.46471 21.8526 5.46471 21.7706C5.46471 21.6883 5.50852 21.6487 5.56214 21.6824C5.61599 21.716 5.68261 21.6543 5.71091 21.5444C5.74057 21.4302 5.81313 21.3652 5.88158 21.3917C5.94707 21.4171 6.01392 21.409 6.03058 21.374C6.04701 21.3388 6.22019 21.1649 6.41528 20.9875C6.61036 20.8102 6.74065 20.7169 6.70506 20.7803C6.66946 20.8436 6.68384 20.8954 6.737 20.8954C6.79017 20.8954 6.83375 20.8307 6.83375 20.7517C6.83375 20.6727 6.87048 20.631 6.91543 20.6591C6.96038 20.6872 7.02245 20.6439 7.05302 20.5629C7.08497 20.479 7.16756 20.4383 7.24514 20.4684C7.32523 20.4993 7.38136 20.4689 7.38136 20.3945C7.38136 20.3132 7.45483 20.2817 7.58672 20.3063C7.69966 20.3275 7.73845 20.3194 7.6732 20.2883C7.47354 20.1937 7.85026 19.9818 8.1211 20.0362C8.29063 20.0703 8.3762 20.0392 8.41864 19.9275C8.45264 19.8377 8.53523 19.793 8.61167 19.8227C8.68514 19.851 8.8079 19.8109 8.88457 19.7333C9.01212 19.6048 9.06323 19.632 9.03493 19.813C9.029 19.851 9.06528 19.8821 9.11548 19.8821C9.16568 19.8821 9.20675 19.8199 9.20675 19.7439C9.20675 19.6679 9.23755 19.6025 9.2752 19.5986C9.6542 19.5595 9.9118 19.5721 9.87735 19.6285C9.85408 19.6663 9.94283 19.6559 10.0745 19.6055C10.3821 19.4876 10.5742 19.4876 10.3932 19.6057C10.2942 19.6702 10.3764 19.6953 10.6899 19.6965C10.9283 19.6972 11.1234 19.6652 11.1234 19.6253C11.1234 19.5855 11.2065 19.5466 11.308 19.5387C11.4221 19.5302 11.4686 19.5638 11.4298 19.6269C11.3892 19.6933 11.4209 19.7085 11.52 19.67C11.6039 19.6375 11.7851 19.6589 11.9227 19.7177C12.0605 19.7764 12.2962 19.8326 12.4468 19.8425C12.5974 19.8524 12.7822 19.8757 12.8575 19.8943C12.9723 19.9226 12.9969 19.7642 13.0099 18.9148C13.0394 16.9845 13.0711 16.659 13.2481 16.4672C13.3396 16.3682 13.3883 16.2443 13.3563 16.192C13.3244 16.1397 13.3634 15.9967 13.443 15.8739C13.5224 15.7514 13.5877 15.5253 13.5877 15.3714C13.5877 15.2176 13.6189 15.0918 13.657 15.0918C13.6951 15.0918 13.7803 15.0046 13.8462 14.8979C13.9121 14.7913 13.9222 14.7317 13.8683 14.7653C13.6789 14.8834 13.7725 14.652 13.9756 14.5C14.0885 14.4155 14.1296 14.3715 14.0668 14.4021C13.8834 14.4917 13.9338 14.1852 14.1307 14.0152C14.2284 13.9307 14.2834 13.8204 14.2526 13.7702C14.2193 13.7156 14.2599 13.7034 14.3532 13.7393C14.4394 13.7727 14.4874 13.7632 14.4598 13.7183C14.4324 13.6734 14.5319 13.5048 14.6809 13.3436C14.8301 13.1827 14.9435 13.0231 14.9332 12.989C14.9019 12.886 15.2625 12.5125 15.3932 12.5125C15.4603 12.5125 15.4897 12.471 15.4587 12.4204C15.4277 12.3697 15.4651 12.3282 15.5417 12.3282C15.6227 12.3282 15.6609 12.275 15.6328 12.2011C15.5748 12.0487 16.0325 11.6604 16.1695 11.7458C16.2288 11.7829 16.2436 11.7481 16.2082 11.6553C16.1412 11.4787 16.3164 11.3347 16.4109 11.489C16.4526 11.5574 16.5195 11.5123 16.5996 11.361C16.6895 11.1912 16.7438 11.1592 16.7972 11.244C16.8549 11.3361 16.8709 11.3366 16.872 11.2458C16.8727 11.1825 16.9325 11.1307 17.0048 11.1307C17.0771 11.1307 17.1616 11.0897 17.1921 11.0397C17.2248 10.9863 17.1796 10.9704 17.0835 11.001C16.9366 11.048 16.9379 11.0381 17.0961 10.908C17.1937 10.8278 17.3272 10.7622 17.3927 10.7622C17.4584 10.7622 17.5123 10.7182 17.5123 10.6645C17.5123 10.6109 17.5551 10.5938 17.6076 10.6265C17.6599 10.6592 17.7626 10.6358 17.8358 10.5745C17.9088 10.5135 17.9686 10.4937 17.9686 10.5307C17.9686 10.5681 18.0539 10.5006 18.158 10.3808C18.2623 10.2613 18.3216 10.2152 18.2896 10.2786C18.2577 10.3419 18.275 10.3937 18.3282 10.3937C18.3814 10.3937 18.4249 10.3329 18.4249 10.2585C18.4249 10.1761 18.4786 10.1438 18.5618 10.1761C18.6371 10.2053 18.6988 10.18 18.6988 10.1199C18.6988 10.0478 18.7868 10.0301 18.958 10.0681C19.1321 10.1068 19.2539 10.081 19.329 9.98977C19.3903 9.91492 19.5213 9.86955 19.6197 9.88866C19.7182 9.90778 19.7748 9.88429 19.7454 9.83615C19.6897 9.74519 19.7988 9.71824 20.1212 9.74334C20.2259 9.7514 20.3644 9.69383 20.429 9.6153C20.5595 9.45685 20.8892 9.42046 20.8892 9.56463C20.8892 9.6153 20.8173 9.65998 20.7295 9.66412C20.6291 9.6685 20.6134 9.68899 20.6868 9.7187C20.7514 9.74496 20.8609 9.7187 20.9303 9.66067C21.1144 9.50636 22.7897 9.48149 22.8469 9.63211C22.8714 9.69636 22.9772 9.74887 23.0822 9.74887C23.1871 9.74887 23.2497 9.71087 23.2214 9.66458C23.1703 9.58098 23.6202 9.70143 23.9196 9.85136C24.0065 9.89488 24.0973 9.89327 24.1252 9.8479C24.153 9.8023 24.2728 9.8129 24.3953 9.87116C24.5165 9.92897 24.5922 10.0144 24.5635 10.0612C24.5343 10.1093 24.6014 10.1227 24.7175 10.092C24.8307 10.0621 25.0322 10.0821 25.1652 10.1365C25.8298 10.4082 26.0154 10.5107 26.0612 10.6309C26.0886 10.7032 26.1682 10.7622 26.2383 10.7622C26.3081 10.7622 26.3661 10.814 26.3667 10.8773C26.3677 10.954 26.3978 10.9464 26.4566 10.8543C26.5052 10.7783 26.5509 10.7472 26.5579 10.7852C26.565 10.8232 26.581 10.8958 26.5935 10.9464C26.6061 10.9971 26.6216 11.0676 26.6278 11.103C26.6342 11.1385 26.6871 11.1192 26.7455 11.0602C26.8263 10.9787 26.8918 10.9999 27.0193 11.1482C27.1115 11.2553 27.1868 11.3096 27.1868 11.2686C27.1868 11.2276 27.268 11.2684 27.3673 11.3589C27.4663 11.4496 27.5218 11.5662 27.49 11.6178C27.4583 11.6696 27.477 11.6841 27.5316 11.65C27.5868 11.6155 27.7022 11.7099 27.7917 11.8626C27.9115 12.0673 27.9815 12.1124 28.0678 12.0401C28.1561 11.9662 28.1748 11.989 28.1467 12.1357C28.1184 12.2836 28.1565 12.3285 28.3101 12.3296C28.4728 12.3308 28.4846 12.3478 28.3733 12.4204C28.2558 12.497 28.2588 12.5099 28.3938 12.5111C28.4803 12.5118 28.6106 12.6286 28.6834 12.7706C28.7562 12.9127 28.9175 13.106 29.0421 13.2004C29.1667 13.2948 29.2506 13.4196 29.2285 13.4779C29.2064 13.5359 29.2709 13.6589 29.3718 13.7513C29.4729 13.8434 29.5347 13.9528 29.5094 13.994C29.4416 14.1048 29.7969 14.2713 29.9634 14.2068C30.0419 14.1762 30.0855 14.117 30.0597 14.0753C30.0342 14.0334 30.0556 13.9726 30.1074 13.9403C30.1592 13.9081 30.1797 13.8459 30.153 13.8022C30.1263 13.7584 30.1469 13.6962 30.1987 13.664C30.2505 13.6317 30.2692 13.5666 30.2404 13.5194C30.2115 13.4724 30.2338 13.4337 30.2899 13.4337C30.3461 13.4337 30.365 13.3897 30.3319 13.3358C30.2991 13.2819 30.3456 13.1557 30.4355 13.0555C30.5934 12.8793 30.593 12.875 30.4218 12.9305C30.2491 12.9867 30.2489 12.9844 30.4154 12.8469C30.5199 12.7605 30.564 12.6461 30.5286 12.5528C30.4864 12.442 30.5085 12.4146 30.6083 12.4533C30.6842 12.4828 30.7463 12.4701 30.7463 12.4252C30.7463 12.3803 30.7086 12.3299 30.6626 12.3128C30.5161 12.2591 30.668 11.7838 30.8501 11.7255C30.9462 11.6947 31.019 11.6208 31.0117 11.5613C30.9834 11.3303 31.024 11.2145 31.1137 11.2702C31.165 11.3022 31.2013 11.2944 31.1942 11.2527C31.1472 10.9808 31.2398 10.7475 31.4938 10.4967C31.6731 10.3198 31.7345 10.209 31.6535 10.2081C31.5428 10.2069 31.5438 10.1927 31.659 10.1174C31.7343 10.0683 31.7623 10.0273 31.7213 10.0266C31.6802 10.0259 31.7315 9.90479 31.8354 9.75762C31.9392 9.61046 32.0241 9.46468 32.0241 9.43359C32.0241 9.4025 32.2705 9.12982 32.5717 8.82767C32.8729 8.52552 33.1193 8.21599 33.1193 8.13953C33.1193 7.98477 33.3913 7.63011 33.5102 7.63011C33.5521 7.63011 33.5585 7.68192 33.5243 7.74526C33.4901 7.80859 33.5852 7.73604 33.7356 7.58405C33.8862 7.43205 33.9914 7.2766 33.9695 7.2386C33.9478 7.2006 33.9734 7.1695 34.0265 7.1695C34.0797 7.1695 34.1233 7.11262 34.1233 7.04284C34.1233 6.97329 34.2467 6.8913 34.3978 6.86067C34.5513 6.82981 34.662 6.75358 34.6487 6.68795C34.6357 6.62346 34.6766 6.58109 34.7393 6.59375C34.8021 6.60642 34.8431 6.56496 34.8306 6.50163C34.818 6.4383 34.8865 6.38625 34.9828 6.38602C35.0791 6.38579 35.1751 6.33374 35.1959 6.27041C35.2169 6.20685 35.278 6.18244 35.3317 6.21583C35.3871 6.25061 35.4029 6.23356 35.3679 6.17668C35.2922 6.05301 35.6673 5.77388 35.8038 5.85242C35.8583 5.88374 35.8729 5.87568 35.8362 5.83468C35.728 5.71401 36.196 5.34046 36.536 5.2762C36.7589 5.23383 36.8342 5.17856 36.7979 5.08298C36.7582 4.97889 36.7997 4.96253 36.9859 5.00975C37.163 5.05465 37.2399 5.03024 37.2837 4.91532C37.3375 4.77369 37.7366 4.54385 37.8794 4.5724C37.9123 4.57885 37.9892 4.52335 38.0504 4.44896C38.1115 4.37458 38.2509 4.31378 38.3602 4.31378C38.4695 4.31378 38.6082 4.26403 38.6685 4.20323C38.7536 4.11733 38.7782 4.1224 38.7794 4.22626C38.7803 4.31792 38.8017 4.32667 38.8478 4.2539C38.8848 4.19563 38.997 4.13345 39.0974 4.11572C39.1978 4.09798 39.3005 4.06275 39.3256 4.03742C39.4406 3.92134 39.7943 3.75829 39.7404 3.84627C39.7071 3.90085 39.7233 3.9453 39.7765 3.9453C39.8296 3.9453 39.8732 3.90384 39.8732 3.85317C39.8732 3.80251 39.9725 3.76106 40.0939 3.76106C40.215 3.76106 40.3353 3.70924 40.3606 3.64591C40.3955 3.55931 40.4309 3.56484 40.5037 3.66894C40.5573 3.74517 40.6011 3.76013 40.602 3.70233C40.6036 3.58441 40.9924 3.48562 41.6206 3.4437C41.8535 3.42827 42.0897 3.38728 42.1454 3.3525C42.2008 3.31796 42.2462 3.33339 42.2462 3.38705C42.2462 3.44071 42.3489 3.48469 42.4744 3.48469C42.5999 3.48469 42.7026 3.45199 42.7026 3.41215C42.7026 3.37231 42.834 3.32947 42.9944 3.31727C43.155 3.30483 43.3091 3.27144 43.3367 3.24265C43.3645 3.21409 43.5719 3.21916 43.7978 3.25393C44.0237 3.28894 44.2599 3.32049 44.3226 3.32418ZM52.1234 6.38948C52.2598 6.53457 52.3878 6.63452 52.4079 6.61195C52.428 6.58915 52.3162 6.47054 52.1597 6.34825L51.8751 6.12601L52.1234 6.38948ZM22.4289 18.9427C22.3288 19.0136 22.1633 19.0493 22.0611 19.0224C21.9587 18.9954 21.8973 18.9957 21.9242 19.0231C21.9902 19.0894 21.6358 19.4676 21.5076 19.4676C21.4519 19.4676 21.399 19.5691 21.3898 19.6933C21.3807 19.8172 21.3305 19.9332 21.2778 19.951C21.2253 19.9687 21.205 20.0705 21.2326 20.1773C21.2671 20.3098 21.2495 20.3505 21.1774 20.3056C20.973 20.178 21.0439 21.3832 21.2543 21.6112C21.4555 21.8291 21.4959 21.9564 21.3314 21.8539C21.2657 21.8129 21.2509 21.8286 21.2922 21.8961C21.3284 21.9553 21.3964 21.9799 21.4432 21.9509C21.4898 21.9216 21.5281 21.9417 21.5281 21.9953C21.5281 22.049 21.587 22.093 21.6588 22.093C21.7307 22.093 21.8156 22.1759 21.8475 22.2772C21.8795 22.3786 21.966 22.4615 22.0401 22.4615C22.114 22.4615 22.2628 22.5444 22.3705 22.6457C22.4782 22.747 22.6101 22.8293 22.6633 22.8286C22.7167 22.8279 22.6986 22.7869 22.6233 22.7378C22.4134 22.601 22.6801 22.6229 22.9035 22.7609C23.0605 22.8578 23.1039 22.8509 23.1794 22.7171C23.2403 22.6084 23.3549 22.5681 23.5394 22.5897C23.6882 22.6073 23.8098 22.5856 23.8098 22.5416C23.8098 22.4974 23.915 22.4615 24.0435 22.4615C24.1719 22.4615 24.2548 22.4253 24.2278 22.3813C24.166 22.2804 24.44 21.9624 24.6598 21.88C24.7508 21.8459 24.8019 21.7795 24.7732 21.7326C24.7444 21.6856 24.7857 21.5817 24.8651 21.5016C24.9445 21.4214 24.9639 21.356 24.9083 21.356C24.8368 21.356 24.8348 21.3042 24.9019 21.1778C25.1415 20.7262 24.9528 19.9482 24.4996 19.5185C24.3743 19.3998 24.2977 19.2568 24.3292 19.2009C24.3609 19.1449 24.3543 19.1288 24.3146 19.1649C24.2746 19.2011 24.1551 19.182 24.0487 19.1223C23.9424 19.0627 23.8196 19.0245 23.7758 19.0371C23.732 19.05 23.7181 19.0028 23.7448 18.9323C23.8128 18.7539 22.6836 18.7628 22.4289 18.9427ZM26.949 18.8842C26.9239 18.9252 26.9776 18.9323 27.0679 18.9003C27.1834 18.8591 27.2053 18.8715 27.1412 18.9418C27.091 18.9968 26.9294 19.0638 26.7825 19.0906C26.6353 19.1173 26.4505 19.2105 26.3718 19.2983C26.2394 19.4452 26.241 19.448 26.3902 19.3344C26.5306 19.2276 26.5445 19.2313 26.4945 19.3623C26.463 19.4457 26.3638 19.5136 26.2743 19.5136C26.0849 19.5136 26.0083 19.8347 25.9442 20.8954C25.9147 21.3827 25.93 21.5456 25.9957 21.4481C26.0699 21.3378 26.0891 21.3595 26.0902 21.5557C26.092 21.8795 26.1817 22.1045 26.2837 22.0409C26.3286 22.0128 26.3654 22.0545 26.3654 22.1335C26.3654 22.2125 26.4167 22.2669 26.4795 22.2542C26.5422 22.2415 26.5819 22.2869 26.568 22.3551C26.5538 22.423 26.5949 22.4605 26.6593 22.4384C26.7234 22.4163 26.9404 22.5022 27.1412 22.6294C27.3652 22.771 27.4579 22.8009 27.381 22.707C27.2737 22.5757 27.2758 22.5536 27.394 22.5536C27.4702 22.5536 27.556 22.6158 27.585 22.6918C27.6429 22.8445 28.0082 22.8843 28.0082 22.7378C28.0082 22.6872 28.0723 22.6457 28.1506 22.6457C28.2311 22.6457 28.2658 22.6899 28.2305 22.7473C28.1962 22.8032 28.2743 22.7791 28.4036 22.6934C28.5337 22.6075 28.6918 22.5686 28.7571 22.6066C28.8221 22.6443 28.8449 22.6413 28.8075 22.5999C28.7206 22.5029 28.9147 22.2625 29.0247 22.3311C29.0706 22.3597 29.0966 22.329 29.0829 22.2632C29.069 22.1973 29.1502 22.1291 29.2632 22.1119C29.3761 22.0944 29.4685 22.0391 29.4685 21.9891C29.4685 21.9389 29.4275 21.9235 29.3773 21.9548C29.3271 21.9861 29.286 21.9778 29.286 21.9364C29.286 21.8949 29.3681 21.8093 29.4685 21.7459C29.5735 21.6796 29.6511 21.5311 29.6511 21.3959C29.6511 21.2667 29.6894 21.1849 29.7364 21.2142C29.7889 21.2469 29.7914 21.1598 29.7428 20.9894C29.6883 20.7969 29.6956 20.7112 29.767 20.7112C29.8402 20.7112 29.8382 20.6789 29.7606 20.6006C29.7003 20.5398 29.6511 20.3947 29.6511 20.2782C29.6511 20.1617 29.61 20.0663 29.5598 20.0663C29.5096 20.0663 29.4685 19.989 29.4685 19.8945C29.4685 19.8001 29.3878 19.6191 29.289 19.4924C29.1902 19.3655 29.1388 19.2267 29.1749 19.1836C29.2109 19.1405 29.1625 19.1656 29.0674 19.2396C28.9063 19.3648 28.899 19.3584 28.9595 19.1444C29.0097 18.966 29.0021 18.9457 28.9252 19.053C28.8392 19.173 28.808 19.167 28.6877 19.0079C28.5426 18.8156 27.0558 18.7101 26.949 18.8842ZM31.8301 18.8227C31.8237 18.848 31.8084 18.9102 31.7959 18.9609C31.7833 19.0116 31.7681 19.0788 31.7617 19.1104C31.7555 19.1419 31.6948 19.1214 31.6273 19.0645C31.5061 18.9632 31.1221 19.258 31.1798 19.4081C31.1924 19.4408 31.165 19.4676 31.1189 19.4676C30.9781 19.4676 30.9382 19.553 30.9147 19.9026C30.9024 20.0875 30.8595 20.2181 30.8193 20.1932C30.7792 20.1681 30.7463 20.4194 30.7463 20.7517C30.7463 21.1603 30.7817 21.356 30.8558 21.356C30.9352 21.356 30.938 21.3837 30.8652 21.4571C30.7385 21.5849 30.992 22.0695 31.2255 22.1455C31.3133 22.1741 31.3859 22.2673 31.3865 22.3525C31.3877 22.4863 31.4 22.4886 31.4764 22.3693C31.525 22.2934 31.5657 22.2781 31.5663 22.3355C31.5677 22.4324 31.8915 22.5863 32.0469 22.5635C32.0845 22.558 32.1153 22.6075 32.1153 22.6736C32.1153 22.8173 32.7268 22.8571 32.8115 22.7189C32.8473 22.6604 32.8948 22.6692 32.9399 22.7429C32.9961 22.8346 33.0424 22.8286 33.1551 22.7148C33.2357 22.6335 33.3794 22.5914 33.4828 22.6185C33.5841 22.6452 33.6669 22.6273 33.6669 22.5787C33.6669 22.5299 33.7712 22.3696 33.8985 22.2224C34.0756 22.0179 34.1171 21.9983 34.0753 22.139C34.045 22.2404 34.0906 22.1989 34.1764 22.0469C34.2622 21.8949 34.3708 21.7452 34.4181 21.7141C34.4653 21.6833 34.5004 21.6315 34.4961 21.599C34.4372 21.1545 34.5061 20.4341 34.6024 20.4889C34.6937 20.541 34.6937 20.5292 34.6024 20.43C34.5397 20.3616 34.4883 20.2312 34.4883 20.14C34.4883 20.0488 34.4046 19.8897 34.3024 19.7865C34.2002 19.6833 34.1417 19.5581 34.1723 19.5079C34.2031 19.4579 34.1737 19.4284 34.1073 19.4422C34.0368 19.457 33.9973 19.401 34.0128 19.3077C34.0322 19.191 33.9975 19.1643 33.8841 19.2082C33.778 19.2492 33.6601 19.1831 33.5113 18.9994C33.3917 18.8515 33.3005 18.772 33.3087 18.8227C33.3409 19.0231 33.2948 19.0922 33.2142 18.9637C33.1188 18.8114 32.1153 18.7304 32.1153 18.875C32.1153 18.9222 32.0435 18.9602 31.9556 18.9595C31.8192 18.9584 31.8157 18.945 31.9328 18.8688C32.0241 18.8094 32.0316 18.779 31.9556 18.778C31.8929 18.7773 31.8365 18.7974 31.8301 18.8227ZM36.9982 19.4215C37.0293 19.4722 36.9907 19.5136 36.9124 19.5136C36.8342 19.5136 36.7701 19.5576 36.7701 19.6113C36.7701 19.6649 36.7336 19.6861 36.6891 19.6582C36.6446 19.6304 36.5574 19.6695 36.4953 19.7448C36.4333 19.8204 36.4185 19.8835 36.4623 19.8851C36.5061 19.8869 36.442 19.9721 36.3197 20.0749C36.0616 20.2918 35.9913 21.1308 36.1969 21.5403C36.2606 21.6669 36.3128 21.7206 36.3133 21.6596C36.3135 21.5985 36.4141 21.6499 36.5369 21.7738C36.669 21.9071 36.8178 21.9767 36.902 21.944C36.98 21.9138 37.0439 21.9355 37.0439 21.9921C37.0439 22.0672 38.888 22.0944 43.8473 22.0918C48.2438 22.0895 50.6316 22.0566 50.596 21.9986C50.5656 21.9493 50.6437 21.9087 50.7692 21.9087C50.8947 21.9087 51.0225 21.8678 51.053 21.8178C51.0861 21.7637 51.0453 21.7512 50.9522 21.7874C50.8458 21.8284 50.8169 21.8132 50.8616 21.7402C50.8979 21.681 51.0037 21.6324 51.0966 21.6324C51.2066 21.6324 51.2568 21.576 51.2401 21.4712C51.226 21.3825 51.257 21.2273 51.309 21.1262C51.4199 20.9104 51.4555 20.2453 51.3524 20.3095C51.3136 20.3337 51.2819 20.2895 51.2819 20.211C51.2819 20.0408 51.0074 19.6979 50.8709 19.6979C50.818 19.6979 50.7153 19.615 50.643 19.5136C50.5116 19.3294 50.3083 19.2474 50.4148 19.4215C50.4459 19.4722 50.4048 19.5136 50.3235 19.5136C50.2423 19.5136 50.1949 19.4825 50.2181 19.4445C50.2414 19.4065 47.3176 19.3962 43.7207 19.4215C40.1238 19.4468 37.1671 19.4365 37.1504 19.3985C37.1335 19.3605 37.0799 19.3294 37.0309 19.3294C36.9818 19.3294 36.9672 19.3708 36.9982 19.4215ZM39.2699 23.7903C39.2396 23.87 39.1346 23.9354 39.0367 23.9354C38.9329 23.9354 38.8839 23.8939 38.919 23.8364C38.9557 23.7767 38.9103 23.7813 38.8042 23.8481C38.6452 23.9485 38.1941 24.5374 38.1781 24.6657C38.1567 24.8405 37.9171 25.2113 37.8521 25.1707C37.8092 25.144 37.7747 25.2177 37.7754 25.3347C37.7765 25.4874 37.7987 25.5125 37.8543 25.4238C37.965 25.2479 38.0399 25.6898 37.9388 25.9222C37.871 26.0783 37.8664 26.0749 37.9004 25.8927C37.9219 25.7787 37.9023 25.7087 37.8569 25.737C37.7327 25.8144 37.7571 26.0173 37.9055 26.1417C37.9778 26.2022 38.0145 26.3107 37.9874 26.3826C37.96 26.4544 38.0033 26.5387 38.0834 26.5698C38.1638 26.6007 38.2066 26.6633 38.1788 26.7087C38.151 26.754 38.1669 26.7911 38.2144 26.7911C38.2616 26.7911 38.3219 26.874 38.3481 26.9754C38.3803 27.1 38.4727 27.1596 38.6326 27.1596C38.7627 27.1596 38.9514 27.2425 39.0518 27.3438C39.1522 27.4452 39.3288 27.5281 39.4443 27.5281C39.5597 27.5281 39.7016 27.576 39.7598 27.6347C39.8331 27.7086 39.9017 27.7123 39.9834 27.6467C40.0482 27.5946 40.2575 27.5237 40.4484 27.4889C40.6394 27.4542 40.8176 27.3676 40.8448 27.2962C40.8719 27.225 40.9723 27.1414 41.0682 27.1108C41.164 27.0801 41.2423 26.9933 41.2423 26.9176C41.2423 26.842 41.2833 26.8059 41.3335 26.8372C41.3837 26.8685 41.4248 26.827 41.4248 26.7451C41.4248 26.6631 41.4659 26.6216 41.5161 26.6529C41.567 26.6847 41.6124 26.6057 41.6187 26.4742C41.6304 26.2359 41.6587 26.0733 41.6963 26.0311C41.8563 25.8517 41.7244 24.822 41.5206 24.6592C41.3755 24.5432 41.3481 24.4923 41.4476 24.5238C41.5355 24.5517 41.6073 24.5344 41.6073 24.4851C41.6073 24.4361 41.5268 24.396 41.4285 24.396C41.1823 24.396 40.8361 24.0185 40.991 23.9193C41.062 23.8739 40.9983 23.8456 40.824 23.8447C40.6691 23.844 40.5151 23.8156 40.4815 23.7818C40.3364 23.6353 39.3263 23.6422 39.2699 23.7903ZM44.3764 23.8025C44.3463 23.8815 44.2635 23.9234 44.1921 23.8958C44.1159 23.8661 44.0867 23.8854 44.1213 23.9423C44.2028 24.075 43.8993 24.396 43.6924 24.396C43.5669 24.396 43.524 24.4651 43.524 24.6668C43.524 24.8158 43.4829 24.9635 43.4327 24.9948C43.3011 25.0768 43.3198 26.0857 43.4555 26.2336C43.5445 26.3303 43.5448 26.3434 43.4567 26.2932C43.2463 26.1735 43.4393 26.4979 43.6687 26.6495C43.7898 26.7296 43.8891 26.8353 43.8891 26.8844C43.8891 27.0256 44.1914 27.3438 44.3256 27.3438C44.3926 27.3438 44.4257 27.3795 44.399 27.4231C44.3723 27.4666 44.4483 27.4912 44.5681 27.4781C44.6877 27.4648 44.9015 27.5145 45.0429 27.5886C45.2109 27.6766 45.3113 27.6895 45.3323 27.6257C45.3501 27.5721 45.4819 27.5281 45.6255 27.5281C45.7688 27.5281 45.9116 27.4866 45.9426 27.436C45.9737 27.3853 46.0766 27.3438 46.1715 27.3438C46.2664 27.3438 46.4546 27.2402 46.5902 27.1135C46.7255 26.9869 46.8054 26.8832 46.7672 26.8832C46.7294 26.8832 46.7755 26.8107 46.8699 26.722C46.9644 26.6334 47.0018 26.5919 46.953 26.6299C46.7766 26.7674 46.7237 26.6949 46.8724 26.5194C46.9562 26.4208 47.0648 26.3651 47.1138 26.3955C47.1645 26.427 47.1736 26.4033 47.1353 26.3406C47.0981 26.2801 47.1227 26.1619 47.1898 26.0786C47.2603 25.9906 47.2669 25.9537 47.2051 25.9911C47.1291 26.0371 47.1008 25.9151 47.1059 25.5634C47.1097 25.2926 47.0794 25.0164 47.0383 24.9496C46.989 24.869 46.9995 24.8501 47.0693 24.8939C47.2236 24.9899 47.1983 24.8066 47.0388 24.6733C46.9642 24.6106 46.9295 24.5162 46.9617 24.4635C46.9941 24.4107 46.9792 24.3932 46.9288 24.4248C46.8254 24.489 46.4453 24.0876 46.4432 23.9117C46.4423 23.8329 46.4209 23.8285 46.3748 23.8979C46.3264 23.9706 46.237 23.969 46.0547 23.8926C45.9152 23.8341 45.821 23.7666 45.8447 23.7424C45.8687 23.7182 45.6026 23.697 45.2538 23.6952C44.9047 23.6931 44.6192 23.7258 44.6192 23.7675C44.6192 23.8092 44.5756 23.8433 44.5225 23.8433C44.4693 23.8433 44.4513 23.8018 44.4823 23.7512C44.5134 23.7005 44.5145 23.659 44.4848 23.659C44.4552 23.659 44.4063 23.7235 44.3764 23.8025ZM48.7613 24.197C48.4893 24.4782 48.2807 24.7511 48.2981 24.8036C48.3154 24.8559 48.2545 24.98 48.1628 25.0793C48.0713 25.1786 47.9969 25.3246 47.9976 25.4036C47.9989 25.5302 48.0096 25.5309 48.0879 25.4093C48.1561 25.3036 48.1726 25.3306 48.158 25.5245C48.1475 25.6638 48.1068 25.7778 48.0676 25.7778C48.0284 25.7778 47.9962 25.84 47.9962 25.916C47.9962 25.992 48.0398 26.0542 48.0929 26.0542C48.1461 26.0542 48.1602 26.0063 48.1244 25.9478C48.0859 25.8851 48.0991 25.8662 48.1566 25.9022C48.2102 25.9356 48.2355 26.0802 48.2132 26.2234C48.1815 26.4266 48.2184 26.5062 48.3811 26.5852C48.4957 26.641 48.534 26.6893 48.4662 26.6928C48.3528 26.6985 48.7204 27.1131 49.1163 27.4263C49.2582 27.5382 49.271 27.5354 49.2206 27.403C49.1886 27.3187 49.208 27.2517 49.2641 27.2517C49.3198 27.2517 49.3652 27.3183 49.3652 27.3998C49.3652 27.4875 49.4163 27.5281 49.4907 27.4991C49.5599 27.4723 49.7235 27.5067 49.8542 27.5751C50.0212 27.6626 50.1107 27.6699 50.1536 27.5997C50.1933 27.5348 50.1698 27.526 50.0867 27.5746C50.0137 27.6174 49.99 27.6149 50.0317 27.5686C50.0721 27.5239 50.2396 27.4993 50.4039 27.5136C50.5887 27.5295 50.7473 27.485 50.8201 27.3966C50.8846 27.318 50.9686 27.2731 51.0067 27.2969C51.0448 27.3208 51.2148 27.2064 51.3843 27.0426C51.5539 26.8791 51.722 26.755 51.7579 26.7672C51.7937 26.7791 51.8014 26.7326 51.7754 26.6638C51.7492 26.5949 51.7825 26.5173 51.8496 26.4913C52.0013 26.4325 51.9874 25.1868 51.8327 24.9987C51.7756 24.9294 51.7556 24.7583 51.7873 24.612C51.8192 24.4649 51.811 24.396 51.7683 24.455C51.7129 24.5316 51.6609 24.5254 51.5749 24.4319C51.4977 24.3479 51.492 24.3039 51.5587 24.3039C51.6171 24.3039 51.6022 24.2456 51.5231 24.1657C51.4478 24.0897 51.3442 24.0275 51.2926 24.0275C51.1135 24.0275 50.7297 23.811 50.8148 23.7578C50.862 23.7283 50.5305 23.7003 50.078 23.6952L49.2557 23.686L48.7613 24.197ZM22.5464 24.3709C22.6441 24.4927 22.6448 24.5088 22.5492 24.4508C22.4775 24.4073 22.3605 24.4409 22.2583 24.5342C22.1642 24.6201 22.0479 24.6659 21.9997 24.6357C21.9516 24.6058 21.8879 24.6454 21.858 24.7237C21.8229 24.8167 21.8407 24.8432 21.9098 24.8002C21.9813 24.7555 21.9956 24.7861 21.9543 24.8951C21.9208 24.9835 21.8925 25.0837 21.8918 25.1175C21.8911 25.1514 21.8569 25.1258 21.8161 25.0609C21.6123 24.7366 21.4968 25.6631 21.6981 26.0074C21.8056 26.1912 21.8523 26.316 21.8021 26.2845C21.6342 26.1799 21.7081 26.3529 21.905 26.5251C22.0118 26.6186 22.135 26.673 22.1788 26.6456C22.2224 26.6184 22.2583 26.6315 22.2583 26.675C22.2583 26.9779 35.4515 27.1736 35.6351 26.8733C35.6799 26.8003 35.7168 26.8029 35.7654 26.8821C35.8163 26.965 35.9103 26.9512 36.1419 26.8268C36.3117 26.7358 36.4865 26.6714 36.5303 26.6838C36.5741 26.6962 36.5834 26.6368 36.551 26.5516C36.4992 26.4157 36.5113 26.4123 36.6487 26.5247C36.7347 26.5954 36.7769 26.6055 36.7425 26.5475C36.708 26.4894 36.7413 26.4183 36.8162 26.389C36.8912 26.36 36.9494 26.2831 36.9453 26.2184C36.9398 26.1258 36.9282 26.1251 36.8921 26.2154C36.8668 26.2787 36.8009 26.3305 36.7454 26.3305C36.69 26.3305 36.755 26.2142 36.8899 26.0721C37.0482 25.9054 37.1329 25.7177 37.1288 25.5424C37.1235 25.3213 37.1096 25.3041 37.0532 25.4492C36.9636 25.6801 36.8997 25.5599 36.8209 25.012C36.7694 24.6537 36.7336 24.5883 36.6338 24.6717C36.5346 24.7548 36.5211 24.7334 36.5649 24.5625C36.6122 24.3771 36.6008 24.3651 36.4741 24.4699C36.3511 24.5717 36.3201 24.5613 36.2697 24.4008C36.2368 24.2967 36.141 24.2124 36.0566 24.2131C35.924 24.2143 35.9217 24.2267 36.0399 24.3039C36.157 24.3801 36.1535 24.3935 36.0171 24.3946C35.9293 24.3953 35.8574 24.3538 35.8574 24.3023C35.8574 24.2396 33.6372 24.2101 29.1406 24.2136C22.9024 24.2182 22.4328 24.2295 22.5464 24.3709ZM21.8019 25.6965C21.8019 25.7978 21.7633 25.8568 21.7163 25.8275C21.6693 25.7981 21.6369 25.6949 21.644 25.5982C21.6614 25.3685 21.8019 25.4563 21.8019 25.6965ZM22.8376 28.4988C22.8004 28.5967 22.7016 28.628 22.5209 28.5992C22.3589 28.5734 22.2576 28.5985 22.2567 28.6646C22.2557 28.7236 22.1229 28.865 21.9614 28.979C21.7999 29.093 21.7207 29.1862 21.7857 29.1862C21.8507 29.1862 21.8779 29.2289 21.8459 29.2811C21.7376 29.458 21.7695 30.3714 21.8891 30.5169C21.9539 30.5957 21.9783 30.6602 21.9434 30.6602C21.8245 30.6602 22.1209 30.9011 22.4308 31.0565C22.7169 31.2 23.7936 31.2117 36.6537 31.2117H50.5672L50.868 30.8483C51.0334 30.6482 51.1886 30.5045 51.2123 30.5287C51.2362 30.5529 51.3131 30.5013 51.383 30.4144C51.4672 30.3099 51.4715 30.2797 51.396 30.3255C51.325 30.3686 51.2819 30.3426 51.2819 30.2565C51.2819 30.1805 51.3229 30.0927 51.3734 30.0612C51.4345 30.0232 51.4345 29.9469 51.3734 29.8315C51.2429 29.5854 51.2563 29.3445 51.396 29.4269C51.4587 29.464 51.4434 29.4147 51.3622 29.3173C51.281 29.2199 51.2351 29.0817 51.2607 29.0103C51.2924 28.9212 51.2609 28.8984 51.1603 28.9373C50.9871 29.0043 50.8632 28.8569 51.0304 28.7823C51.108 28.7475 51.1007 28.7337 51.0081 28.7392C50.6982 28.7579 50.544 28.7206 50.5939 28.6393C50.6236 28.5905 50.5462 28.5713 50.416 28.5951C50.2617 28.6234 50.193 28.5985 50.2088 28.5202C50.248 28.3252 22.9117 28.3037 22.8376 28.4988ZM50.141 28.5414C50.0646 28.6662 23.1796 28.6662 22.9884 28.5414C22.8996 28.4836 27.6632 28.4516 36.5246 28.4507C45.6168 28.4497 50.1784 28.4801 50.141 28.5414ZM4.36948 35.5534C4.36948 35.6775 4.22208 35.6503 4.1016 35.5036C4.0133 35.3963 4.02767 35.3818 4.18169 35.4223C4.28505 35.4495 4.36948 35.5085 4.36948 35.5534Z" fill="black"/>
</svg>
